<svg width="24" height="24" viewBox="0 0 24 24" fill="none" xmlns="http://www.w3.org/2000/svg">
<rect width="24" height="24" rx="4" fill="url(#paint0_linear_151_33)"/>
<path d="M9.85735 10.5722V16.2865L14.8574 13.4293L9.85735 10.5722ZM18.4288 7.71505H13.0145L15.3645 5.36505L14.8574 4.85791L12.0002 7.71505H11.9788L9.12164 4.85791L8.62878 5.36505L10.9716 7.71505H5.57164C4.78592 7.71505 4.14307 8.35791 4.14307 9.14362V17.7151C4.14307 18.5008 4.78592 19.1436 5.57164 19.1436H18.4288C19.2145 19.1436 19.8574 18.5008 19.8574 17.7151V9.14362C19.8574 8.35791 19.2145 7.71505 18.4288 7.71505ZM18.4288 17.7151H5.57164V9.14362H18.4288V17.7151Z" fill="white"/>
<defs>
<linearGradient id="paint0_linear_151_33" x1="12" y1="0" x2="12" y2="24" gradientUnits="userSpaceOnUse">
<stop stop-color="#29D10D"/>
<stop offset="1" stop-color="#1F8D2A"/>
</linearGradient>
</defs>
</svg>
