<svg width="22" height="16" viewBox="0 0 22 16" fill="none" xmlns="http://www.w3.org/2000/svg">
<g clip-path="url(#clip0_135_22)">
<path d="M5.00002 15.9212V7.72145L2.36388 5.39498L0 4.10396V14.4742C0 15.2749 0.672461 15.9212 1.50004 15.9212H5.00002Z" fill="#4285F4"/>
<path d="M17 15.9212H20.5C21.33 15.9212 22 15.2724 22 14.4742V4.10403L19.3225 5.58275L17 7.72144V15.9212Z" fill="#34A853"/>
<path d="M4.99982 7.72145L4.64111 4.51756L4.99982 1.45111L10.9998 5.79217L16.9998 1.45111L17.401 4.352L16.9998 7.72145L10.9998 12.0625L4.99982 7.72145Z" fill="#EA4335"/>
<path d="M17 1.45111V7.72146L22 4.10396V2.1746C22 0.385166 19.8825 -0.634938 18.4001 0.438222L17 1.45111Z" fill="#FBBC04"/>
<path d="M0 4.10382L2.2996 5.76765L5.00002 7.72131V1.45097L3.59992 0.438077C2.11492 -0.635166 0 0.38502 0 2.17437V4.10373V4.10382Z" fill="#C5221F"/>
</g>
<defs>
<clipPath id="clip0_135_22">
<rect width="22" height="16" fill="white"/>
</clipPath>
</defs>
</svg>
