<svg width="23" height="23" viewBox="0 0 23 23" fill="none" xmlns="http://www.w3.org/2000/svg">
<path d="M22.9309 6.75864C22.8749 5.53452 22.6805 4.69855 22.3962 3.96716C22.1075 3.19981 21.6548 2.50475 21.0698 1.93024C20.4954 1.3452 19.8002 0.892296 19.0328 0.603462C18.3013 0.319366 17.4655 0.125114 16.2414 0.0694885C15.015 0.0133362 14.6231 0 11.5 0C8.37688 0 7.98504 0.0133362 6.75864 0.0691376C5.53452 0.125114 4.69872 0.319542 3.96716 0.603813C3.19981 0.892471 2.50475 1.3452 1.93024 1.93024C1.3452 2.50457 0.892296 3.19963 0.603462 3.96699C0.319366 4.69855 0.125114 5.53452 0.0694885 6.75846C0.0133362 7.98504 0 8.3767 0 11.4998C0 14.6231 0.0133362 15.015 0.0694885 16.2414C0.12529 17.4653 0.319717 18.3013 0.603989 19.0328C0.892647 19.8 1.34538 20.4953 1.93041 21.0696C2.50475 21.6546 3.19998 22.1074 3.96734 22.396C4.69872 22.6805 5.53469 22.8747 6.75881 22.9307C7.98539 22.9867 8.37705 22.9998 11.5002 22.9998C14.6233 22.9998 15.0151 22.9867 16.2415 22.9307C17.4657 22.8747 18.3015 22.6805 19.033 22.396C20.5777 21.7987 21.7989 20.5776 22.3962 19.0328C22.6806 18.3013 22.8749 17.4653 22.9309 16.2414C22.9867 15.0148 23 14.6231 23 11.5C23 8.3767 22.9867 7.98504 22.9309 6.75864ZM20.8608 16.1471C20.8097 17.2684 20.6223 17.8773 20.4649 18.2825C20.078 19.2855 19.2853 20.0781 18.2823 20.4651C17.8772 20.6225 17.2682 20.8099 16.147 20.8609C14.9346 20.9164 14.5708 20.928 11.5 20.928C8.42899 20.928 8.06541 20.9164 6.85287 20.8609C5.73175 20.8099 5.12285 20.6225 4.7175 20.4651C4.21809 20.2806 3.76624 19.9867 3.39529 19.6047C3.01328 19.2338 2.71935 18.7821 2.53493 18.2825C2.37753 17.8773 2.19012 17.2684 2.13905 16.1471C2.08378 14.9346 2.07202 14.5708 2.07202 11.5002C2.07202 8.42934 2.08378 8.06576 2.13905 6.85304C2.19029 5.73175 2.37753 5.12285 2.53493 4.71767C2.71935 4.21809 3.01345 3.76624 3.39529 3.39529C3.76624 3.01328 4.21809 2.71935 4.71767 2.5351C5.12285 2.37753 5.73175 2.19029 6.85304 2.13905C8.06558 2.08378 8.42934 2.07202 11.5 2.07202H11.4998C14.5705 2.07202 14.9342 2.08378 16.147 2.13923C17.2682 2.19029 17.877 2.3777 18.2823 2.5351C18.7817 2.71953 19.2336 3.01345 19.6045 3.39529C19.9865 3.76624 20.2805 4.21809 20.4647 4.71767C20.6223 5.12285 20.8097 5.73175 20.8608 6.85304C20.916 8.06558 20.9278 8.42934 20.9278 11.5C20.9278 14.5708 20.9162 14.9344 20.8608 16.1471Z" fill="url(#paint0_linear_135_496)"/>
<path d="M11.5 5.59473C8.23862 5.59473 5.59473 8.2388 5.59473 11.5002C5.59473 14.7616 8.23862 17.4055 11.5 17.4055C14.7616 17.4055 17.4055 14.7616 17.4055 11.5002C17.4055 8.2388 14.7616 5.59473 11.5 5.59473ZM11.5 15.3335C9.38308 15.3333 7.66675 13.6171 7.66692 11.5C7.66692 9.38308 9.38308 7.66675 11.5002 7.66675C13.6173 7.66692 15.3335 9.38308 15.3335 11.5C15.3335 13.6171 13.6171 15.3335 11.5 15.3335Z" fill="url(#paint1_linear_135_496)"/>
<path d="M19.0189 5.36156C19.0189 6.12366 18.401 6.74151 17.6389 6.74151C16.8766 6.74151 16.2588 6.12366 16.2588 5.36156C16.2588 4.5993 16.8766 3.98145 17.6389 3.98145C18.401 3.98145 19.0189 4.5993 19.0189 5.36156Z" fill="url(#paint2_linear_135_496)"/>
<defs>
<linearGradient id="paint0_linear_135_496" x1="1.93012" y1="21.0697" x2="21.0699" y2="1.92993" gradientUnits="userSpaceOnUse">
<stop stop-color="#FFD600"/>
<stop offset="0.5" stop-color="#FF0100"/>
<stop offset="1" stop-color="#D800B9"/>
</linearGradient>
<linearGradient id="paint1_linear_135_496" x1="7.3244" y1="15.6759" x2="15.6759" y2="7.32439" gradientUnits="userSpaceOnUse">
<stop stop-color="#FF6400"/>
<stop offset="0.5" stop-color="#FF0100"/>
<stop offset="1" stop-color="#FD0056"/>
</linearGradient>
<linearGradient id="paint2_linear_135_496" x1="16.6631" y1="6.33727" x2="18.6146" y2="4.3857" gradientUnits="userSpaceOnUse">
<stop stop-color="#F30072"/>
<stop offset="1" stop-color="#E50097"/>
</linearGradient>
</defs>
</svg>
