<svg width="24" height="24" viewBox="0 0 24 24" fill="none" xmlns="http://www.w3.org/2000/svg">
<rect width="24" height="24" rx="4" fill="url(#paint0_linear_151_27)"/>
<g clip-path="url(#clip0_151_27)">
<path d="M12.165 19.5918C12.165 19.4829 12.11 19.4285 12.0001 19.4285C11.5949 19.4285 11.2464 19.2839 10.9545 18.9948C10.6626 18.7057 10.5166 18.3605 10.5166 17.9591C10.5166 17.8503 10.4617 17.7959 10.3518 17.7959C10.2419 17.7959 10.187 17.8503 10.187 17.9591C10.187 18.4557 10.3638 18.8792 10.7175 19.2295C11.0712 19.5799 11.4988 19.755 12.0001 19.755C12.11 19.755 12.165 19.7006 12.165 19.5918ZM20.5716 16.653C20.5716 17.0067 20.4411 17.3129 20.1801 17.5714C19.9191 17.8299 19.61 17.9591 19.2529 17.9591H14.6375C14.6375 18.6802 14.3799 19.2959 13.8648 19.8061C13.3497 20.3163 12.7282 20.5714 12.0001 20.5714C11.2721 20.5714 10.6506 20.3163 10.1354 19.8061C9.62033 19.2959 9.36278 18.6802 9.36278 17.9591H4.74739C4.39025 17.9591 4.08118 17.8299 3.82019 17.5714C3.55921 17.3129 3.42871 17.0067 3.42871 16.653C3.77212 16.3673 4.08462 16.068 4.36621 15.755C4.6478 15.4421 4.9397 15.0356 5.2419 14.5356C5.5441 14.0356 5.79993 13.4965 6.00941 12.9183C6.21889 12.3401 6.39059 11.6394 6.52452 10.8163C6.65845 9.99313 6.72541 9.10877 6.72541 8.1632C6.72541 7.12918 7.1272 6.1683 7.93077 5.28054C8.73434 4.39279 9.7886 3.85367 11.0935 3.6632C11.0386 3.53394 11.0111 3.40129 11.0111 3.26524C11.0111 2.99313 11.1073 2.76184 11.2996 2.57136C11.4919 2.38088 11.7254 2.28564 12.0001 2.28564C12.2749 2.28564 12.5084 2.38088 12.7007 2.57136C12.893 2.76184 12.9892 2.99313 12.9892 3.26524C12.9892 3.40129 12.9617 3.53394 12.9067 3.6632C14.2117 3.85367 15.2659 4.39279 16.0695 5.28054C16.8731 6.1683 17.2749 7.12918 17.2749 8.1632C17.2749 9.10877 17.3418 9.99313 17.4758 10.8163C17.6097 11.6394 17.7814 12.3401 17.9909 12.9183C18.2003 13.4965 18.4562 14.0356 18.7584 14.5356C19.0606 15.0356 19.3525 15.4421 19.6341 15.755C19.9157 16.068 20.2282 16.3673 20.5716 16.653Z" fill="white"/>
</g>
<defs>
<linearGradient id="paint0_linear_151_27" x1="12" y1="0" x2="12" y2="24" gradientUnits="userSpaceOnUse">
<stop stop-color="#4DB4FE"/>
<stop offset="1" stop-color="#0B9CEE"/>
</linearGradient>
<clipPath id="clip0_151_27">
<rect width="17.1429" height="18.2857" fill="white" transform="translate(3.42871 2.28564)"/>
</clipPath>
</defs>
</svg>
