<svg width="19" height="21" viewBox="0 0 19 21" fill="none" xmlns="http://www.w3.org/2000/svg">
<path fill-rule="evenodd" clip-rule="evenodd" d="M10.0001 4.5C11.621 4.50062 13.1982 5.02639 14.4953 5.99856C15.7923 6.97072 16.7396 8.33695 17.195 9.89262C17.6505 11.4483 17.5897 13.1096 17.0217 14.6278C16.4538 16.1461 15.4092 17.4394 14.0446 18.3142C12.6799 19.1889 11.0686 19.598 9.45188 19.4801C7.8352 19.3623 6.30022 18.7238 5.07684 17.6604C3.85346 16.597 3.00754 15.1658 2.66578 13.5813C2.32401 11.9968 2.5048 10.3442 3.18107 8.871C3.25468 8.69189 3.25616 8.49126 3.1852 8.31108C3.11424 8.13091 2.97635 7.98516 2.80038 7.90435C2.6244 7.82353 2.42399 7.81391 2.24109 7.8775C2.05818 7.94109 1.90696 8.07295 1.81907 8.2455C1.00759 10.0134 0.790725 11.9966 1.20097 13.8981C1.61121 15.7995 2.62648 17.5169 4.09468 18.793C5.56289 20.069 7.40501 20.835 9.34511 20.9762C11.2852 21.1175 13.2188 20.6263 14.8564 19.5764C16.4939 18.5264 17.7472 16.9742 18.4285 15.1522C19.1098 13.3301 19.1824 11.3364 18.6355 9.46967C18.0886 7.6029 16.9516 5.96357 15.3948 4.79723C13.8381 3.63089 11.9453 3.00033 10.0001 3V4.5Z" fill="#60C3E8"/>
<path d="M10.0003 6.69864V0.800641C10.0003 0.729386 9.97993 0.659613 9.94168 0.599493C9.90343 0.539372 9.84885 0.491394 9.78432 0.461175C9.71979 0.430956 9.64798 0.419747 9.57731 0.428862C9.50664 0.437977 9.44003 0.467037 9.38528 0.512641L5.84528 3.46164C5.80308 3.49683 5.76913 3.54087 5.74583 3.59064C5.72253 3.64041 5.71045 3.69469 5.71045 3.74964C5.71045 3.80459 5.72253 3.85887 5.74583 3.90864C5.76913 3.95841 5.80308 4.00245 5.84528 4.03764L9.38528 6.98664C9.44003 7.03224 9.50664 7.06131 9.57731 7.07042C9.64798 7.07953 9.71979 7.06833 9.78432 7.03811C9.84885 7.00789 9.90343 6.95991 9.94168 6.89979C9.97993 6.83967 10.0003 6.7699 10.0003 6.69864Z" fill="#60C3E8"/>
</svg>
