<svg width="27" height="15" viewBox="0 0 27 15" fill="none" xmlns="http://www.w3.org/2000/svg">
<path fill-rule="evenodd" clip-rule="evenodd" d="M25.8088 7.88514C25.9526 7.7414 26.0333 7.54645 26.0333 7.34317C26.0333 7.13989 25.9526 6.94493 25.8088 6.80119L19.3052 0.297522C19.1614 0.153782 18.9665 0.0730301 18.7632 0.0730301C18.5599 0.0730301 18.365 0.153783 18.2212 0.297523C18.0775 0.441263 17.9967 0.636217 17.9967 0.839496C17.9967 1.04277 18.0775 1.23773 18.2212 1.38147L23.4166 6.57682L1.42006 6.57573C1.21652 6.57573 1.02132 6.65659 0.877402 6.80051C0.73348 6.94443 0.652626 7.13963 0.652625 7.34317C0.652624 7.5467 0.73348 7.7419 0.877402 7.88582C1.02132 8.02975 1.21652 8.1106 1.42006 8.1106L23.4166 8.10952L18.2212 13.3049C18.0775 13.4486 17.9967 13.6436 17.9967 13.8468C17.9967 14.0501 18.0775 14.2451 18.2212 14.3888C18.365 14.5326 18.5599 14.6133 18.7632 14.6133C18.9665 14.6133 19.1614 14.5326 19.3052 14.3888L25.8088 7.88514Z" fill="#EA4335"/>
</svg>
