<svg width="25" height="20" viewBox="0 0 25 20" fill="none" xmlns="http://www.w3.org/2000/svg">
<path d="M25 2.43585C24.0638 2.84224 23.0709 3.10899 22.0541 3.22724C23.1132 2.60523 23.9264 1.62025 24.3093 0.446661C23.3025 1.0321 22.201 1.44458 21.0523 1.66628C20.1167 0.689532 18.7838 0.0791016 17.3085 0.0791016C14.4759 0.0791016 12.1793 2.32944 12.1793 5.10494C12.1793 5.49891 12.2247 5.88245 12.3121 6.25039C8.04941 6.04073 4.27012 4.03987 1.74033 0.999101C1.29893 1.7414 1.046 2.60484 1.046 3.5258C1.046 5.26953 1.95156 6.80781 3.32773 7.70915C2.51323 7.68415 1.71665 7.46858 1.00449 7.08044C1.0042 7.10149 1.0042 7.12255 1.0042 7.14369C1.0042 9.57881 2.77217 11.6102 5.11846 12.0719C4.36317 12.2732 3.57093 12.3027 2.80225 12.158C3.45488 14.1548 5.34912 15.6078 7.59346 15.6485C5.83809 16.9964 3.62646 17.8 1.22354 17.8C0.809473 17.8 0.40127 17.7761 0 17.7297C2.26982 19.1557 4.96582 19.9878 7.8623 19.9878C17.2966 19.9878 22.4555 12.3293 22.4555 5.68781C22.4555 5.46982 22.4506 5.25307 22.4406 5.03757C23.4448 4.32626 24.3114 3.44524 25 2.43585Z" fill="#55ACEE"/>
</svg>
