<svg width="26" height="26" viewBox="0 0 26 26" fill="none" xmlns="http://www.w3.org/2000/svg">
<path d="M0 26L1.79309 19.5C0.627606 17.4828 0 15.2414 0 12.9103C0 5.8276 5.82761 0 12.9552 0C20.0827 0 26 5.8276 26 12.9103C26 19.993 20.0828 26 12.9552 26C10.7138 26 8.56207 25.2828 6.63447 24.2069L0 26Z" fill="#EDEDED"/>
<path d="M6.99292 21.8757L7.39637 22.0998C9.05499 23.1308 10.9826 23.7584 12.9998 23.7584C18.8722 23.7584 23.7584 18.8722 23.7584 12.9101C23.7584 6.94807 18.8722 2.24121 12.955 2.24121C7.03775 2.24121 2.24121 6.99291 2.24121 12.9101C2.24121 14.9722 2.82398 16.9895 3.89983 18.6929L4.16882 19.0964L3.1378 22.8619L6.99292 21.8757Z" fill="#55CD6C"/>
<path d="M9.50354 6.90324L8.65184 6.8584C8.38285 6.8584 8.11391 6.94808 7.9346 7.12739C7.53115 7.486 6.85875 8.1584 6.67944 9.05499C6.36567 10.3998 6.85875 12.0136 8.02428 13.6274C9.18982 15.2412 11.4312 17.8412 15.376 18.9619C16.6311 19.3205 17.6174 19.0963 18.4243 18.6032C19.0519 18.1998 19.4553 17.5722 19.5898 16.8998L19.7243 16.2722C19.7691 16.0929 19.6794 15.8687 19.5001 15.7791L16.676 14.4791C16.4967 14.3894 16.2725 14.4342 16.1381 14.6136L15.0174 16.048C14.9277 16.1377 14.7932 16.1825 14.6588 16.1377C13.8967 15.8687 11.3415 14.7929 9.95184 12.1032C9.907 11.9688 9.907 11.8342 9.99668 11.7446L11.0725 10.5343C11.1622 10.3998 11.207 10.2205 11.1622 10.086L9.86221 7.17223C9.81732 7.03771 9.68285 6.90324 9.50354 6.90324Z" fill="#FEFEFE"/>
</svg>
