<svg width="30" height="22" viewBox="0 0 30 22" fill="none" xmlns="http://www.w3.org/2000/svg">
<g clip-path="url(#clip0_135_486)">
<path d="M29.3374 3.43139C29.1654 2.76816 28.8297 2.16351 28.3639 1.67766C27.8981 1.1918 27.3183 0.841697 26.6824 0.6622C24.3544 0 14.9848 0 14.9848 0C14.9848 0 5.61471 0.0200444 3.28666 0.682244C2.65075 0.861752 2.07101 1.21188 1.60519 1.69775C1.13937 2.18363 0.80372 2.7883 0.631663 3.45156C-0.0725165 7.76576 -0.345681 14.3396 0.650999 18.4812C0.823074 19.1445 1.15873 19.7491 1.62455 20.235C2.09037 20.7208 2.6701 21.0709 3.306 21.2504C5.63405 21.9126 15.0039 21.9126 15.0039 21.9126C15.0039 21.9126 24.3736 21.9126 26.7015 21.2504C27.3375 21.0709 27.9172 20.7208 28.3831 20.235C28.8489 19.7491 29.1846 19.1445 29.3567 18.4812C30.0994 14.1609 30.3283 7.59122 29.3374 3.43151V3.43139Z" fill="#FF0000"/>
<path d="M12.0024 15.6518L19.7753 10.9563L12.0024 6.26074V15.6518Z" fill="white"/>
</g>
<defs>
<clipPath id="clip0_135_486">
<rect width="30" height="22" fill="white"/>
</clipPath>
</defs>
</svg>
