<svg width="73" height="73" viewBox="0 0 73 73" fill="none" xmlns="http://www.w3.org/2000/svg">
<path d="M40.8619 0.69391C27.4095 4.64988 30.1076 14.0371 28.603 24.4387C26.7251 37.4208 18.609 30.7642 9.28424 37.7751C-6.83479 49.8943 4.87415 76.647 24.892 72.5841C35.5215 70.4267 37.6935 62.5901 42.0289 54.2166C47.6369 43.3847 56.9366 46.3379 65.2785 39.2664C82.1961 24.9256 59.9457 -4.91811 40.8619 0.69391Z" fill="url(#paint0_linear_135_106)"/>
<path opacity="0.1" d="M63.1961 18.128H23.99C23.3277 13.836 19.618 10.5497 15.1405 10.5497C10.1947 10.5497 6.18555 14.559 6.18555 19.5047C6.18555 23.5877 8.9192 27.0301 12.6553 28.1076V50.7875C12.6553 51.575 13.2936 52.2133 14.0811 52.2133H31.4384V63.5694H25.9017C25.5079 63.5694 25.1888 63.8884 25.1888 64.2822C25.1888 64.676 25.5079 64.9951 25.9017 64.9951H50.9478C51.3416 64.9951 51.6607 64.676 51.6607 64.2822C51.6607 63.8884 51.3416 63.5694 50.9478 63.5694H45.4111V52.2133H63.1963C63.9837 52.2133 64.622 51.575 64.622 50.7875V19.5538C64.6219 18.7663 63.9836 18.128 63.1961 18.128ZM35.1925 52.2133H41.657V55.7903C41.657 57.5754 40.2098 59.0225 38.4247 59.0225C36.6397 59.0225 35.1925 57.5754 35.1925 55.7903V52.2133Z" fill="#2626BC"/>
<path d="M45.4111 45.9709V60.8604H31.4385V45.9709H35.1926V52.3684C35.1926 54.1535 36.6397 55.6007 38.4248 55.6007C40.2099 55.6007 41.6571 54.1535 41.6571 52.3684V45.9709H45.4111Z" fill="#9FB0FE"/>
<path d="M41.6572 45.9709H45.4113V51.0681H41.6572V45.9709Z" fill="#8399FE"/>
<path d="M31.4385 45.9709H35.1926V51.0681H31.4385V45.9709Z" fill="#8399FE"/>
<path d="M63.1961 48.7918H14.0811C13.2936 48.7918 12.6553 48.1535 12.6553 47.3661V16.1323C12.6553 15.3449 13.2936 14.7065 14.0811 14.7065H63.1962C63.9837 14.7065 64.622 15.3449 64.622 16.1323V47.3661C64.6219 48.1535 63.9836 48.7918 63.1961 48.7918Z" fill="#6583FE"/>
<path d="M64.6221 16.1313V42.5539H12.6553V16.1313C12.6553 15.3443 13.294 14.7056 14.0811 14.7056H63.1964C63.9834 14.7056 64.6221 15.3443 64.6221 16.1313Z" fill="white"/>
<path d="M24.0957 18.7919V26.6237C24.0957 27.2439 23.5924 27.7472 22.9722 27.7472H15.1404C14.2778 27.7472 13.4437 27.626 12.6553 27.3979V16.1313C12.6553 15.3443 13.294 14.7056 14.0811 14.7056H23.1105C23.7407 15.9303 24.0957 17.3205 24.0957 18.7919Z" fill="#FFDBED"/>
<path d="M47.0508 14.7062H64.622V38.2518H47.0508V14.7062Z" fill="#FFA8CF"/>
<path d="M12.6553 34.91H64.6296V42.5545H12.6553V34.91Z" fill="#FF7EB8"/>
<path d="M41.0389 45.8402H35.811C35.4174 45.8402 35.0981 45.5211 35.0981 45.1273C35.0981 44.7335 35.4174 44.4144 35.811 44.4144H41.0389C41.4327 44.4144 41.7518 44.7335 41.7518 45.1273C41.7518 45.5211 41.4327 45.8402 41.0389 45.8402Z" fill="#9FB0FE"/>
<path d="M27.4238 22.4232V27.6523C27.4238 28.145 27.9517 28.4577 28.3838 28.221L33.1572 25.6066C33.6064 25.3605 33.6064 24.7152 33.1572 24.4691L28.3838 21.8546C27.9517 21.6178 27.4238 21.9305 27.4238 22.4232Z" fill="#FF7EB8"/>
<path d="M42.6072 32.4617H17.561C17.1672 32.4617 16.8481 32.1426 16.8481 31.7488C16.8481 31.355 17.1672 31.0359 17.561 31.0359H42.6072C43.001 31.0359 43.3201 31.355 43.3201 31.7488C43.3201 32.1426 43.001 32.4617 42.6072 32.4617Z" fill="#B7C5FF"/>
<path d="M41.0989 40.9423H24.6074C24.2136 40.9423 23.8945 40.6232 23.8945 40.2294C23.8945 39.8356 24.2136 39.5165 24.6074 39.5165H41.0989C41.4927 39.5165 41.8118 39.8356 41.8118 40.2294C41.8118 40.6232 41.4927 40.9423 41.0989 40.9423Z" fill="white"/>
<path d="M28.2668 38.4961H24.6074C24.2136 38.4961 23.8945 38.177 23.8945 37.7832C23.8945 37.3894 24.2136 37.0703 24.6074 37.0703H28.2668C28.6606 37.0703 28.9797 37.3894 28.9797 37.7832C28.9797 38.177 28.6606 38.4961 28.2668 38.4961Z" fill="white"/>
<path d="M60.7146 39.434H57.0552C56.6614 39.434 56.3423 39.1149 56.3423 38.7211C56.3423 38.3273 56.6614 38.0082 57.0552 38.0082H60.7146C61.1084 38.0082 61.4275 38.3273 61.4275 38.7211C61.4275 39.1149 61.1084 39.434 60.7146 39.434Z" fill="white"/>
<path d="M21.1017 31.0359H17.561C17.1672 31.0359 16.8481 31.355 16.8481 31.7488C16.8481 32.1426 17.1672 32.4617 17.561 32.4617H21.1017V31.0359Z" fill="#FF7EB8"/>
<path d="M18.9746 40.9423C20.1951 40.9423 21.1846 39.9528 21.1846 38.7323C21.1846 37.5118 20.1951 36.5223 18.9746 36.5223C17.7541 36.5223 16.7646 37.5118 16.7646 38.7323C16.7646 39.9528 17.7541 40.9423 18.9746 40.9423Z" fill="#02FFB3"/>
<path d="M54.6074 39.4423C54.2136 39.4423 53.8945 39.1232 53.8945 38.7294V38.713C53.8945 38.3192 54.2136 38.0001 54.6074 38.0001C55.0012 38.0001 55.3203 38.3192 55.3203 38.713V38.7294C55.3203 39.1231 55.0012 39.4423 54.6074 39.4423Z" fill="white"/>
<path d="M61.4274 34.91H49.4155V29.64C49.4155 29.2464 49.7348 28.9271 50.1284 28.9271H60.7146C61.1082 28.9271 61.4274 29.2464 61.4274 29.64V34.91Z" fill="#6583FE"/>
<path d="M60.7146 26.479H50.1284C49.7348 26.479 49.4155 26.1597 49.4155 25.7661V20.3535C49.4155 19.9599 49.7348 19.6406 50.1284 19.6406H60.7146C61.1082 19.6406 61.4274 19.9599 61.4274 20.3535V25.7661C61.4274 26.1597 61.1084 26.479 60.7146 26.479Z" fill="#02FFB3"/>
<path d="M54.3633 22.148V23.9717C54.3633 24.1435 54.5474 24.2526 54.6981 24.17L56.3628 23.2581C56.5195 23.1723 56.5195 22.9471 56.3628 22.8613L54.6981 21.9495C54.5474 21.867 54.3633 21.976 54.3633 22.148Z" fill="#FF7EB8"/>
<path d="M54.3633 31.5498V33.3735C54.3633 33.5453 54.5474 33.6544 54.6981 33.5718L56.3628 32.6599C56.5195 32.574 56.5195 32.3489 56.3628 32.2631L54.6981 31.3513C54.5474 31.2689 54.3633 31.378 54.3633 31.5498Z" fill="#FF7EB8"/>
<path d="M22.9728 25.0379H15.1406C10.1948 25.0379 6.18555 21.0286 6.18555 16.0829C6.18555 11.1371 10.1948 7.12781 15.1406 7.12781C20.0863 7.12781 24.0956 11.1371 24.0956 16.0829V23.9151C24.0955 24.5352 23.5928 25.0379 22.9728 25.0379Z" fill="#FF7EB8"/>
<path d="M12.6553 13.7152V18.9442C12.6553 19.437 13.1831 19.7498 13.6153 19.513L18.3886 16.8985C18.8379 16.6524 18.8379 16.0071 18.3886 15.761L13.6153 13.1464C13.1831 12.9098 12.6553 13.2224 12.6553 13.7152Z" fill="#FE2C8F"/>
<path d="M63.6037 56.3308C63.2099 56.3308 62.8908 56.0117 62.8908 55.6179C62.8908 55.1461 62.5069 54.7625 62.0352 54.7625C61.6414 54.7625 61.3223 54.4434 61.3223 54.0496C61.3223 53.6558 61.6414 53.3367 62.0352 53.3367C62.5069 53.3367 62.8908 52.953 62.8908 52.4812C62.8908 52.0874 63.2099 51.7683 63.6037 51.7683C63.9975 51.7683 64.3165 52.0874 64.3165 52.4812C64.3165 52.953 64.7002 53.3367 65.1719 53.3367C65.5657 53.3367 65.8848 53.6558 65.8848 54.0496C65.8848 54.4434 65.5657 54.7625 65.1719 54.7625C64.7002 54.7625 64.3165 55.1461 64.3165 55.6179C64.3165 56.0117 63.9973 56.3308 63.6037 56.3308Z" fill="#6583FE"/>
<path d="M27.4238 9.69421C27.03 9.69421 26.7109 9.37512 26.7109 8.98132C26.7109 8.50953 26.3273 8.12585 25.8555 8.12585C25.4617 8.12585 25.1426 7.80676 25.1426 7.41296C25.1426 7.01916 25.4617 6.70007 25.8555 6.70007C26.3273 6.70007 26.7109 6.3164 26.7109 5.8446C26.7109 5.4508 27.03 5.13171 27.4238 5.13171C27.8176 5.13171 28.1367 5.4508 28.1367 5.8446C28.1367 6.3164 28.5204 6.70007 28.9922 6.70007C29.386 6.70007 29.7051 7.01916 29.7051 7.41296C29.7051 7.80676 29.386 8.12585 28.9922 8.12585C28.5204 8.12585 28.1367 8.50953 28.1367 8.98132C28.1367 9.37512 27.8176 9.69421 27.4238 9.69421Z" fill="#6583FE"/>
<path d="M59.2891 62.316C58.8953 62.316 58.5762 61.997 58.5762 61.6031C58.5762 61.1314 58.1925 60.7477 57.7207 60.7477C57.3269 60.7477 57.0078 60.4286 57.0078 60.0348C57.0078 59.641 57.3269 59.3219 57.7207 59.3219C58.1925 59.3219 58.5762 58.9382 58.5762 58.4664C58.5762 58.0726 58.8953 57.7535 59.2891 57.7535C59.6829 57.7535 60.002 58.0726 60.002 58.4664C60.002 58.9382 60.3856 59.3219 60.8574 59.3219C61.2512 59.3219 61.5703 59.641 61.5703 60.0348C61.5703 60.4286 61.2512 60.7477 60.8574 60.7477C60.3856 60.7477 60.002 61.1314 60.002 61.6031C60.002 61.997 59.6829 62.316 59.2891 62.316Z" fill="#01ECA5"/>
<path d="M54.2035 58.4657C54.0211 58.4657 53.8385 58.3961 53.6995 58.2568L52.0868 56.6441C51.8083 56.3658 51.8083 55.9144 52.0868 55.6361L53.6995 54.0234C53.9776 53.745 54.4293 53.745 54.7075 54.0234L56.3202 55.6361C56.5987 55.9144 56.5987 56.3658 56.3202 56.6441L54.7075 58.2568C54.5685 58.396 54.3858 58.4657 54.2035 58.4657ZM53.5991 56.1401L54.2035 56.7445L54.8079 56.1401L54.2035 55.5357L53.5991 56.1401Z" fill="#FF7EB8"/>
<path d="M7.69913 32.0098C7.51677 32.0098 7.33413 31.9402 7.19511 31.801L5.58241 30.1885C5.44867 30.0547 5.37354 29.8734 5.37354 29.6843C5.37354 29.4953 5.44853 29.3139 5.58241 29.1803L7.19511 27.5676C7.47328 27.2892 7.92497 27.2892 8.20314 27.5676L9.81584 29.1803C9.94958 29.314 10.0247 29.4953 10.0247 29.6843C10.0247 29.8734 9.94958 30.0547 9.81584 30.1885L8.20314 31.801C8.06413 31.9402 7.88148 32.0098 7.69913 32.0098ZM7.09474 29.6843L7.69913 30.2889L8.30352 29.6845L7.69913 29.0799L7.09474 29.6843Z" fill="#01ECA5"/>
<path d="M63.1961 13.9934H28.6939C28.3001 13.9934 27.981 14.3125 27.981 14.7063C27.981 15.1001 28.3001 15.4192 28.6939 15.4192H63.1961C63.5892 15.4192 63.909 15.739 63.909 16.132V47.3656C63.909 47.7587 63.5892 48.0785 63.1961 48.0785H14.0811C13.688 48.0785 13.3682 47.7587 13.3682 47.3656V25.585C13.9432 25.6921 14.5351 25.7506 15.1406 25.7506H22.973C23.9851 25.7506 24.8085 24.9273 24.8085 23.9151V16.0829C24.8085 10.7519 20.4716 6.41492 15.1406 6.41492C9.8096 6.41492 5.47266 10.7519 5.47266 16.0829C5.47266 20.2932 8.17879 23.8813 11.9424 25.2047V47.3656C11.9424 48.5449 12.9018 49.5043 14.0811 49.5043H34.4796V52.3684C34.4796 54.5437 36.2494 56.3136 38.4247 56.3136C40.6001 56.3136 42.3699 54.5437 42.3699 52.3684V49.5043H44.6982V60.1473H32.1513V53.5906C32.1513 53.1968 31.8322 52.8777 31.4384 52.8777C31.0446 52.8777 30.7255 53.1968 30.7255 53.5906V60.1473H25.9017C25.5079 60.1473 25.1888 60.4664 25.1888 60.8602C25.1888 61.254 25.5079 61.5731 25.9017 61.5731H31.4384H45.4111H50.9478C51.3416 61.5731 51.6607 61.254 51.6607 60.8602C51.6607 60.4664 51.3416 60.1473 50.9478 60.1473H46.124V49.5043H63.1961C64.3754 49.5043 65.3348 48.5449 65.3348 47.3656V16.132C65.3348 14.9526 64.3755 13.9934 63.1961 13.9934ZM6.89844 16.0829C6.89844 11.5382 10.5959 7.8407 15.1406 7.8407C19.6853 7.8407 23.3827 11.5382 23.3827 16.0829V23.9152C23.3827 24.1412 23.199 24.325 22.973 24.325H15.1406C10.5958 24.3249 6.89844 20.6275 6.89844 16.0829ZM40.9441 52.3684C40.9441 53.7576 39.8139 54.8878 38.4247 54.8878C37.0356 54.8878 35.9054 53.7576 35.9054 52.3684V49.5043H40.9441V52.3684Z" fill="#2626BC"/>
<defs>
<linearGradient id="paint0_linear_135_106" x1="1.71576" y1="36.5" x2="71.2842" y2="36.5" gradientUnits="userSpaceOnUse">
<stop offset="0.0485" stop-color="#FFDBED"/>
<stop offset="0.9993" stop-color="#D2DEFF"/>
</linearGradient>
</defs>
</svg>
