<svg width="91" height="85" viewBox="0 0 91 85" fill="none" xmlns="http://www.w3.org/2000/svg">
<path d="M50.5143 5.72243C36.5917 9.84098 39.3842 19.614 37.827 30.4431C35.8834 43.9586 27.4836 37.0285 17.833 44.3275C1.15052 56.9448 13.2687 84.7969 33.9862 80.5671C44.9873 78.3211 47.2352 70.1623 51.7221 61.4447C57.5262 50.1676 67.1509 53.2422 75.7844 45.8802C93.2933 30.95 70.2652 -0.120227 50.5143 5.72243Z" fill="url(#paint0_linear_135_63)"/>
<path d="M67.5512 42.6679C67.5506 44.013 67.016 45.3028 66.065 46.2539C65.1139 47.205 63.8241 47.7395 62.479 47.7401C62.2235 47.74 61.9683 47.7218 61.7153 47.6855V47.7947C61.7161 49.1804 61.1673 50.5097 60.1893 51.4913C59.2112 52.4729 57.8839 53.0265 56.4982 53.0307C56.1751 53.0283 55.8529 52.9979 55.535 52.9397C54.4318 53.974 52.9747 54.5471 51.4624 54.5414C50.3142 54.5418 49.1896 54.215 48.2204 53.5993C47.2512 52.9836 46.4775 52.1046 45.9898 51.065C45.75 51.7952 45.3018 52.4393 44.7004 52.9179C44.099 53.3964 43.3708 53.6885 42.6054 53.7582C41.84 53.8279 41.0709 53.672 40.393 53.3099C39.7151 52.9478 39.158 52.3952 38.7903 51.7203C38.6577 51.7354 38.5241 51.7415 38.3906 51.7385C37.8724 51.7389 37.3592 51.6372 36.8803 51.4391C36.4014 51.241 35.9663 50.9505 35.5999 50.584C35.2334 50.2176 34.9429 49.7825 34.7448 49.3036C34.5467 48.8247 34.4449 48.3115 34.4454 47.7933C34.442 47.6416 34.4481 47.4899 34.4636 47.339C34.4042 47.354 34.3429 47.3602 34.2816 47.3572C33.3439 47.3574 32.4192 47.1372 31.5823 46.7143C30.7454 46.2914 30.0196 45.6777 29.4635 44.9226C28.4538 44.919 27.4867 44.515 26.7744 43.7993C26.0621 43.0836 25.6627 42.1146 25.6639 41.1048C25.6647 40.6276 25.7513 40.1544 25.9194 39.7077C25.4551 39.21 25.1107 38.6127 24.9127 37.9614C24.7147 37.3101 24.6683 36.6222 24.7771 35.9502C24.8858 35.2782 25.1469 34.64 25.5402 34.0845C25.9335 33.5289 26.4488 33.0707 27.0464 32.7449C27.0725 31.5133 27.5228 30.3286 28.3213 29.3906C29.1198 28.4527 30.2176 27.8191 31.4292 27.5969C31.3412 27.327 31.2982 27.0444 31.3018 26.7604C31.3037 25.9028 31.6453 25.0808 32.2517 24.4743C32.8582 23.8678 33.6802 23.5263 34.5379 23.5243C35.0841 23.5189 35.6224 23.655 36.1004 23.9195C36.5783 24.184 36.9796 24.5678 37.2651 25.0335C37.6897 24.0052 38.3845 23.1108 39.2759 22.4451C40.1672 21.7794 41.2221 21.3671 42.3286 21.2519C43.4352 21.1367 44.5523 21.3229 45.5617 21.7907C46.5711 22.2586 47.4352 22.9906 48.0625 23.9095C49.0068 23.2878 50.1135 22.9586 51.244 22.963C52.3157 22.9603 53.3676 23.2522 54.2846 23.8069C55.2016 24.3616 55.9485 25.1576 56.4436 26.1081C56.8976 25.9401 57.3778 25.8541 57.8618 25.854C58.9754 25.8546 60.0431 26.2972 60.8305 27.0846C61.6179 27.872 62.0605 28.9398 62.0611 30.0533C62.061 30.2666 62.0427 30.4794 62.0065 30.6896C62.376 31.0248 62.6743 31.431 62.8836 31.8839C63.0928 32.3368 63.2088 32.8272 63.2245 33.3258C63.9827 33.571 64.6441 34.0491 65.1147 34.6921C65.5853 35.3351 65.841 36.1102 65.8454 36.907C65.8423 37.4863 65.712 38.0579 65.4639 38.5815C66.1127 39.0466 66.6407 39.6603 67.0039 40.3712C67.367 41.0821 67.5547 41.8696 67.5512 42.6679Z" fill="#FE7058"/>
<path d="M66.2288 46.0778C66.2874 45.7731 66.3167 45.4635 66.3162 45.1532C66.3188 44.3534 66.1298 43.5645 65.765 42.8527C65.4002 42.1409 64.8702 41.5267 64.2194 41.0617C64.4709 40.5417 64.6027 39.9721 64.6053 39.3945C64.601 38.5976 64.3454 37.8223 63.8748 37.1792C63.4042 36.536 62.7427 36.0578 61.9844 35.8126C61.9696 35.3141 61.8543 34.8237 61.6454 34.3708C61.4365 33.9179 61.1382 33.5119 60.7686 33.1771C60.8036 32.9654 60.8207 32.7511 60.8195 32.5364C60.8234 31.8623 60.664 31.1971 60.355 30.5979C60.0459 29.9987 59.5965 29.4833 59.0449 29.0955C58.4934 28.7078 57.8561 28.4594 57.1877 28.3714C56.5193 28.2835 55.8395 28.3586 55.2064 28.5905C54.7111 27.6405 53.9644 26.8447 53.0477 26.2901C52.1311 25.7355 51.0797 25.4433 50.0083 25.4454C48.8777 25.4408 47.771 25.77 46.8268 26.3919C46.1979 25.4739 45.3328 24.7428 44.3228 24.2758C43.3128 23.8089 42.1954 23.6234 41.0888 23.739C39.9821 23.8546 38.9271 24.2669 38.0354 24.9325C37.1437 25.5981 36.4483 26.4922 36.0228 27.5203C35.7383 27.0548 35.3377 26.6713 34.8604 26.4071C34.3832 26.1429 33.8454 26.0072 33.2999 26.0133C32.5725 26.0118 31.8663 26.2584 31.2979 26.7122C31.3129 25.8624 31.6607 25.0523 32.2664 24.4561C32.8722 23.8599 33.6876 23.525 34.5376 23.5234C35.0828 23.5188 35.62 23.6552 36.097 23.9192C36.574 24.1832 36.9748 24.566 37.2604 25.0304C37.6856 24.0017 38.3811 23.1071 39.2732 22.4413C40.1654 21.7755 41.2209 21.3633 42.3281 21.2484C43.4353 21.1335 44.553 21.3202 45.5628 21.7886C46.5727 22.257 47.437 22.9897 48.0644 23.9093C49.0076 23.2853 50.115 22.9558 51.2459 22.9628C52.3173 22.9607 53.3687 23.2529 54.2854 23.8075C55.2021 24.3621 55.9488 25.1579 56.4441 26.1079C56.8979 25.9375 57.379 25.8512 57.8637 25.8531C58.4149 25.8535 58.9606 25.9625 59.4697 26.1738C59.9788 26.3851 60.4413 26.6947 60.8307 27.0848C61.2201 27.4749 61.5288 27.9379 61.7393 28.4473C61.9497 28.9567 62.0578 29.5027 62.0572 30.0539C62.0583 30.2661 62.0413 30.478 62.0062 30.6872C62.3755 31.0224 62.6734 31.4285 62.8823 31.8813C63.0912 32.3341 63.2067 32.8243 63.222 33.3227C63.9803 33.5679 64.6419 34.0462 65.1125 34.6893C65.5831 35.3325 65.8387 36.1077 65.8429 36.9046C65.8396 37.4844 65.7078 38.0563 65.4571 38.5791C66.0352 38.9951 66.5186 39.5289 66.8754 40.1453C67.2322 40.7617 67.4544 41.4466 67.5273 42.1551C67.6003 42.8636 67.5222 43.5795 67.2984 44.2556C67.0746 44.9318 66.71 45.5528 66.2288 46.0778Z" fill="#EA6453"/>
<path d="M26.0288 64.3144H25.3008V59.1417L30.255 56.2107V46.1019H30.9831V56.6256L26.0288 59.5567V64.3144Z" fill="#323C6B"/>
<path d="M46.6021 65.935H45.874V41.4135L50.0376 38.0958L50.4912 38.6651L46.6021 41.7644V65.935Z" fill="#323C6B"/>
<path d="M38.5922 58.9874H37.8642V41.9871L33.3184 39.4077L33.678 38.7743L38.5922 41.5634V58.9874Z" fill="#323C6B"/>
<path d="M66.9718 64.6428H66.2438V60.8097L61.291 57.8816V48.6086H62.019V57.4659L66.9718 60.3947V64.6428Z" fill="#323C6B"/>
<path d="M54.4111 60.3009H53.6831V45.9878L56.3659 43.8044L56.8253 44.3687L54.4111 46.3344V60.3009Z" fill="#323C6B"/>
<path d="M66.6062 69.4259C67.9274 69.4259 68.9985 68.3548 68.9985 67.0335C68.9985 65.7123 67.9274 64.6412 66.6062 64.6412C65.2849 64.6412 64.2139 65.7123 64.2139 67.0335C64.2139 68.3548 65.2849 69.4259 66.6062 69.4259Z" fill="#E7AA6C"/>
<path d="M66.6059 69.7899C66.0606 69.7905 65.5275 69.6293 65.0738 69.3268C64.6201 69.0243 64.2664 68.594 64.0573 68.0904C63.8483 67.5868 63.7933 67.0325 63.8993 66.4976C64.0053 65.9627 64.2676 65.4713 64.653 65.0856C65.0383 64.6998 65.5294 64.437 66.0642 64.3304C66.599 64.2238 67.1533 64.2782 67.6571 64.4868C68.161 64.6953 68.5916 65.0486 68.8946 65.5019C69.1976 65.9553 69.3593 66.4883 69.3593 67.0335C69.3586 67.7638 69.0683 68.464 68.5522 68.9807C68.0361 69.4974 67.3362 69.7883 66.6059 69.7899ZM66.6059 65.0053C66.2046 65.0047 65.8122 65.1231 65.4783 65.3457C65.1443 65.5682 64.8839 65.8848 64.7299 66.2553C64.576 66.6259 64.5354 67.0338 64.6133 67.4275C64.6913 67.8211 64.8842 68.1828 65.1678 68.4667C65.4513 68.7507 65.8127 68.9442 66.2062 69.0227C66.5998 69.1012 67.0077 69.0612 67.3785 68.9077C67.7493 68.7543 68.0663 68.4943 68.2893 68.1607C68.5123 67.8271 68.6313 67.4348 68.6313 67.0335C68.6309 66.4962 68.4175 65.9808 68.0379 65.6005C67.6582 65.2202 67.1433 65.0059 66.6059 65.0045V65.0053Z" fill="#323C6B"/>
<path d="M54.0456 65.0891C55.3669 65.0891 56.4379 64.018 56.4379 62.6968C56.4379 61.3755 55.3669 60.3044 54.0456 60.3044C52.7244 60.3044 51.6533 61.3755 51.6533 62.6968C51.6533 64.018 52.7244 65.0891 54.0456 65.0891Z" fill="#27CCBC"/>
<path d="M54.0454 65.4538C53.5003 65.4538 52.9674 65.2922 52.5141 64.9893C52.0609 64.6865 51.7076 64.2561 51.4989 63.7525C51.2903 63.2488 51.2357 62.6947 51.342 62.16C51.4483 61.6254 51.7107 61.1342 52.0961 60.7487C52.4815 60.3632 52.9726 60.1007 53.5072 59.9942C54.0418 59.8878 54.596 59.9423 55.0997 60.1508C55.6034 60.3593 56.0339 60.7124 56.3368 61.1656C56.6398 61.6188 56.8016 62.1516 56.8017 62.6968C56.801 63.4276 56.5103 64.1283 55.9936 64.6452C55.4769 65.162 54.7762 65.4529 54.0454 65.4538ZM54.0454 60.6685C53.6442 60.6685 53.2521 60.7874 52.9185 61.0103C52.585 61.2332 52.325 61.5499 52.1715 61.9206C52.018 62.2912 51.9778 62.699 52.0561 63.0925C52.1343 63.4859 52.3275 63.8473 52.6112 64.131C52.8948 64.4146 53.2562 64.6078 53.6497 64.6861C54.0431 64.7643 54.451 64.7242 54.8216 64.5707C55.1922 64.4171 55.509 64.1572 55.7319 63.8236C55.9547 63.4901 56.0737 63.0979 56.0737 62.6968C56.0731 62.159 55.8592 61.6434 55.479 61.2632C55.0987 60.8829 54.5832 60.669 54.0454 60.6685Z" fill="#323C6B"/>
<path d="M46.2361 70.7218C47.5573 70.7218 48.6284 69.6507 48.6284 68.3294C48.6284 67.0082 47.5573 65.9371 46.2361 65.9371C44.9148 65.9371 43.8438 67.0082 43.8438 68.3294C43.8438 69.6507 44.9148 70.7218 46.2361 70.7218Z" fill="#BBBBCD"/>
<path d="M46.2368 71.0859C45.6916 71.0859 45.1587 70.9242 44.7055 70.6214C44.2522 70.3185 43.8989 69.888 43.6903 69.3844C43.4817 68.8807 43.4271 68.3265 43.5334 67.7918C43.6398 67.2572 43.9023 66.766 44.2878 66.3806C44.6733 65.9951 45.1644 65.7326 45.6991 65.6262C46.2337 65.5199 46.7879 65.5744 47.2916 65.7831C47.7953 65.9917 48.2257 66.345 48.5286 66.7982C48.8315 67.2515 48.9931 67.7844 48.9931 68.3296C48.9924 69.0604 48.7017 69.761 48.185 70.2777C47.6682 70.7945 46.9676 71.0851 46.2368 71.0859ZM46.2368 66.3005C45.8357 66.3005 45.4435 66.4195 45.11 66.6423C44.7765 66.8652 44.5165 67.1819 44.363 67.5525C44.2094 67.9231 44.1692 68.3308 44.2474 68.7243C44.3256 69.1177 44.5187 69.4791 44.8023 69.7628C45.0859 70.0465 45.4472 70.2397 45.8406 70.3181C46.2341 70.3964 46.6419 70.3564 47.0125 70.203C47.3831 70.0495 47.7 69.7897 47.9229 69.4562C48.1459 69.1228 48.2649 68.7307 48.2651 68.3296C48.2645 67.7917 48.0507 67.2761 47.6704 66.8957C47.2902 66.5154 46.7746 66.3013 46.2368 66.3005Z" fill="#323C6B"/>
<path d="M38.2253 63.7736C39.5466 63.7736 40.6176 62.7026 40.6176 61.3813C40.6176 60.0601 39.5466 58.989 38.2253 58.989C36.9041 58.989 35.833 60.0601 35.833 61.3813C35.833 62.7026 36.9041 63.7736 38.2253 63.7736Z" fill="#FCD462"/>
<path d="M38.2251 64.1375C37.6799 64.1375 37.147 63.9759 36.6937 63.673C36.2405 63.3701 35.8872 62.9397 35.6786 62.436C35.4699 61.9324 35.4154 61.3782 35.5217 60.8435C35.6281 60.3088 35.8906 59.8177 36.2761 59.4322C36.6615 59.0467 37.1527 58.7842 37.6873 58.6778C38.222 58.5715 38.7762 58.6261 39.2799 58.8347C39.7835 59.0433 40.214 59.3966 40.5169 59.8499C40.8198 60.3032 40.9814 60.8361 40.9814 61.3812C40.9806 62.112 40.69 62.8126 40.1732 63.3294C39.6565 63.8461 38.9559 64.1368 38.2251 64.1375ZM38.2251 59.3522C37.824 59.3522 37.4318 59.4711 37.0983 59.694C36.7648 59.9168 36.5048 60.2335 36.3512 60.6041C36.1977 60.9747 36.1575 61.3825 36.2357 61.7759C36.3139 62.1693 36.507 62.5308 36.7906 62.8144C37.0742 63.0981 37.4355 63.2914 37.8289 63.3697C38.2223 63.4481 38.6301 63.408 39.0008 63.2546C39.3714 63.1012 39.6882 62.8413 39.9112 62.5079C40.1342 62.1744 40.2532 61.7823 40.2534 61.3812C40.2528 60.8434 40.0389 60.3277 39.6587 59.9474C39.2785 59.567 38.7629 59.353 38.2251 59.3522Z" fill="#323C6B"/>
<path d="M25.6648 69.1274C26.986 69.1274 28.0571 68.0563 28.0571 66.7351C28.0571 65.4139 26.986 64.3428 25.6648 64.3428C24.3435 64.3428 23.2725 65.4139 23.2725 66.7351C23.2725 68.0563 24.3435 69.1274 25.6648 69.1274Z" fill="#89C5CD"/>
<path d="M25.6645 69.4915C25.1194 69.4915 24.5865 69.3299 24.1332 69.027C23.6799 68.7241 23.3266 68.2937 23.118 67.79C22.9094 67.2864 22.8548 66.7322 22.9612 66.1975C23.0675 65.6628 23.33 65.1717 23.7155 64.7862C24.101 64.4007 24.5921 64.1382 25.1268 64.0318C25.6615 63.9255 26.2157 63.9801 26.7193 64.1887C27.223 64.3973 27.6535 64.7506 27.9563 65.2039C28.2592 65.6572 28.4209 66.1901 28.4209 66.7352C28.4201 67.466 28.1294 68.1666 27.6127 68.6834C27.096 69.2001 26.3953 69.4908 25.6645 69.4915ZM25.6645 64.7069C25.2634 64.7069 24.8712 64.8259 24.5377 65.0487C24.2041 65.2716 23.9441 65.5884 23.7906 65.959C23.6371 66.3296 23.5969 66.7375 23.6752 67.1309C23.7535 67.5244 23.9466 67.8858 24.2303 68.1694C24.514 68.4531 24.8754 68.6463 25.2688 68.7245C25.6623 68.8028 26.0701 68.7626 26.4407 68.6091C26.8114 68.4556 27.1281 68.1956 27.351 67.8621C27.5739 67.5285 27.6928 67.1364 27.6928 66.7352C27.6923 66.1975 27.4784 65.6819 27.0981 65.3016C26.7179 64.9214 26.2023 64.7075 25.6645 64.7069Z" fill="#323C6B"/>
<path d="M40.2793 32.0634L39.5513 31.9906C39.7126 30.7561 40.3195 29.6231 41.2578 28.8048C41.7994 28.3921 42.4189 28.0934 43.0791 27.9266C43.7392 27.7598 44.4263 27.7284 45.0989 27.8343L45.0261 28.5623C40.7329 28.1233 40.296 31.8996 40.2793 32.0634Z" fill="#323C6B"/>
<path d="M56.7688 32.6925C55.0353 29.1382 51.8546 29.6944 51.7213 29.7207L51.583 29.0057C52.7903 28.8512 54.0149 29.0968 55.0691 29.705C56.1234 30.3132 56.9491 31.2504 57.4196 32.3729L56.7688 32.6925Z" fill="#323C6B"/>
<path d="M61.5374 38.8093C60.6778 38.7937 59.8431 38.5178 59.1436 38.0181C58.444 37.5183 57.9125 36.8181 57.6191 36.01L58.31 35.7821C58.5871 36.5717 59.1415 37.2338 59.8701 37.6453C60.5988 38.0568 61.452 38.1897 62.2713 38.0193L62.3892 38.7379C62.1077 38.7846 61.8228 38.8084 61.5374 38.8093Z" fill="#323C6B"/>
<path d="M40.0667 38.0332C39.7001 37.2162 39.0741 36.543 38.2859 36.118C37.4977 35.6929 36.5913 35.5398 35.7072 35.6824L35.5762 34.966C36.6182 34.8058 37.6841 34.9886 38.6132 35.4868C39.5424 35.985 40.2845 36.7716 40.7277 37.7282L40.0667 38.0332Z" fill="#323C6B"/>
<path d="M51.6531 39.0546C52.6314 39.0546 53.4244 38.2615 53.4244 37.2833C53.4244 36.305 52.6314 35.512 51.6531 35.512C50.6749 35.512 49.8818 36.305 49.8818 37.2833C49.8818 38.2615 50.6749 39.0546 51.6531 39.0546Z" fill="#EEEFEE"/>
<path d="M51.6531 39.4164C51.2309 39.4162 50.8181 39.2909 50.4671 39.0562C50.1161 38.8215 49.8425 38.488 49.681 38.0979C49.5194 37.7077 49.4772 37.2785 49.5596 36.8643C49.642 36.4502 49.8454 36.0698 50.144 35.7712C50.4426 35.4726 50.823 35.2692 51.2371 35.1868C51.6513 35.1044 52.0805 35.1466 52.4707 35.3082C52.8608 35.4697 53.1943 35.7433 53.429 36.0943C53.6637 36.4453 53.789 36.8581 53.7892 37.2803C53.7886 37.8467 53.5634 38.3897 53.1629 38.7901C52.7625 39.1906 52.2195 39.4158 51.6531 39.4164ZM51.6531 35.8731C51.3748 35.8732 51.1028 35.9559 50.8715 36.1106C50.6402 36.2653 50.4599 36.4851 50.3535 36.7423C50.2471 36.9995 50.2193 37.2824 50.2737 37.5553C50.3281 37.8283 50.4622 38.079 50.659 38.2757C50.8559 38.4724 51.1066 38.6064 51.3796 38.6606C51.6526 38.7149 51.9355 38.687 52.1926 38.5804C52.4497 38.4739 52.6694 38.2935 52.824 38.0621C52.9786 37.8307 53.0612 37.5586 53.0612 37.2803C53.06 36.9076 52.9112 36.5505 52.6473 36.2873C52.3834 36.0241 52.0259 35.8762 51.6531 35.876V35.8731Z" fill="#323C6B"/>
<path d="M31.9866 39.9333C32.9649 39.9333 33.7579 39.1403 33.7579 38.162C33.7579 37.1838 32.9649 36.3907 31.9866 36.3907C31.0084 36.3907 30.2153 37.1838 30.2153 38.162C30.2153 39.1403 31.0084 39.9333 31.9866 39.9333Z" fill="#EEEFEE"/>
<path d="M31.9859 40.2975C31.5636 40.2972 31.151 40.1717 30.8 39.9369C30.449 39.7021 30.1756 39.3685 30.0142 38.9783C29.8528 38.5881 29.8107 38.1588 29.8933 37.7447C29.9758 37.3306 30.1793 36.9502 30.478 36.6518C30.7767 36.3533 31.1572 36.1501 31.5713 36.0678C31.9855 35.9855 32.4148 36.0279 32.8049 36.1895C33.1949 36.3512 33.5284 36.6249 33.7629 36.976C33.9975 37.3271 34.1227 37.7399 34.1227 38.1622C34.1221 38.7286 33.8968 39.2716 33.4961 39.6719C33.0955 40.0723 32.5523 40.2973 31.9859 40.2975ZM31.9859 36.7542C31.7077 36.7544 31.4358 36.8372 31.2045 36.992C30.9733 37.1468 30.7932 37.3666 30.6869 37.6237C30.5805 37.8809 30.5528 38.1637 30.6072 38.4366C30.6617 38.7095 30.7957 38.9601 30.9925 39.1568C31.1893 39.3535 31.44 39.4874 31.7129 39.5417C31.9858 39.596 32.2687 39.5681 32.5257 39.4617C32.7828 39.3552 33.0026 39.175 33.1572 38.9437C33.3119 38.7124 33.3945 38.4404 33.3947 38.1622C33.3943 37.7888 33.2457 37.4309 32.9815 37.167C32.7174 36.9031 32.3593 36.7549 31.9859 36.7549V36.7542Z" fill="#323C6B"/>
<path d="M57.9651 44.7371C58.9434 44.7371 59.7364 43.944 59.7364 42.9658C59.7364 41.9875 58.9434 41.1945 57.9651 41.1945C56.9869 41.1945 56.1938 41.9875 56.1938 42.9658C56.1938 43.944 56.9869 44.7371 57.9651 44.7371Z" fill="#EEEFEE"/>
<path d="M57.9652 45.101C57.5429 45.1008 57.1301 44.9755 56.779 44.7407C56.428 44.506 56.1544 44.1725 55.9929 43.7823C55.8314 43.3921 55.7892 42.9628 55.8717 42.5486C55.9542 42.1345 56.1576 41.754 56.4562 41.4555C56.7549 41.1569 57.1354 40.9536 57.5496 40.8713C57.9638 40.789 58.3931 40.8313 58.7832 40.9929C59.1733 41.1546 59.5068 41.4283 59.7414 41.7794C59.976 42.1305 60.1012 42.5433 60.1012 42.9656C60.1004 43.5319 59.8751 44.0746 59.4747 44.4749C59.0742 44.8752 58.5314 45.1004 57.9652 45.101ZM57.9652 41.5576C57.6869 41.5578 57.4149 41.6404 57.1836 41.7951C56.9523 41.9498 56.772 42.1696 56.6656 42.4267C56.5592 42.6838 56.5314 42.9667 56.5857 43.2396C56.64 43.5126 56.774 43.7632 56.9708 43.96C57.1676 44.1568 57.4182 44.2908 57.6912 44.3451C57.9641 44.3994 58.247 44.3716 58.5041 44.2652C58.7612 44.1588 58.981 43.9785 59.1357 43.7472C59.2904 43.5159 59.373 43.2439 59.3732 42.9656C59.3728 42.5923 59.2243 42.2344 58.9603 41.9704C58.6964 41.7065 58.3385 41.558 57.9652 41.5576Z" fill="#323C6B"/>
<path d="M26.2601 46.5147C26.1902 46.5149 26.1217 46.495 26.0628 46.4572C25.1612 45.8849 24.4185 45.0943 23.9036 44.1587C23.3887 43.2231 23.1182 42.1727 23.1172 41.1047C23.1172 41.0082 23.1555 40.9156 23.2238 40.8473C23.2921 40.7791 23.3847 40.7407 23.4812 40.7407C23.5777 40.7407 23.6703 40.7791 23.7386 40.8473C23.8069 40.9156 23.8452 41.0082 23.8452 41.1047C23.8465 42.0507 24.0865 42.981 24.543 43.8095C24.9995 44.6379 25.6577 45.3378 26.4567 45.8442C26.523 45.8867 26.5737 45.9496 26.6013 46.0234C26.6289 46.0972 26.6317 46.1779 26.6095 46.2535C26.5873 46.329 26.5411 46.3954 26.478 46.4425C26.4149 46.4896 26.3381 46.5149 26.2594 46.5147H26.2601Z" fill="#323C6B"/>
<path d="M23.0634 39.5986C22.9917 39.5986 22.9216 39.5775 22.8619 39.5379C22.8022 39.4982 22.7555 39.4419 22.7277 39.3758C22.7001 39.3103 22.6768 39.2433 22.6549 39.1756L22.62 39.0868C22.6035 39.0419 22.596 38.9942 22.598 38.9464C22.5999 38.8986 22.6112 38.8517 22.6313 38.8083C22.6514 38.7649 22.6798 38.7259 22.715 38.6935C22.7501 38.6611 22.7913 38.6359 22.8362 38.6194C22.8811 38.6029 22.9288 38.5954 22.9766 38.5973C23.0244 38.5993 23.0713 38.6106 23.1147 38.6307C23.1581 38.6508 23.1971 38.6792 23.2295 38.7144C23.262 38.7495 23.2871 38.7907 23.3036 38.8356L23.3393 38.9375C23.3575 38.9892 23.3757 39.0416 23.3968 39.0926C23.4201 39.148 23.4294 39.2082 23.4237 39.268C23.4181 39.3278 23.3978 39.3852 23.3645 39.4353C23.3313 39.4853 23.2862 39.5263 23.2333 39.5547C23.1804 39.583 23.1212 39.5979 23.0612 39.5979L23.0634 39.5986Z" fill="#323C6B"/>
<path d="M64.2431 30.271C64.1479 30.271 64.0565 30.2337 63.9885 30.1672C63.9204 30.1007 63.8812 30.0101 63.8791 29.915C63.8565 28.7954 63.5202 27.7046 62.9083 26.7667C62.2965 25.8288 61.4336 25.0815 60.418 24.6098C60.3306 24.5687 60.2632 24.4945 60.2305 24.4037C60.1978 24.3128 60.2025 24.2127 60.2437 24.1253C60.2848 24.0379 60.3589 23.9705 60.4498 23.9378C60.5407 23.9051 60.6408 23.9098 60.7282 23.9509C61.8664 24.48 62.8334 25.3178 63.5192 26.3692C64.2049 27.4206 64.5818 28.6433 64.6071 29.8982C64.6082 29.946 64.5998 29.9936 64.5825 30.0381C64.5652 30.0827 64.5392 30.1234 64.5062 30.158C64.4731 30.1925 64.4336 30.2202 64.3898 30.2395C64.346 30.2588 64.2989 30.2692 64.2511 30.2702L64.2431 30.271Z" fill="#323C6B"/>
<path d="M65.6312 32.5309C65.5524 32.5309 65.4758 32.5054 65.4128 32.4581L65.3218 32.3853C65.2854 32.3562 65.249 32.3271 65.2111 32.3009C65.1715 32.274 65.1376 32.2397 65.1113 32.1998C65.085 32.1598 65.0668 32.1151 65.0578 32.0682C65.0488 32.0212 65.0491 31.973 65.0587 31.9261C65.0684 31.8793 65.0871 31.8348 65.1139 31.7952C65.1408 31.7557 65.1751 31.7217 65.215 31.6954C65.255 31.6691 65.2997 31.6509 65.3466 31.6419C65.3936 31.6329 65.4418 31.6332 65.4887 31.6428C65.5355 31.6525 65.58 31.6712 65.6196 31.698C65.6749 31.7352 65.7258 31.7759 65.7775 31.8174L65.8503 31.8757C65.9115 31.9215 65.9566 31.9854 65.9794 32.0584C66.0022 32.1313 66.0014 32.2095 65.9773 32.282C65.9531 32.3545 65.9068 32.4175 65.8448 32.4622C65.7828 32.5069 65.7083 32.5309 65.6319 32.5309H65.6312Z" fill="#323C6B"/>
<path d="M51.4616 54.9033C50.3758 54.9008 49.3083 54.6239 48.3582 54.0982C47.4082 53.5725 46.6064 52.8151 46.0276 51.8965C45.6671 52.5578 45.1394 53.1129 44.4972 53.5062C43.855 53.8996 43.1208 54.1176 42.368 54.1383C41.6152 54.159 40.8701 53.9818 40.2072 53.6243C39.5444 53.2668 38.987 52.7415 38.5907 52.1011C38.5223 52.1011 38.4546 52.1011 38.3905 52.1011C37.2481 52.0998 36.1528 51.6453 35.3449 50.8375C34.5371 50.0296 34.0827 48.9343 34.0813 47.7919V47.7191C33.1505 47.693 32.2371 47.4608 31.4068 47.0392C30.5765 46.6176 29.8501 46.0171 29.2799 45.2809C28.209 45.2241 27.2004 44.7599 26.4605 43.9835C25.7207 43.2072 25.3057 42.1773 25.3005 41.1049C25.3 40.6578 25.3688 40.2133 25.5044 39.7872C25.0509 39.2539 24.7189 38.6284 24.5312 37.9541C24.3436 37.2797 24.3048 36.5726 24.4176 35.8818C24.5304 35.191 24.7921 34.5329 25.1846 33.9533C25.577 33.3737 26.0908 32.8864 26.6903 32.5251C26.7656 31.3154 27.2216 30.1606 27.9932 29.226C28.7647 28.2913 29.8122 27.6248 30.9857 27.3218C30.9533 27.1365 30.9375 26.9486 30.9384 26.7605C30.9388 26.0353 31.1581 25.327 31.5677 24.7285C31.9773 24.13 32.558 23.6691 33.2339 23.4061C33.9098 23.1431 34.6493 23.0903 35.3557 23.2545C36.0621 23.4188 36.7024 23.7925 37.1929 24.3267C37.7066 23.359 38.4552 22.5359 39.37 21.933C40.2848 21.3301 41.3364 20.9668 42.4282 20.8763C43.5201 20.7859 44.6171 20.9712 45.6187 21.4154C46.6202 21.8595 47.494 22.5482 48.16 23.4181C49.0977 22.8777 50.1617 22.5951 51.2439 22.5991C52.3292 22.5973 53.396 22.8796 54.3384 23.4179C55.2807 23.9563 56.0657 24.7319 56.6153 25.6677C57.0203 25.5499 57.4399 25.4899 57.8617 25.4894C59.0718 25.4907 60.2319 25.972 61.0875 26.8276C61.9431 27.6833 62.4244 28.8433 62.4258 30.0534C62.4258 30.2211 62.4154 30.3886 62.3945 30.555C63.0658 31.2294 63.4821 32.1158 63.5724 33.0631C64.3478 33.3634 65.0144 33.8911 65.4846 34.577C65.9547 35.2628 66.2066 36.0748 66.2072 36.9064C66.2053 37.4386 66.1038 37.9658 65.9079 38.4607C66.8057 39.1903 67.4469 40.1875 67.7383 41.3071C68.0297 42.4266 67.9559 43.6099 67.5278 44.6846C67.0997 45.7593 66.3395 46.6692 65.3582 47.2816C64.3768 47.8941 63.2254 48.1772 62.0719 48.0896C61.9973 49.519 61.3779 50.8655 60.341 51.8522C59.3042 52.839 57.9287 53.391 56.4974 53.3948C56.2132 53.3934 55.9295 53.371 55.6485 53.3278C54.4918 54.3461 53.0027 54.9064 51.4616 54.9033ZM45.9286 50.0794L46.3188 50.9122C46.7799 51.8866 47.5078 52.7104 48.418 53.2879C49.3283 53.8655 50.3836 54.1731 51.4616 54.1753C52.8808 54.1782 54.248 53.6413 55.286 52.6733L55.4192 52.5496L55.5976 52.5809C55.8945 52.6351 56.1956 52.6636 56.4974 52.6661C57.7865 52.6622 59.0215 52.1472 59.9315 51.234C60.8414 50.3208 61.352 49.0839 61.3512 47.7948V47.2662L61.7662 47.3252C62.0023 47.359 62.2404 47.376 62.4789 47.3762C63.7272 47.3748 64.9239 46.8784 65.8066 45.9957C66.6893 45.113 67.1857 43.9163 67.1871 42.668C67.1885 41.9271 67.0135 41.1965 66.6765 40.5366C66.3395 39.8768 65.8502 39.3067 65.2491 38.8735L65.0037 38.698L65.1311 38.4243C65.3566 37.9493 65.4753 37.4307 65.4791 36.9049C65.4779 36.1845 65.248 35.4831 64.8227 34.9017C64.3974 34.3203 63.7985 33.8888 63.1123 33.6695L62.8691 33.5924L62.8597 33.3375C62.8449 32.8879 62.7402 32.4458 62.5517 32.0373C62.3633 31.6288 62.095 31.2622 61.7625 30.9591L61.6169 30.8258L61.6497 30.6285C61.6824 30.4381 61.699 30.2452 61.6992 30.0519C61.6982 29.0349 61.2938 28.0597 60.5746 27.3405C59.8554 26.6214 58.8803 26.2169 57.8632 26.2159C57.4231 26.2159 56.9865 26.2943 56.5738 26.4475L56.2732 26.5603L56.1239 26.2756C55.6586 25.3847 54.9577 24.6385 54.0976 24.1184C53.2376 23.5982 52.2512 23.324 51.2461 23.3257C50.1873 23.3212 49.1506 23.6289 48.2655 24.2102L47.9656 24.4082L47.7639 24.1105C47.1736 23.2452 46.3602 22.5557 45.4099 22.1151C44.4596 21.6746 43.4078 21.4993 42.366 21.608C41.3242 21.7166 40.3312 22.1051 39.4922 22.7323C38.6533 23.3595 37.9996 24.202 37.6006 25.1705L37.3269 25.8454L36.9519 25.22C36.6975 24.8094 36.3417 24.4712 35.9188 24.2379C35.4959 24.0045 35.0201 23.884 34.5371 23.8877C33.7756 23.8885 33.0455 24.1913 32.507 24.7298C31.9686 25.2682 31.6657 25.9983 31.665 26.7598C31.6614 27.0048 31.698 27.2488 31.7734 27.482L31.9052 27.878L31.4946 27.9508C30.368 28.162 29.348 28.7533 28.6049 29.6259C27.8619 30.4986 27.4407 31.5998 27.4118 32.7457L27.4074 32.9575L27.2203 33.058C26.6709 33.3573 26.1973 33.7784 25.8358 34.2891C25.4743 34.7997 25.2345 35.3863 25.1348 36.004C25.0351 36.6217 25.0781 37.2539 25.2605 37.8524C25.443 38.4509 25.76 38.9996 26.1873 39.4566L26.3409 39.6219L26.2615 39.833C26.109 40.24 26.0311 40.6711 26.0315 41.1056C26.0283 41.5588 26.1149 42.0081 26.2864 42.4276C26.4579 42.847 26.7108 43.2283 27.0306 43.5495C27.3503 43.8706 27.7305 44.1252 28.1492 44.2986C28.5679 44.4719 29.0168 44.5606 29.47 44.5594H29.652L29.759 44.705C30.2791 45.4166 30.9604 45.995 31.7469 46.3928C32.5335 46.7906 33.403 46.9966 34.2844 46.994C34.3106 46.9964 34.3369 46.9964 34.3631 46.994L34.9113 46.8119L34.8275 47.3885C34.814 47.5242 34.8089 47.6607 34.8123 47.797C34.8153 48.2704 34.9116 48.7386 35.0956 49.1748C35.2796 49.611 35.5477 50.0066 35.8847 50.3392C36.2216 50.6717 36.6208 50.9347 37.0594 51.1129C37.4979 51.2912 37.9673 51.3813 38.4408 51.3782C38.5412 51.3801 38.6417 51.3753 38.7414 51.3636L38.9897 51.3287L39.1113 51.5471C39.4446 52.1599 39.9499 52.6619 40.565 52.991C41.1802 53.32 41.8782 53.4619 42.573 53.3991C43.2677 53.3362 43.929 53.0714 44.475 52.6372C45.0211 52.2031 45.4282 51.6186 45.6461 50.9559L45.9286 50.0794Z" fill="#323C6B"/>
<path d="M26.9422 36.6987C26.9178 36.6984 26.8935 36.6962 26.8694 36.6921C26.7555 36.6722 26.6541 36.6079 26.5875 36.5133C26.5209 36.4187 26.4945 36.3016 26.5142 36.1876C26.5811 35.7867 26.7388 35.4064 26.9753 35.0758C27.2117 34.7451 27.5207 34.473 27.8785 34.2801L28.774 33.7967L28.7958 32.7775C28.8011 32.5629 28.8255 32.3493 28.8686 32.139C28.8932 32.027 28.9608 31.9292 29.0568 31.8666C29.1528 31.8041 29.2696 31.7817 29.3819 31.8045C29.4943 31.8272 29.5932 31.8932 29.6573 31.9882C29.7215 32.0832 29.7457 32.1996 29.7248 32.3123C29.6921 32.4717 29.6735 32.6337 29.6695 32.7964L29.6425 34.0683C29.641 34.1455 29.6191 34.221 29.5789 34.287C29.5388 34.353 29.4818 34.4071 29.4139 34.444L28.2906 35.0482C28.0493 35.1784 27.841 35.3621 27.6816 35.5852C27.5222 35.8083 27.416 36.0649 27.3711 36.3354C27.3538 36.4367 27.3013 36.5287 27.2228 36.5951C27.1444 36.6616 27.045 36.6983 26.9422 36.6987Z" fill="white"/>
<path d="M30.2156 31.0105C30.1279 31.0105 30.0422 30.9841 29.9697 30.9347C29.8972 30.8854 29.8413 30.8153 29.8092 30.7337C29.777 30.6521 29.7702 30.5627 29.7896 30.4771C29.809 30.3916 29.8537 30.3139 29.9179 30.2541C30.0826 30.1013 30.2605 29.9631 30.4493 29.8413C30.5464 29.78 30.6638 29.7593 30.776 29.7839C30.8882 29.8085 30.9862 29.8762 31.0488 29.9725C31.1114 30.0688 31.1336 30.1859 31.1105 30.2984C31.0874 30.4109 31.0209 30.5098 30.9255 30.5737C30.7792 30.6679 30.6413 30.7746 30.5134 30.8926C30.4327 30.9682 30.3262 31.0103 30.2156 31.0105Z" fill="white"/>
<defs>
<linearGradient id="paint0_linear_135_63" x1="9.99994" y1="43" x2="82" y2="43" gradientUnits="userSpaceOnUse">
<stop offset="0.0485" stop-color="#FFDBED"/>
<stop offset="0.9993" stop-color="#D2DEFF"/>
</linearGradient>
</defs>
</svg>
