<svg width="84" height="94" viewBox="0 0 84 94" fill="none" xmlns="http://www.w3.org/2000/svg">
<path d="M40.8262 4.69391C27.4837 8.64989 30.1598 18.0371 28.6675 28.4388C26.805 41.4208 18.7551 34.7642 9.50658 41.7751C-6.48075 53.8944 5.13253 80.6471 24.9868 76.5842C35.5294 74.4268 37.6837 66.5901 41.9837 58.2167C47.5459 47.3847 56.7696 50.3379 65.0434 43.2665C81.8228 28.9257 59.7541 -0.918114 40.8262 4.69391Z" fill="url(#paint0_linear_135_160)"/>
<path d="M60.2218 23.8983H17.7112C16.2141 23.8983 15.0005 25.2239 15.0005 26.721V56.7817C15.0005 57.1376 15.0706 57.4901 15.2068 57.819C15.343 58.1479 15.5427 58.4467 15.7944 58.6984C16.0461 58.9501 16.345 59.1498 16.6738 59.286C17.0027 59.4222 17.3552 59.4923 17.7112 59.4923H34.3487C34.4989 59.4923 34.6473 59.5245 34.7841 59.5867C34.9208 59.6488 35.0427 59.7396 35.1414 59.8528C35.2402 59.966 35.3136 60.099 35.3566 60.2429C35.3997 60.3868 35.4114 60.5383 35.391 60.6871L34.364 68.079H43.4971L42.47 60.6871C42.4497 60.5383 42.4614 60.3868 42.5045 60.2429C42.5475 60.099 42.6209 59.966 42.7196 59.8528C42.8184 59.7396 42.9402 59.6488 43.077 59.5867C43.2137 59.5245 43.3622 59.4923 43.5124 59.4923H60.2218C60.5778 59.4923 60.9303 59.4222 61.2592 59.286C61.588 59.1498 61.8869 58.9501 62.1386 58.6984C62.3903 58.4467 62.5899 58.1479 62.7262 57.819C62.8624 57.4901 62.9325 57.1376 62.9325 56.7817V26.721C62.9325 25.2239 61.7189 23.8983 60.2218 23.8983Z" fill="#A3DCF2"/>
<path d="M46.961 50.3515C40.6791 55.2775 36.2517 58.867 25.0356 59.4923H60.2218C60.9407 59.4923 61.6301 59.2067 62.1385 58.6984C62.6468 58.19 62.9324 57.5005 62.9324 56.7816V48.08C62.9324 48.08 54.1278 44.7327 46.961 50.3515Z" fill="#60C3E8"/>
<path d="M62.9324 48.0803V56.7818C62.9323 57.5007 62.6467 58.1901 62.1383 58.6985C61.63 59.2068 60.9405 59.4925 60.2216 59.4925H49.1118C48.1181 57.7963 47.6663 55.8369 47.8169 53.8767C47.9676 51.9166 48.7135 50.0493 49.9548 48.5248C50.0508 48.4808 50.1479 48.4369 50.2449 48.394C50.249 48.3919 50.2531 48.3909 50.2572 48.3889C56.5687 45.6607 62.9324 48.0803 62.9324 48.0803Z" fill="#2CA4E8"/>
<path d="M43.4969 68.0789H34.3643L34.6534 65.9679C37.4786 65.691 40.968 63.4421 42.6233 61.6948L43.4969 68.0789Z" fill="#60C3E8"/>
<path d="M43.5125 59.4924C43.2387 59.4923 42.9756 59.599 42.7793 59.7898C42.5829 59.9806 42.4688 60.2405 42.4611 60.5142H35.3996C35.3919 60.2405 35.2777 59.9806 35.0813 59.7898C34.885 59.599 34.6219 59.4923 34.3481 59.4924H43.5125Z" fill="#49ADE8"/>
<path d="M43.4969 68.0789H34.3643L34.6534 65.9679C37.4786 65.691 40.968 63.4421 42.6233 61.6948L43.4969 68.0789Z" fill="#60C3E8"/>
<path d="M38.9072 57.0884C39.6854 57.0884 40.3163 56.4575 40.3163 55.6793C40.3163 54.901 39.6854 54.2701 38.9072 54.2701C38.1289 54.2701 37.498 54.901 37.498 55.6793C37.498 56.4575 38.1289 57.0884 38.9072 57.0884Z" fill="#3449B8"/>
<path d="M39.6805 54.5566C39.6805 54.7701 39.6385 54.9815 39.5568 55.1788C39.4752 55.376 39.3554 55.5553 39.2044 55.7062C39.0535 55.8572 38.8742 55.9769 38.677 56.0586C38.4797 56.1403 38.2683 56.1823 38.0548 56.1823C37.8883 56.1825 37.7228 56.1566 37.5644 56.1056C37.4765 55.8284 37.4766 55.5307 37.5646 55.2535C37.6526 54.9763 37.8242 54.7331 38.0559 54.5572C38.2876 54.3814 38.568 54.2815 38.8587 54.2714C39.1493 54.2612 39.436 54.3412 39.6794 54.5004C39.6805 54.5188 39.6805 54.5382 39.6805 54.5566Z" fill="#3D83DF"/>
<path d="M39.3374 27.0395H35.5871C35.4516 27.0395 35.3216 26.9857 35.2258 26.8898C35.13 26.794 35.0762 26.6641 35.0762 26.5286C35.0762 26.3931 35.13 26.2631 35.2258 26.1673C35.3216 26.0715 35.4516 26.0177 35.5871 26.0177H39.3374C39.4729 26.0177 39.6029 26.0715 39.6987 26.1673C39.7945 26.2631 39.8483 26.3931 39.8483 26.5286C39.8483 26.6641 39.7945 26.794 39.6987 26.8898C39.6029 26.9857 39.4729 27.0395 39.3374 27.0395Z" fill="#1D77DB"/>
<path d="M42.306 27.0395H41.2824C41.1469 27.0395 41.0169 26.9857 40.9211 26.8898C40.8253 26.794 40.7715 26.6641 40.7715 26.5286C40.7715 26.3931 40.8253 26.2631 40.9211 26.1673C41.0169 26.0715 41.1469 26.0177 41.2824 26.0177H42.306C42.4414 26.0177 42.5714 26.0715 42.6672 26.1673C42.763 26.2631 42.8168 26.3931 42.8168 26.5286C42.8168 26.6641 42.763 26.794 42.6672 26.8898C42.5714 26.9857 42.4414 27.0395 42.306 27.0395Z" fill="#1D77DB"/>
<path d="M58.8588 57.7436H57.4181C57.2826 57.7436 57.1527 57.6898 57.0569 57.5939C56.9611 57.4981 56.9072 57.3682 56.9072 57.2327C56.9072 57.0972 56.9611 56.9672 57.0569 56.8714C57.1527 56.7756 57.2826 56.7218 57.4181 56.7218H58.8588C59.1335 56.7215 59.3969 56.6122 59.5912 56.418C59.7854 56.2237 59.8947 55.9604 59.895 55.6857V54.4945C59.895 54.359 59.9488 54.2291 60.0446 54.1333C60.1404 54.0375 60.2704 53.9836 60.4059 53.9836C60.5414 53.9836 60.6713 54.0375 60.7671 54.1333C60.8629 54.2291 60.9168 54.359 60.9168 54.4945V55.6857C60.9161 56.2313 60.6991 56.7543 60.3133 57.1401C59.9275 57.5259 59.4044 57.743 58.8588 57.7436Z" fill="#1D77DB"/>
<path d="M55.2822 57.7436H54.1295C53.994 57.7436 53.8641 57.6898 53.7683 57.5939C53.6725 57.4981 53.6187 57.3682 53.6187 57.2327C53.6187 57.0972 53.6725 56.9672 53.7683 56.8714C53.8641 56.7756 53.994 56.7218 54.1295 56.7218H55.2822C55.4177 56.7218 55.5477 56.7756 55.6435 56.8714C55.7393 56.9672 55.7931 57.0972 55.7931 57.2327C55.7931 57.3682 55.7393 57.4981 55.6435 57.5939C55.5477 57.6898 55.4177 57.7436 55.2822 57.7436Z" fill="#1D77DB"/>
<path d="M46.4338 68.5899H31.4264C31.2909 68.5899 31.161 68.5361 31.0652 68.4403C30.9694 68.3444 30.9155 68.2145 30.9155 68.079C30.9155 67.9435 30.9694 67.8136 31.0652 67.7177C31.161 67.6219 31.2909 67.5681 31.4264 67.5681H46.4338C46.5693 67.5681 46.6993 67.6219 46.7951 67.7177C46.8909 67.8136 46.9447 67.9435 46.9447 68.079C46.9447 68.2145 46.8909 68.3444 46.7951 68.4403C46.6993 68.5361 46.5693 68.5899 46.4338 68.5899H46.4338Z" fill="#1D77DB"/>
<path d="M15.0005 28.9216H62.9326V52.1593H15.0005V28.9216Z" fill="#FDF4D4"/>
<path d="M62.9326 35.5659V52.1597L15.0005 52.1593V46.1394C22.371 49.7637 37.2683 51.0387 43.1431 42.8461C48.0423 36.0145 57.2155 35.2717 62.9326 35.5659Z" fill="#FADC71"/>
<path d="M35.3394 23.8984H36.1568V28.9215H35.3394V23.8984Z" fill="#60C3E8"/>
<path d="M15.0005 28.9216H16.5652V52.1593H15.0005V28.9216Z" fill="#1D77DB"/>
<path d="M61.3677 28.9216H62.9324V52.1593H61.3677V28.9216Z" fill="#1D77DB"/>
<path d="M61.3677 33.6793H62.9324V34.7011H61.3677V33.6793Z" fill="#3449B8"/>
<path d="M15.9145 33.6103C15.8951 33.6113 15.8767 33.6124 15.8573 33.6124C15.6297 33.6118 15.4117 33.521 15.251 33.3599C15.0903 33.1988 15 32.9806 15 32.7531V34.4267C15.265 34.5635 15.559 34.6346 15.8573 34.6341C15.8981 34.6341 15.94 34.6331 15.9809 34.6301C16.1771 34.6178 16.3723 34.6076 16.5654 34.6004V33.5776C16.3528 33.5848 16.1359 33.5957 15.9145 33.6103Z" fill="#3449B8"/>
<path d="M28.116 48.7712C27.9859 48.7169 27.8626 48.6473 27.7489 48.5639C27.1162 48.1015 27.07 47.1935 27.6023 46.6183C27.8716 46.3268 28.0502 45.9632 28.1162 45.5719C28.1822 45.1805 28.1328 44.7784 27.9741 44.4147C27.8154 44.051 27.5542 43.7414 27.2224 43.5236C26.8906 43.3059 26.5025 43.1895 26.1057 43.1887C25.7088 43.1879 25.3203 43.3027 24.9876 43.519C24.6549 43.7353 24.3924 44.0439 24.2322 44.407C24.0719 44.77 24.0209 45.1719 24.0853 45.5635C24.1497 45.9551 24.3267 46.3195 24.5948 46.6121C25.1757 47.2448 25.0669 48.2546 24.3195 48.6779C24.2557 48.714 24.1897 48.7461 24.1219 48.774C23.6833 48.9633 23.3105 49.2782 23.0504 49.6789C22.7903 50.0796 22.6546 50.5483 22.6603 51.026V52.1497H29.5844V51.0442C29.5902 50.5629 29.454 50.0906 29.1928 49.6864C28.9317 49.2821 28.5571 48.9638 28.116 48.7712Z" fill="#1D77DB"/>
<path d="M61.3676 40.3213H16.5654V41.2409H38.3809V52.1596H39.3005V41.2409H61.3676V40.3213Z" fill="#A3DCF2"/>
<path d="M53.6951 36.7234C53.565 36.669 53.4417 36.5995 53.328 36.5161C52.6953 36.0536 52.6491 35.1456 53.1814 34.5704C53.4507 34.2789 53.6293 33.9153 53.6953 33.524C53.7613 33.1327 53.7119 32.7306 53.5532 32.3668C53.3945 32.0031 53.1332 31.6935 52.8014 31.4758C52.4696 31.2581 52.0816 31.1417 51.6848 31.1409C51.2879 31.1401 50.8994 31.2548 50.5667 31.4712C50.234 31.6875 49.9715 31.996 49.8113 32.3591C49.651 32.7222 49.6 33.124 49.6644 33.5156C49.7288 33.9072 49.9058 34.2716 50.1739 34.5642C50.7548 35.1969 50.646 36.2068 49.8986 36.63C49.8348 36.6661 49.7688 36.6982 49.701 36.7261C49.2624 36.9154 48.8896 37.2303 48.6295 37.631C48.3694 38.0317 48.2337 38.5004 48.2394 38.9781V40.3213H55.1635V38.9963C55.1693 38.5151 55.0331 38.0428 54.7719 37.6385C54.5108 37.2342 54.1362 36.9159 53.6951 36.7234Z" fill="#1D77DB"/>
<path d="M53.6951 48.7614C53.565 48.707 53.4417 48.6374 53.328 48.5541C52.6953 48.0916 52.6491 47.1836 53.1814 46.6084C53.4507 46.3169 53.6293 45.9533 53.6953 45.562C53.7613 45.1706 53.7119 44.7686 53.5532 44.4048C53.3945 44.0411 53.1333 43.7315 52.8015 43.5138C52.4697 43.296 52.0816 43.1797 51.6848 43.1788C51.2879 43.178 50.8994 43.2928 50.5667 43.5091C50.234 43.7255 49.9715 44.034 49.8113 44.3971C49.651 44.7601 49.6 45.162 49.6644 45.5536C49.7288 45.9452 49.9058 46.3096 50.1739 46.6022C50.7548 47.2349 50.646 48.2447 49.8986 48.668C49.8348 48.7041 49.7688 48.7362 49.701 48.7641C49.2624 48.9534 48.8896 49.2683 48.6295 49.669C48.3694 50.0697 48.2337 50.5384 48.2394 51.0161V52.1596H55.1635V51.0343C55.1693 50.5531 55.0331 50.0808 54.7719 49.6765C54.5108 49.2722 54.1362 48.9539 53.6951 48.7614Z" fill="#FF2E6E"/>
<path d="M40.9362 36.3577H36.6724C34.2176 36.3577 32.2275 38.3477 32.2275 40.8025C32.2275 43.2573 34.2176 45.2474 36.6724 45.2474H40.9362C43.391 45.2474 45.381 43.2573 45.381 40.8025C45.381 38.3477 43.391 36.3577 40.9362 36.3577Z" fill="white"/>
<path d="M42.7383 39.2985L40.6283 40.0104V38.8684C40.6283 38.7821 40.594 38.6993 40.533 38.6383C40.4719 38.5773 40.3892 38.543 40.3028 38.543H36.1463C35.9101 38.543 35.6837 38.6368 35.5167 38.8038C35.3497 38.9708 35.2559 39.1972 35.2559 39.4334V42.202C35.2559 42.4382 35.3497 42.6646 35.5167 42.8316C35.6837 42.9986 35.9101 43.0924 36.1463 43.0924H40.3028C40.3891 43.0924 40.4719 43.0582 40.5329 42.9971C40.594 42.9361 40.6282 42.8533 40.6282 42.767V41.6796L42.7382 42.3915C42.7872 42.408 42.8394 42.4126 42.8905 42.405C42.9416 42.3973 42.9901 42.3776 43.0321 42.3475C43.0741 42.3173 43.1083 42.2776 43.1318 42.2317C43.1554 42.1857 43.1677 42.1348 43.1677 42.0831V39.6069C43.1677 39.5552 43.1554 39.5043 43.1318 39.4583C43.1083 39.4124 43.0741 39.3727 43.0321 39.3425C42.9901 39.3124 42.9416 39.2927 42.8905 39.285C42.8394 39.2774 42.7872 39.282 42.7383 39.2985Z" fill="#F9B323"/>
<path d="M41.6216 39.6746V42.0155L40.6284 41.6783V40.0117L41.6216 39.6746Z" fill="#F88C00"/>
<path d="M38.3809 45.2474H39.3005V46.0649H38.3809V45.2474Z" fill="#2CA4E8"/>
<path d="M46.176 40.3213H45.3555C45.3722 40.4812 45.3808 40.6418 45.381 40.8025C45.381 40.9507 45.3739 41.0968 45.3596 41.2409H46.18C46.1923 41.0958 46.1984 40.9497 46.1984 40.8025C46.1984 40.6401 46.1913 40.4797 46.176 40.3213Z" fill="#2CA4E8"/>
<path d="M31.4326 40.3213C31.4173 40.4797 31.4102 40.6401 31.4102 40.8025C31.4102 40.9497 31.4163 41.0958 31.4285 41.2409H32.249C32.2347 41.0968 32.2276 40.9507 32.2276 40.8025C32.2278 40.6418 32.2364 40.4812 32.2531 40.3213H31.4326Z" fill="#2CA4E8"/>
<path d="M46.1759 40.3214H45.3554C45.2365 39.2324 44.7197 38.2256 43.9042 37.4941C43.0886 36.7626 42.0317 36.3581 40.9362 36.358H36.6723C35.5768 36.358 34.5198 36.7626 33.7042 37.494C32.8887 38.2255 32.3719 39.2324 32.2531 40.3214H31.4326C31.554 39.0152 32.1583 37.8013 33.1273 36.9171C34.0964 36.0329 35.3605 35.542 36.6723 35.5405H40.9362C42.248 35.542 43.5121 36.0329 44.4812 36.9171C45.4502 37.8013 46.0545 39.0152 46.1759 40.3214Z" fill="#FADC71"/>
<path d="M38.3809 45.2474V46.0648H36.6725C35.3531 46.0635 34.0823 45.5671 33.1114 44.6739C32.1404 43.7807 31.5399 42.5556 31.4287 41.241H32.2492C32.358 42.3386 32.8709 43.3565 33.6884 44.097C34.5059 44.8374 35.5695 45.2474 36.6725 45.2474H38.3809Z" fill="#FADC71"/>
<path d="M46.1799 41.241C46.0687 42.5556 45.4682 43.7807 44.4972 44.6739C43.5262 45.5671 42.2554 46.0635 40.9361 46.0648H39.3003V45.2474H40.9362C42.0391 45.2474 43.1027 44.8374 43.9202 44.0969C44.7377 43.3565 45.2507 42.3385 45.3594 41.241H46.1799Z" fill="#F9B323"/>
<path d="M34.5896 19.712C32.4384 19.4342 26.3267 20.9611 25.1699 24.7555C24.0132 20.9611 17.9015 19.4342 15.7503 19.712C15.5431 19.7387 15.3527 19.8398 15.2147 19.9967C15.0767 20.1535 15.0005 20.3552 15.0005 20.5642V32.7532C15.0005 32.8706 15.0245 32.9868 15.0712 33.0946C15.1178 33.2023 15.1861 33.2994 15.2717 33.3797C15.3574 33.46 15.4586 33.522 15.5691 33.5616C15.6796 33.6013 15.7971 33.6179 15.9143 33.6103C20.2684 33.3266 22.7073 34.4172 23.9748 35.3583C24.3205 35.6148 24.7395 35.7533 25.17 35.7533C25.6004 35.7533 26.0194 35.6148 26.3651 35.3583C27.6326 34.4172 30.0715 33.3266 34.4256 33.6103C34.5428 33.6179 34.6603 33.6013 34.7708 33.5616C34.8813 33.522 34.9825 33.46 35.0682 33.3797C35.1538 33.2994 35.2221 33.2023 35.2687 33.0946C35.3154 32.9868 35.3394 32.8706 35.3394 32.7532V20.5642C35.3394 20.3552 35.2632 20.1535 35.1252 19.9967C34.9872 19.8398 34.7968 19.7387 34.5896 19.712Z" fill="#1D77DB"/>
<path d="M33.4935 18.3697C32.1296 18.1389 27.8108 17.6341 25.8737 20.0608C25.7898 20.1672 25.6828 20.2531 25.5609 20.3122C25.439 20.3713 25.3053 20.402 25.1698 20.402C25.0343 20.402 24.9006 20.3713 24.7787 20.3122C24.6568 20.2531 24.5498 20.1672 24.4659 20.0608C22.5288 17.6341 18.2099 18.1389 16.846 18.3697C16.7281 18.3898 16.6212 18.451 16.5441 18.5424C16.4669 18.6338 16.4247 18.7496 16.4248 18.8692V31.547C16.4249 31.6175 16.4397 31.6871 16.4681 31.7515C16.4966 31.8159 16.5382 31.8737 16.5903 31.9212C16.6423 31.9686 16.7037 32.0048 16.7704 32.0272C16.8372 32.0496 16.9079 32.0579 16.9781 32.0515C21.3633 31.6602 23.6222 32.9926 24.5835 33.8284C24.746 33.97 24.9542 34.0481 25.1698 34.0481C25.3853 34.0481 25.5936 33.97 25.7561 33.8284C26.7174 32.9926 28.9763 31.6602 33.3615 32.0515C33.4317 32.0579 33.5024 32.0496 33.5691 32.0272C33.6359 32.0048 33.6973 31.9686 33.7493 31.9212C33.8014 31.8737 33.843 31.8159 33.8714 31.7515C33.8999 31.6871 33.9147 31.6175 33.9148 31.547V18.8692C33.9149 18.7496 33.8726 18.6338 33.7955 18.5424C33.7184 18.451 33.6115 18.3898 33.4935 18.3697Z" fill="#F9D658"/>
<path d="M33.9143 27.0317V31.547C33.9142 31.6174 33.8995 31.6871 33.8711 31.7515C33.8426 31.8159 33.8011 31.8737 33.7491 31.9212C33.6972 31.9686 33.6359 32.0048 33.5692 32.0273C33.5024 32.0498 33.4318 32.0582 33.3617 32.0519C31.7657 31.9097 30.451 31.9954 29.3794 32.2028C29.3532 32.0048 29.3402 31.8054 29.3403 31.6057C29.3404 30.3926 29.8224 29.2293 30.6801 28.3715C31.5379 27.5138 32.7012 27.0318 33.9143 27.0317Z" fill="#F9B323"/>
<path d="M27.3122 25.9673C27.2177 25.9675 27.1255 25.9386 27.0481 25.8845C26.9708 25.8304 26.9119 25.7537 26.8797 25.665C26.8474 25.5762 26.8433 25.4797 26.8679 25.3885C26.8925 25.2974 26.9446 25.216 27.0171 25.1555C27.0817 25.102 28.6294 23.853 31.4177 24.5861C31.4766 24.601 31.532 24.6274 31.5806 24.6638C31.6293 24.7002 31.6702 24.7459 31.7011 24.7982C31.732 24.8505 31.7522 24.9084 31.7606 24.9686C31.7689 25.0288 31.7653 25.09 31.7498 25.1487C31.7344 25.2075 31.7075 25.2626 31.6706 25.3109C31.6337 25.3592 31.5877 25.3997 31.5351 25.4301C31.4824 25.4604 31.4243 25.4801 31.3641 25.4879C31.3038 25.4957 31.2426 25.4915 31.184 25.4755C28.8781 24.8696 27.6524 25.8247 27.6014 25.8657C27.5194 25.9316 27.4174 25.9674 27.3122 25.9673Z" fill="#1D77DB"/>
<path d="M27.3122 28.0595C27.2177 28.0597 27.1255 28.0308 27.0482 27.9767C26.9708 27.9226 26.9119 27.8459 26.8797 27.7572C26.8474 27.6684 26.8433 27.5719 26.8679 27.4807C26.8925 27.3896 26.9446 27.3082 27.0171 27.2477C27.0817 27.1942 28.6294 25.9451 31.4177 26.6783C31.4766 26.6932 31.532 26.7196 31.5807 26.756C31.6293 26.7924 31.6702 26.8381 31.7011 26.8904C31.732 26.9427 31.7522 27.0006 31.7606 27.0608C31.7689 27.121 31.7653 27.1822 31.7498 27.241C31.7344 27.2997 31.7075 27.3548 31.6706 27.4031C31.6337 27.4514 31.5877 27.4919 31.5351 27.5223C31.4825 27.5527 31.4243 27.5723 31.3641 27.5801C31.3038 27.5879 31.2427 27.5837 31.184 27.5677C28.8781 26.9617 27.6524 27.9169 27.6014 27.9579C27.5194 28.0238 27.4174 28.0596 27.3122 28.0595Z" fill="#1D77DB"/>
<path d="M27.3122 30.2492C27.2177 30.2494 27.1255 30.2204 27.0482 30.1663C26.9708 30.1122 26.9119 30.0356 26.8797 29.9468C26.8474 29.8581 26.8433 29.7616 26.8679 29.6704C26.8925 29.5792 26.9446 29.4978 27.0171 29.4374C27.0817 29.3839 28.6294 28.1348 31.4177 28.8679C31.4766 28.8828 31.532 28.9092 31.5807 28.9456C31.6293 28.982 31.6702 29.0277 31.7011 29.08C31.732 29.1323 31.7522 29.1903 31.7606 29.2504C31.7689 29.3106 31.7653 29.3718 31.7498 29.4306C31.7344 29.4894 31.7075 29.5445 31.6706 29.5928C31.6337 29.641 31.5877 29.6815 31.5351 29.7119C31.4825 29.7423 31.4243 29.762 31.3641 29.7697C31.3038 29.7775 31.2427 29.7733 31.184 29.7573C28.8781 29.1514 27.6524 30.1065 27.6014 30.1475C27.5194 30.2134 27.4174 30.2493 27.3122 30.2492Z" fill="#1D77DB"/>
<path d="M22.9649 25.9693C22.8589 25.9694 22.7561 25.9326 22.6741 25.8654C22.618 25.8205 21.3925 24.8708 19.0918 25.4755C19.0331 25.4915 18.9719 25.4957 18.9117 25.488C18.8514 25.4802 18.7933 25.4605 18.7407 25.4302C18.688 25.3998 18.642 25.3593 18.6051 25.311C18.5682 25.2627 18.5413 25.2076 18.5258 25.1488C18.5104 25.09 18.5068 25.0288 18.5151 24.9686C18.5235 24.9084 18.5437 24.8505 18.5746 24.7982C18.6055 24.7458 18.6465 24.7002 18.6951 24.6638C18.7438 24.6274 18.7991 24.601 18.8581 24.5861C21.6463 23.8529 23.1942 25.102 23.2587 25.1555C23.3316 25.2159 23.384 25.2973 23.4089 25.3886C23.4337 25.4799 23.4298 25.5766 23.3977 25.6656C23.3656 25.7546 23.3068 25.8315 23.2293 25.8859C23.1518 25.9402 23.0595 25.9693 22.9649 25.9693Z" fill="#1D77DB"/>
<path d="M22.9648 28.0614C22.8588 28.0615 22.7559 28.0247 22.674 27.9574C22.6166 27.9116 21.3912 26.9632 19.0918 27.5676C19.0331 27.5836 18.9719 27.5879 18.9117 27.5801C18.8514 27.5723 18.7933 27.5527 18.7407 27.5223C18.688 27.4919 18.642 27.4514 18.6051 27.4031C18.5682 27.3548 18.5413 27.2997 18.5258 27.2409C18.5104 27.1822 18.5068 27.1209 18.5151 27.0607C18.5235 27.0006 18.5437 26.9426 18.5746 26.8903C18.6055 26.838 18.6465 26.7923 18.6951 26.7559C18.7438 26.7195 18.7991 26.6931 18.8581 26.6782C21.6462 25.9451 23.1941 27.1942 23.2587 27.2477C23.3315 27.3081 23.384 27.3895 23.4088 27.4807C23.4337 27.572 23.4298 27.6688 23.3977 27.7578C23.3655 27.8468 23.3067 27.9237 23.2292 27.978C23.1518 28.0323 23.0595 28.0615 22.9648 28.0614Z" fill="#1D77DB"/>
<path d="M22.9648 30.2511C22.8588 30.2512 22.7559 30.2144 22.674 30.1471C22.6166 30.1013 21.3912 29.1529 19.0918 29.7573C19.0331 29.7733 18.9719 29.7776 18.9117 29.7698C18.8514 29.762 18.7933 29.7424 18.7407 29.712C18.688 29.6816 18.642 29.6411 18.6051 29.5928C18.5682 29.5445 18.5413 29.4894 18.5258 29.4306C18.5104 29.3719 18.5068 29.3106 18.5151 29.2504C18.5235 29.1902 18.5437 29.1323 18.5746 29.08C18.6055 29.0277 18.6465 28.982 18.6951 28.9456C18.7438 28.9092 18.7991 28.8828 18.8581 28.8679C21.6462 28.1349 23.1941 29.3838 23.2587 29.4373C23.3315 29.4977 23.384 29.5791 23.4088 29.6704C23.4337 29.7617 23.4298 29.8585 23.3977 29.9475C23.3655 30.0364 23.3067 30.1134 23.2292 30.1677C23.1518 30.222 23.0595 30.2512 22.9648 30.2511Z" fill="#1D77DB"/>
<path d="M25.6296 20.2751V33.919C25.491 34.0032 25.3319 34.0477 25.1698 34.0477C25.0076 34.0477 24.8485 34.0032 24.71 33.919V20.2751C24.849 20.3582 25.0079 20.402 25.1698 20.402C25.3317 20.402 25.4906 20.3582 25.6296 20.2751Z" fill="#1D77DB"/>
<path d="M55.6329 27.8124V29.3234C55.6329 29.3508 55.6274 29.378 55.6167 29.4032C55.6061 29.4285 55.5904 29.4514 55.5707 29.4705L53.947 31.0469C53.9177 31.0754 53.8976 31.1119 53.8892 31.1518C53.8808 31.1918 53.8845 31.2333 53.8998 31.2711C53.9151 31.3089 53.9414 31.3413 53.9753 31.3641C54.0091 31.3869 54.049 31.3991 54.0898 31.3991H55.6509C55.7053 31.3991 55.7574 31.4207 55.7959 31.4592C55.8344 31.4976 55.856 31.5498 55.856 31.6042V32.627C55.856 32.7652 55.8832 32.902 55.9361 33.0297C55.989 33.1574 56.0665 33.2734 56.1642 33.3712C56.2619 33.4689 56.378 33.5464 56.5056 33.5993C56.6333 33.6522 56.7702 33.6794 56.9084 33.6794H63.6232C63.7614 33.6794 63.8983 33.6522 64.026 33.5993C64.1537 33.5464 64.2697 33.4689 64.3674 33.3712C64.4651 33.2734 64.5426 33.1574 64.5955 33.0297C64.6484 32.902 64.6756 32.7652 64.6756 32.627V27.8124C64.6756 27.5333 64.5648 27.2656 64.3674 27.0683C64.17 26.8709 63.9023 26.76 63.6232 26.76H56.6853C56.4062 26.76 56.1385 26.8709 55.9412 27.0683C55.7438 27.2656 55.6329 27.5333 55.6329 27.8124Z" fill="#FF2E6E"/>
<path d="M63.0825 29.9667H57.4209C57.3098 29.9667 57.2032 29.9226 57.1247 29.844C57.0461 29.7654 57.002 29.6589 57.002 29.5477C57.002 29.4366 57.0461 29.3301 57.1247 29.2515C57.2032 29.1729 57.3098 29.1288 57.4209 29.1288H63.0825C63.1936 29.1288 63.3002 29.1729 63.3787 29.2515C63.4573 29.3301 63.5014 29.4366 63.5014 29.5477C63.5014 29.6589 63.4573 29.7654 63.3787 29.844C63.3002 29.9226 63.1936 29.9667 63.0825 29.9667Z" fill="#BE0D39"/>
<path d="M60.862 31.6752H57.4209C57.3098 31.6752 57.2032 31.6311 57.1247 31.5525C57.0461 31.4739 57.002 31.3673 57.002 31.2562C57.002 31.1451 57.0461 31.0386 57.1247 30.96C57.2032 30.8814 57.3098 30.8373 57.4209 30.8373H60.862C60.9731 30.8373 61.0797 30.8814 61.1583 30.96C61.2368 31.0386 61.281 31.1451 61.281 31.2562C61.281 31.3673 61.2368 31.4739 61.1583 31.5525C61.0797 31.6311 60.9731 31.6752 60.862 31.6752Z" fill="#BE0D39"/>
<defs>
<linearGradient id="paint0_linear_135_160" x1="1.99994" y1="40.5" x2="71" y2="40.5" gradientUnits="userSpaceOnUse">
<stop offset="0.0485" stop-color="#FFDBED"/>
<stop offset="0.9993" stop-color="#D2DEFF"/>
</linearGradient>
</defs>
</svg>
