<svg width="651" height="432" viewBox="0 0 651 432" fill="none" xmlns="http://www.w3.org/2000/svg">
<path d="M172.732 166.147C172.732 166.147 167.871 162.19 160.25 173.923C152.629 185.657 149.478 192.594 149.478 192.594C149.478 192.594 147.534 195.022 145.92 193.139C144.305 191.255 142.335 186.184 139.201 186.745C136.068 187.307 134.54 190.728 134.618 195.947C134.696 201.165 134.419 212.622 134.392 213.65C134.366 214.678 133.637 216.095 132.327 214.989C131.016 213.883 123.838 204.077 119.367 207.749C114.897 211.421 117.501 225.893 117.753 227.526C118.005 229.159 117.64 229.746 116.885 230.058C116.13 230.369 114.003 226.843 111.851 224.139C109.698 221.435 106.712 218.67 104.316 221.003C101.921 223.336 100.141 233.842 108.491 252.064L112.918 260.254L122.284 260.686C142.404 260.401 151.188 254.31 152.282 251.182C153.376 248.055 149.591 246.534 146.206 245.748C142.821 244.962 138.732 244.59 138.68 243.752C138.628 242.914 139.036 242.318 140.59 241.86C142.144 241.402 156.44 237.54 157.855 231.95C159.269 226.36 147.3 224.096 145.703 223.396C144.105 222.696 145.121 221.418 146.032 220.96C146.944 220.502 157.238 215.352 162.012 213.184C166.786 211.015 169.277 208.293 168.409 205.122C167.541 201.952 162.134 202.461 159.729 201.813C157.325 201.165 158.696 198.357 158.696 198.357C158.696 198.357 163.627 192.569 171.039 180.68C178.452 168.791 172.619 166.07 172.619 166.07" fill="#EBEBEB"/>
<path d="M111.26 261.792C116.737 253.083 126.728 237.756 135.243 224.562C143.758 211.369 151.449 199.411 156.943 190.728L163.47 180.438L165.206 177.639L165.675 176.913C165.779 176.749 165.84 176.671 165.84 176.671L165.701 176.93C165.588 177.103 165.441 177.353 165.259 177.665L163.523 180.49C162.021 182.944 159.816 186.477 157.073 190.858C151.596 199.576 143.932 211.542 135.417 224.744C126.902 237.946 116.885 253.256 111.364 261.896" fill="#E0E0E0"/>
<path d="M141.683 193.959C141.761 194.172 141.816 194.392 141.848 194.616C141.944 195.039 142.057 195.653 142.196 196.413C142.465 197.934 142.777 200.042 143.064 202.383C143.35 204.725 143.628 206.773 143.827 208.362C143.923 209.079 144.01 209.684 144.071 210.177C144.115 210.396 144.138 210.619 144.14 210.842C144.048 210.636 143.987 210.418 143.958 210.194C143.871 209.771 143.758 209.157 143.628 208.397C143.376 206.868 143.081 204.751 142.76 202.418C142.439 200.085 142.161 198.038 141.953 196.439L141.692 194.633C141.66 194.41 141.657 194.184 141.683 193.959Z" fill="#E0E0E0"/>
<path d="M145 211.093C145 211.015 149.34 210.177 154.704 209.209C160.068 208.242 164.443 207.533 164.451 207.611C164.46 207.689 160.111 208.535 154.756 209.494C149.4 210.453 145.017 211.171 145 211.093Z" fill="#E0E0E0"/>
<path d="M131.007 230.774C131.238 230.75 131.471 230.75 131.702 230.774L133.559 230.973C135.139 231.137 137.309 231.353 139.722 231.509C142.135 231.664 144.314 231.734 145.894 231.768H147.768C147.998 231.753 148.229 231.77 148.454 231.82C148.228 231.86 147.998 231.88 147.768 231.88C147.326 231.88 146.683 231.88 145.894 231.88C144.305 231.88 142.118 231.88 139.696 231.708C137.274 231.535 135.104 231.31 133.533 231.094C132.752 230.982 132.118 230.887 131.684 230.8C131.458 230.812 131.232 230.803 131.007 230.774Z" fill="#E0E0E0"/>
<path d="M124.584 215.931C124.703 216.108 124.805 216.296 124.888 216.493L125.643 218.048C126.259 219.361 127.101 221.193 128.013 223.232C128.924 225.271 129.749 227.111 130.304 228.416L130.964 230.006C131.059 230.197 131.129 230.401 131.172 230.611C131.045 230.437 130.94 230.248 130.86 230.049L130.113 228.494C129.497 227.18 128.655 225.349 127.744 223.31C126.832 221.271 126.008 219.439 125.452 218.126C125.192 217.504 124.966 216.968 124.792 216.536C124.697 216.344 124.627 216.141 124.584 215.931Z" fill="#E0E0E0"/>
<path d="M110.01 231.751C110.163 231.974 110.294 232.211 110.401 232.459L111.373 234.455C112.172 236.14 113.265 238.473 114.463 241.065C115.661 243.657 116.711 246.007 117.475 247.718C117.831 248.53 118.126 249.212 118.343 249.748C118.466 249.991 118.565 250.246 118.638 250.508C118.486 250.282 118.355 250.042 118.248 249.791L117.275 247.804C116.477 246.076 115.383 243.778 114.185 241.186C112.987 238.594 111.929 236.244 111.173 234.533L110.305 232.511C110.185 232.267 110.087 232.012 110.01 231.751Z" fill="#E0E0E0"/>
<path d="M118.56 249.999C118.849 249.976 119.139 249.976 119.428 249.999L121.798 250.163C123.803 250.301 126.572 250.474 129.61 250.586C132.648 250.699 135.443 250.733 137.422 250.742H139.8C140.089 250.717 140.379 250.717 140.668 250.742C140.381 250.788 140.091 250.814 139.8 250.82C139.244 250.82 138.429 250.88 137.422 250.897C135.417 250.897 132.639 250.897 129.61 250.828C126.58 250.759 123.777 250.5 121.798 250.318L119.437 250.059C119.143 250.062 118.85 250.042 118.56 249.999Z" fill="#E0E0E0"/>
<path d="M96.2699 199.101C96.3129 200.525 96.2316 201.95 96.0268 203.36C95.4976 207.389 94.1731 211.274 92.1295 214.791L92.0427 214.635H92.225L92.1382 214.791L67.8342 257.706L67.6867 257.974L67.5131 257.714L41.8203 216.908L40.553 214.894L40.3533 214.583H40.7266L40.553 214.894C38.6064 211.568 37.2939 207.913 36.6817 204.112C36.3707 202.259 36.2399 200.382 36.2911 198.504L36.4473 195.731C36.5862 194.815 36.7251 193.908 36.8553 193.001C38.2343 186.042 41.9317 179.749 47.3494 175.142C49.8793 173.055 52.7313 171.389 55.7951 170.208L56.9148 169.794L57.4703 169.586L58.0432 169.431L60.3087 168.843C61.8044 168.557 63.3184 168.375 64.8396 168.299C66.3065 168.221 67.7772 168.247 69.2404 168.377C69.9608 168.437 70.6639 168.593 71.367 168.688L72.4086 168.861C72.7471 168.93 73.0856 169.033 73.4241 169.12L75.4119 169.655L77.2954 170.373C77.6079 170.494 77.9204 170.597 78.2242 170.727L79.0922 171.167L80.8282 172.031C84.7927 174.322 88.201 177.455 90.8102 181.207C92.7525 184.039 94.2183 187.168 95.1502 190.469C95.4879 191.672 95.7431 192.896 95.914 194.133C96.0767 195.032 96.1754 195.941 96.2091 196.854C96.2091 197.58 96.2091 198.142 96.2699 198.539C96.3307 198.936 96.2699 199.109 96.2699 199.109C96.2699 199.109 96.2699 198.91 96.2699 198.539C96.2699 198.167 96.2178 197.589 96.1744 196.863C96.1224 195.952 96.0122 195.046 95.8446 194.15C95.6568 192.922 95.3901 191.707 95.046 190.512C94.1022 187.242 92.6368 184.144 90.706 181.337C88.0865 177.624 84.6787 174.529 80.724 172.273L78.988 171.409L78.12 170.986C77.8249 170.848 77.5124 170.753 77.1999 170.632L75.3337 169.923L73.3634 169.405C73.0335 169.318 72.7037 169.215 72.3652 169.146L71.3323 168.982C70.6379 168.886 69.9435 168.74 69.2317 168.679C67.7883 168.556 66.338 168.536 64.8917 168.619C63.3877 168.695 61.8911 168.877 60.4128 169.163L58.1734 169.75L57.6092 169.906L57.0623 170.105L55.96 170.519C52.9214 171.682 50.0925 173.328 47.5838 175.392C42.2293 179.957 38.583 186.19 37.2372 193.078C37.107 193.942 36.9681 194.867 36.8379 195.766C36.7077 196.664 36.7338 197.589 36.6904 198.513C36.6409 200.367 36.7688 202.221 37.0723 204.051C37.6803 207.799 38.9748 211.405 40.8915 214.687L41.0738 214.998H40.7179L40.8915 214.687C41.2908 215.326 41.7595 216.009 42.1501 216.7L67.8255 257.533H67.5044C77.7294 239.631 86.2619 224.701 91.9559 214.696L92.0514 214.851H91.8605L91.9473 214.696C93.9943 211.205 95.3442 207.352 95.9227 203.351C96.1223 201.978 96.1744 200.906 96.2265 200.198C96.2265 199.844 96.2265 199.576 96.2265 199.386C96.2265 199.196 96.2699 199.101 96.2699 199.101Z" fill="#E0E0E0"/>
<path d="M85.3677 198.72C85.3588 198.62 85.3588 198.519 85.3677 198.418C85.3677 198.193 85.3677 197.9 85.2982 197.554C85.2982 197.355 85.2982 197.139 85.2982 196.897C85.2982 196.655 85.2201 196.388 85.1767 196.102C85.0878 195.446 84.9544 194.797 84.7774 194.158C84.3322 192.396 83.6241 190.71 82.6769 189.156C80.4409 185.413 76.9648 182.562 72.846 181.094C68.7273 179.626 64.2235 179.633 60.1089 181.112C59.2667 181.41 58.446 181.765 57.6524 182.175C56.8505 182.612 56.0791 183.103 55.3436 183.644C54.5941 184.2 53.8809 184.803 53.2083 185.449C52.544 186.127 51.9263 186.849 51.3594 187.609C50.1879 189.183 49.2766 190.933 48.66 192.793C47.3697 196.626 47.3697 200.772 48.66 204.604C49.2592 206.467 50.1625 208.218 51.3334 209.788C51.8942 210.554 52.506 211.281 53.1649 211.966C53.8363 212.612 54.5465 213.218 55.2915 213.78C56.0269 214.323 56.7983 214.817 57.6004 215.257C58.3409 215.647 59.1064 215.987 59.8919 216.277C64.0038 217.772 68.5101 217.799 72.6396 216.352C76.7691 214.905 80.2651 212.075 82.5293 208.345C83.4919 206.799 84.2092 205.115 84.6559 203.351C84.8395 202.714 84.9759 202.065 85.0639 201.407C85.0639 201.122 85.1594 200.863 85.1941 200.621V199.956C85.1941 199.584 85.2462 199.282 85.2635 199.092C85.2541 198.988 85.2541 198.884 85.2635 198.781C85.2751 198.884 85.2751 198.989 85.2635 199.092C85.2635 199.317 85.2635 199.61 85.2635 199.956V200.621C85.2635 200.863 85.1941 201.131 85.1594 201.416C85.0797 202.08 84.955 202.739 84.7861 203.386C84.3566 205.173 83.654 206.883 82.7029 208.458C80.4318 212.271 76.8933 215.174 72.6993 216.665C68.5053 218.156 63.9197 218.141 59.7356 216.622C57.9929 216.014 56.356 215.14 54.8835 214.03C54.1157 213.464 53.3877 212.847 52.7048 212.182C52.0471 211.481 51.4381 210.736 50.882 209.952C49.6888 208.354 48.7626 206.574 48.1392 204.682C47.5152 202.725 47.1876 200.687 47.167 198.634C47.1949 196.579 47.5343 194.54 48.1739 192.586C48.8036 190.698 49.7357 188.924 50.9341 187.333C51.5155 186.555 52.1476 185.816 52.8264 185.121C53.5165 184.466 54.2471 183.854 55.0137 183.289C55.7668 182.74 56.5555 182.241 57.3747 181.795C58.189 181.392 59.03 181.046 59.8919 180.758C64.083 179.261 68.668 179.268 72.854 180.78C77.0399 182.291 80.5636 185.211 82.8158 189.035C83.7546 190.619 84.4481 192.334 84.8729 194.124C85.041 194.768 85.1599 195.423 85.2288 196.085C85.2288 196.379 85.3156 196.638 85.333 196.889C85.3503 197.139 85.333 197.347 85.333 197.545C85.333 197.926 85.333 198.228 85.333 198.453C85.352 198.541 85.3636 198.63 85.3677 198.72Z" fill="#E0E0E0"/>
<path d="M65.994 207.559L54.9443 199.895L57.6351 196.059L65.0392 201.2L74.6219 189.078L78.3109 191.973L65.994 207.559Z" fill="#E0E0E0"/>
<path fill-rule="evenodd" clip-rule="evenodd" d="M375.045 65.5519C378.275 65.953 381.436 66.7811 384.446 68.0143L391.346 62.26L403.203 71.2456L399.471 79.4018C401.465 81.9598 403.112 84.7691 404.366 87.7567L413.333 88.5429L415.338 103.231L406.901 106.367C406.504 109.601 405.669 112.766 404.418 115.776L410.208 122.688L401.181 134.499L392.987 130.775C390.419 132.764 387.596 134.403 384.593 135.648L383.803 144.573L369.047 146.569L365.897 138.171C362.661 137.752 359.497 136.903 356.487 135.648L349.543 141.402L337.687 132.417L341.428 124.261C339.428 121.706 337.781 118.896 336.532 115.906L327.566 115.12L325.561 100.432L333.989 97.2866C334.396 94.0746 335.231 90.9308 336.471 87.9381L330.708 81.0348L339.726 69.2239L347.929 72.9477C350.498 70.9604 353.32 69.3218 356.322 68.0748L357.112 59.1496L371.868 57.1538L375.019 65.5519H375.045ZM370.636 85.8213C367.336 85.9273 364.15 87.0475 361.515 89.0281C358.881 91.0088 356.927 93.7527 355.922 96.8832C354.916 100.014 354.91 103.377 355.902 106.511C356.894 109.646 358.837 112.398 361.464 114.389C364.09 116.38 367.272 117.513 370.571 117.632C373.871 117.752 377.126 116.851 379.891 115.055C382.656 113.258 384.794 110.654 386.012 107.599C387.23 104.545 387.468 101.19 386.694 97.9951C385.83 94.4383 383.762 91.2861 380.837 89.069C377.913 86.8518 374.31 85.705 370.636 85.8213Z" fill="#F5F5F5"/>
<path fill-rule="evenodd" clip-rule="evenodd" d="M240.566 112.545C242.654 112.81 244.697 113.35 246.642 114.152L251.121 110.411L258.82 116.243L256.398 121.539C257.694 123.2 258.763 125.024 259.575 126.965L265.4 127.475L266.693 136.979L261.224 139.018C260.956 141.096 260.413 143.129 259.61 145.066L263.368 149.524L257.527 157.248L252.206 154.838C250.539 156.127 248.705 157.187 246.755 157.991L246.243 163.789L236.695 165.085L234.646 159.633C232.558 159.373 230.515 158.835 228.57 158.034L224.091 161.776L216.392 155.944L218.823 150.647C217.524 148.989 216.455 147.164 215.646 145.221L209.822 144.712L208.52 135.164L213.997 133.134C214.26 131.056 214.8 129.022 215.602 127.086L211.792 122.602L217.651 114.938L222.972 117.349C224.638 116.06 226.468 114.997 228.414 114.186L228.926 108.389L238.518 107.136L240.566 112.579V112.545ZM237.684 125.704C235.531 125.765 233.451 126.489 231.728 127.776C230.006 129.063 228.727 130.849 228.066 132.89C227.406 134.931 227.398 137.125 228.043 139.17C228.687 141.216 229.953 143.012 231.666 144.312C233.378 145.612 235.454 146.351 237.606 146.429C239.758 146.506 241.882 145.917 243.684 144.743C245.486 143.57 246.879 141.869 247.67 139.875C248.46 137.881 248.611 135.692 248.1 133.609C247.535 131.304 246.193 129.261 244.297 127.823C242.401 126.384 240.067 125.636 237.684 125.704Z" fill="#EBEBEB"/>
<path d="M321.004 182.304C322.28 182.869 323.453 183.639 324.476 184.585C327.347 187.144 329.242 190.611 329.84 194.4C330.265 197.02 330.062 199.701 329.25 202.228C328.305 205.141 326.593 207.748 324.294 209.78C323.062 210.886 321.665 211.795 320.153 212.475C318.589 213.217 316.916 213.704 315.197 213.918C311.561 214.417 307.86 213.738 304.641 211.981C301.423 210.224 298.858 207.483 297.325 204.164C296.577 202.608 296.088 200.942 295.875 199.23C295.643 197.592 295.664 195.928 295.936 194.297C296.424 191.276 297.712 188.44 299.669 186.08C301.373 184.039 303.538 182.429 305.988 181.38C309.526 179.838 313.492 179.563 317.211 180.602C318.562 180.967 319.843 181.551 321.004 182.33C320.952 182.434 319.676 181.648 317.115 181.008C313.485 180.135 309.665 180.497 306.265 182.037C303.953 183.083 301.92 184.654 300.328 186.624C298.493 188.887 297.295 191.594 296.856 194.469C296.376 197.646 296.85 200.892 298.219 203.801C299.679 206.922 302.102 209.499 305.136 211.154C308.17 212.809 311.655 213.456 315.084 213.002C316.712 212.807 318.298 212.352 319.78 211.654C321.219 211.022 322.549 210.167 323.721 209.123C325.784 207.335 327.366 205.062 328.321 202.51C329.276 199.958 329.575 197.209 329.189 194.513C328.65 190.846 326.9 187.463 324.216 184.896C322.297 183.047 320.935 182.399 321.004 182.304Z" fill="#EBEBEB"/>
<path d="M338.902 168.843C338.934 168.651 338.978 168.46 339.032 168.273C339.145 167.85 339.293 167.279 339.484 166.545L341.358 159.763L341.428 159.935L327.679 152.531L327.974 152.479L321.75 159.547L321.637 159.676L321.473 159.633C318.181 158.84 314.798 158.483 311.412 158.57H311.221L311.126 158.406C309.694 155.814 308.14 153.075 306.517 150.189L306.916 150.354L291.917 154.743L292.186 154.354C292.377 157.266 292.577 160.462 292.785 163.746V163.987L292.577 164.108C289.703 165.85 287.076 167.965 284.765 170.398L284.591 170.58L284.348 170.511L275.26 167.919L275.755 167.72L268.212 181.44L268.117 180.887L275.191 187.117L275.399 187.298L275.338 187.566C274.546 190.811 274.193 194.147 274.288 197.485V197.761L274.036 197.899L265.773 202.47L265.999 201.926L270.373 216.864L269.887 216.527L279.314 215.948H279.609L279.757 216.199C281.499 219.057 283.615 221.672 286.05 223.975C286.11 224.191 285.928 223.5 286.188 224.459V224.511V224.58V224.727L286.102 225.012L285.937 225.573L285.616 226.714L284.956 228.978C284.522 230.49 284.088 231.993 283.663 233.488L283.428 232.935L297.134 240.426L296.552 240.521L302.811 233.488L302.932 233.28L303.21 233.349C306.482 234.154 309.848 234.523 313.218 234.447H313.504L313.635 234.689C315.191 237.471 316.719 240.215 318.218 242.923L317.688 242.707L332.696 238.387L332.383 238.836C332.192 235.656 332.001 232.52 331.819 229.453V229.185L332.045 229.055C334.938 227.326 337.585 225.219 339.918 222.791L340.091 222.61L340.334 222.679L349.405 225.271L348.945 225.461L356.496 211.836L356.574 212.285L349.518 206.038L349.361 205.9L349.405 205.701C350.229 202.434 350.608 199.072 350.533 195.705V195.515L350.698 195.42L358.97 190.884L358.84 191.212C357.173 185.415 355.75 180.481 354.5 176.256L354.726 176.403L345.29 176.922H345.195L345.143 176.844C343.84 174.652 342.322 172.594 340.612 170.701L339.327 169.318C339.175 169.173 339.033 169.017 338.902 168.852C339.071 168.975 339.23 169.111 339.379 169.258C339.692 169.543 340.152 169.975 340.733 170.588C342.502 172.454 344.07 174.499 345.412 176.688L345.273 176.611L354.7 175.98H354.865L354.917 176.153C356.175 180.369 357.642 185.294 359.361 191.074L359.422 191.29L359.222 191.394L350.976 195.99L351.141 195.705C351.236 199.13 350.871 202.553 350.056 205.883L349.943 205.537L357.035 211.758L357.26 211.948L357.113 212.207L349.622 225.867L349.466 226.144L349.162 226.057L340.074 223.465L340.49 223.353C338.115 225.844 335.415 228.006 332.461 229.781L332.67 229.392C332.861 232.462 333.057 235.59 333.26 238.775V239.13L332.921 239.225L317.922 243.596L317.567 243.7L317.393 243.38L312.801 235.155L313.218 235.397C309.764 235.484 306.314 235.112 302.958 234.291L303.427 234.144L297.169 241.186L296.917 241.471L296.587 241.29L282.873 233.807L282.534 233.626L282.647 233.254C283.075 231.762 283.506 230.262 283.94 228.753L284.591 226.481L284.921 225.349L285.086 224.779L285.164 224.493L285.208 224.355V224.277V224.226C285.468 225.185 285.277 224.493 285.338 224.701C282.84 222.329 280.671 219.635 278.889 216.691L279.331 216.925L269.896 217.495H269.514L269.41 217.132L265.07 202.194L264.966 201.831L265.296 201.649L273.559 197.096L273.325 197.511C273.238 194.075 273.615 190.643 274.444 187.307L274.592 187.756C272.135 185.587 269.722 183.436 267.518 181.518L267.257 181.276L267.422 180.965L274.965 167.331L275.13 167.029L275.46 167.124L284.531 169.716L284.114 169.828C286.502 167.352 289.208 165.199 292.16 163.426L291.969 163.789C291.778 160.514 291.587 157.309 291.414 154.406V154.103L291.709 154.017L306.725 149.697L306.986 149.619L307.116 149.861C308.722 152.747 310.258 155.529 311.682 158.095L311.395 157.939C314.834 157.863 318.267 158.246 321.603 159.08L321.325 159.166L327.609 152.151L327.74 152.004L327.913 152.099L341.575 159.659L341.688 159.719V159.84C340.82 162.735 340.143 164.972 339.675 166.519L339.145 168.247C339.083 168.453 339.001 168.652 338.902 168.843Z" fill="#EBEBEB"/>
<path d="M375.653 184.464L362.034 130.551L417.456 129.635L375.653 184.464Z" fill="#EBEBEB"/>
<path d="M400.725 140.091L381.69 165.062L483.144 241.688L502.179 216.716L400.725 140.091Z" fill="#EBEBEB"/>
<path d="M474.796 322.272L481.836 338.161C481.836 338.161 467.948 350.619 468.989 353.713L500.428 341.228L490.481 316.025L474.796 322.272Z" fill="#EA4335"/>
<path opacity="0.5" d="M474.796 322.272L481.836 338.161C481.836 338.161 467.948 350.619 468.989 353.713L500.428 341.228L490.481 316.025L474.796 322.272Z" fill="black"/>
<path d="M500.428 341.22L499.326 338.688L469.588 351.648C469.588 351.648 468.434 352.806 468.981 353.73L500.428 341.22Z" fill="#010518"/>
<path d="M530.157 344.796L538.976 359.787C538.976 359.787 526.633 373.732 527.987 376.704L557.794 360.737L545.026 336.787L530.157 344.796Z" fill="#EA4335"/>
<path opacity="0.5" d="M530.157 344.796L538.976 359.787C538.976 359.787 526.633 373.732 527.987 376.704L557.794 360.737L545.026 336.787L530.157 344.796Z" fill="black"/>
<path d="M557.794 360.694L556.388 358.335L528.352 374.526C528.352 374.526 527.336 375.814 527.987 376.66L557.794 360.694Z" fill="#010518"/>
<path d="M491.705 134.585L472.383 136.089L471.741 125.323C471.741 125.323 463.929 125.211 462.783 117.633C461.637 110.056 460.474 92.4479 460.474 92.4479C464.547 89.9877 469.207 88.6546 473.971 88.5863C478.734 88.5179 483.43 89.7168 487.573 92.0591L488.823 92.7676L491.705 134.585Z" fill="#FFBE9D"/>
<path d="M471.715 125.211C475.246 124.785 478.569 123.323 481.263 121.012C481.263 121.012 479.579 126.973 471.871 127.353L471.715 125.211Z" fill="#EB996E"/>
<path d="M488.997 100.751C489.118 100.673 494.022 98.47 494.586 103.689C495.151 108.907 489.778 108.389 489.752 108.242C489.726 108.095 488.997 100.751 488.997 100.751Z" fill="#FFBE9D"/>
<path d="M491.141 106.091C491.141 106.091 491.236 106.142 491.401 106.203C491.626 106.27 491.869 106.249 492.078 106.142C492.401 105.896 492.652 105.569 492.805 105.193C492.958 104.818 493.006 104.409 492.946 104.008C492.914 103.561 492.78 103.127 492.555 102.738C492.488 102.581 492.383 102.442 492.25 102.334C492.117 102.226 491.96 102.151 491.792 102.116C491.683 102.1 491.572 102.123 491.479 102.179C491.385 102.236 491.315 102.324 491.279 102.427C491.227 102.574 491.279 102.678 491.279 102.686C491.279 102.695 491.158 102.617 491.175 102.393C491.191 102.261 491.252 102.139 491.349 102.047C491.412 101.984 491.488 101.934 491.572 101.901C491.656 101.869 491.745 101.853 491.835 101.857C492.055 101.877 492.265 101.953 492.448 102.077C492.63 102.201 492.777 102.369 492.877 102.565C493.149 102.992 493.313 103.478 493.354 103.982C493.428 104.444 493.364 104.918 493.17 105.343C492.975 105.769 492.659 106.128 492.26 106.376C492.122 106.437 491.972 106.464 491.821 106.457C491.67 106.449 491.523 106.407 491.392 106.332C491.158 106.22 491.123 106.108 491.141 106.091Z" fill="#EB996E"/>
<path d="M463.764 104.371C463.803 104.653 463.951 104.909 464.176 105.085C464.401 105.26 464.686 105.342 464.971 105.313C465.111 105.305 465.248 105.269 465.373 105.208C465.499 105.146 465.611 105.06 465.703 104.955C465.795 104.849 465.864 104.726 465.906 104.593C465.949 104.46 465.964 104.32 465.951 104.181C465.916 103.898 465.771 103.64 465.547 103.462C465.324 103.284 465.038 103.201 464.754 103.23C464.613 103.239 464.475 103.276 464.349 103.338C464.223 103.4 464.11 103.487 464.018 103.593C463.926 103.7 463.856 103.823 463.812 103.957C463.769 104.09 463.752 104.231 463.764 104.371Z" fill="#010518"/>
<path d="M463.425 102.92C463.581 103.041 464.293 102.315 465.491 102.159C466.689 102.004 467.609 102.462 467.713 102.298C467.817 102.133 467.592 101.987 467.184 101.771C466.625 101.495 465.995 101.395 465.378 101.485C464.769 101.569 464.201 101.841 463.755 102.263C463.434 102.591 463.356 102.868 463.425 102.92Z" fill="#010518"/>
<path d="M475.16 103.058C475.199 103.34 475.347 103.596 475.572 103.771C475.797 103.947 476.082 104.029 476.367 103.999C476.507 103.991 476.643 103.954 476.768 103.892C476.894 103.83 477.005 103.744 477.097 103.639C477.188 103.533 477.257 103.411 477.3 103.278C477.344 103.146 477.36 103.006 477.348 102.867C477.311 102.585 477.165 102.329 476.942 102.151C476.718 101.974 476.434 101.89 476.15 101.917C476.009 101.926 475.872 101.962 475.745 102.025C475.619 102.087 475.506 102.174 475.414 102.28C475.322 102.386 475.252 102.51 475.209 102.643C475.165 102.777 475.149 102.918 475.16 103.058Z" fill="#010518"/>
<path d="M474.979 101.52C475.135 101.649 475.847 100.924 477.044 100.759C478.242 100.595 479.154 101.062 479.267 100.906C479.379 100.751 479.145 100.595 478.728 100.379C478.175 100.096 477.547 99.9936 476.932 100.085C476.32 100.169 475.752 100.445 475.308 100.872C474.987 101.2 474.9 101.468 474.979 101.52Z" fill="#010518"/>
<path d="M471.949 110.764C471.303 110.666 470.648 110.643 469.996 110.695C469.692 110.695 469.397 110.695 469.319 110.488C469.259 110.199 469.286 109.898 469.397 109.624C469.571 108.864 469.762 108.06 469.961 107.231C470.511 105.194 470.894 103.117 471.107 101.019C470.395 103.005 469.843 105.045 469.458 107.118L468.937 109.52C468.795 109.905 468.795 110.328 468.937 110.713C468.995 110.812 469.076 110.896 469.172 110.959C469.268 111.022 469.378 111.062 469.493 111.076C469.662 111.102 469.835 111.102 470.005 111.076C470.664 111.055 471.317 110.95 471.949 110.764Z" fill="#010518"/>
<path d="M475.508 111.093C475.317 111.093 475.508 112.372 474.527 113.426C473.546 114.48 472.192 114.523 472.21 114.705C472.227 114.886 472.548 114.912 473.121 114.843C473.866 114.749 474.555 114.398 475.065 113.849C475.558 113.322 475.822 112.624 475.803 111.905C475.777 111.369 475.595 111.076 475.508 111.093Z" fill="#010518"/>
<path d="M474.023 96.9926C474.188 97.295 475.334 96.9926 476.732 96.9926C478.129 96.9926 479.336 97.1827 479.44 96.8716C479.501 96.7247 479.266 96.4483 478.771 96.2063C478.123 95.9055 477.412 95.7633 476.697 95.7916C475.982 95.8095 475.28 95.9929 474.648 96.3273C474.18 96.5692 473.928 96.8543 474.023 96.9926Z" fill="#010518"/>
<path d="M463.382 99.4806C463.625 99.7139 464.398 99.3337 465.361 99.1782C466.325 99.0227 467.184 99.1091 467.332 98.8067C467.392 98.6598 467.227 98.4092 466.837 98.2105C466.313 97.9717 465.728 97.8993 465.162 98.0032C464.591 98.0883 464.062 98.3515 463.651 98.7548C463.347 99.0745 463.269 99.3596 463.382 99.4806Z" fill="#010518"/>
<path d="M456.082 88.171C455.965 87.707 455.967 87.2213 456.087 86.758C456.206 86.2948 456.441 85.8687 456.768 85.5185C457.113 85.1896 457.563 84.9926 458.04 84.9626C458.516 84.9325 458.988 85.0713 459.372 85.3544C459.257 85.0471 459.207 84.7193 459.227 84.392C459.247 84.0646 459.335 83.745 459.486 83.4537C459.638 83.1624 459.848 82.9058 460.105 82.7004C460.362 82.495 460.659 82.3454 460.978 82.2613C462.21 82.0107 463.408 82.7969 464.658 82.9525C465.883 83.0306 467.101 82.7124 468.13 82.0453C469.198 81.4405 470.161 80.6629 471.246 80.0926C473.535 78.8774 476.213 78.6104 478.698 79.3498C481.183 80.0892 483.275 81.7751 484.518 84.0411C485.339 83.7095 486.242 83.6362 487.107 83.8308C487.971 84.0254 488.755 84.4787 489.353 85.1297C490.534 86.4614 491.174 88.1832 491.149 89.9595C491.149 91.1452 491.018 92.3273 490.759 93.4846C490.759 93.5796 490.759 93.6747 490.802 93.7784C491.314 97.9601 491.531 102.928 489.752 103.205C486.636 103.688 486.558 97.7355 486.558 97.7355C482.521 96.8024 483.138 90.8926 482.061 90.1669C480.985 89.4411 478.694 87.7044 471.264 92.8971C468.471 94.6428 465.197 95.4682 461.907 95.2558H461.698H461.646H461.577C460.828 95.1753 460.096 94.9801 459.407 94.6769C458.594 94.3516 457.907 93.7765 457.445 93.0353C457.224 92.6627 457.116 92.2342 457.134 91.8017C457.153 91.3693 457.297 90.9514 457.549 90.5989C456.832 89.9497 456.322 89.1056 456.082 88.171Z" fill="#383D5D"/>
<path d="M471.715 131.915L472.574 162.052L491.41 121.694L490.941 117.953L471.715 131.915Z" fill="#EBEBEB"/>
<path d="M484.205 221.987C483.519 222.212 444.277 261.688 445.145 268.781C446.013 275.875 473.937 328.397 473.937 328.397L493.901 318.626L475.213 272.592L475.456 269.732L498.293 251.113L497.069 221.184L484.205 221.987Z" fill="#010518"/>
<path d="M492.66 229.772C493.12 230.454 499.907 292.472 501.73 295.678C503.553 298.883 530.826 351.838 530.826 351.838L551.076 343.716L526.355 285.526L529.168 230.454L527.649 214.902L497.069 221.184L492.66 229.772Z" fill="#010518"/>
<path d="M501.374 294.624C501.309 294.422 501.265 294.213 501.244 294.002C501.166 293.552 501.07 292.956 500.949 292.213C500.706 290.606 500.359 288.368 499.942 285.621C499.135 279.996 498.024 272.315 496.791 263.831C495.559 255.346 494.552 247.639 493.771 242.023C493.415 239.259 493.12 237.012 492.903 235.405L492.694 233.599C492.673 233.39 492.673 233.178 492.694 232.969C492.694 232.969 492.746 233.185 492.825 233.591C492.903 233.997 492.998 234.636 493.12 235.379L494.118 241.98C494.934 247.596 496.045 255.277 497.269 263.77C498.493 272.263 499.517 279.953 500.289 285.578C500.654 288.334 500.949 290.58 501.157 292.187C501.244 292.939 501.322 293.544 501.374 293.993C501.395 294.203 501.395 294.414 501.374 294.624Z" fill="#455A64"/>
<path d="M525.843 283.746C525.587 285.415 525.192 287.059 524.663 288.662C524.268 290.303 523.734 291.907 523.065 293.457C523.331 291.8 523.734 290.167 524.272 288.576C524.651 286.923 525.177 285.307 525.843 283.746Z" fill="#455A64"/>
<path d="M528.907 297.795C528.454 297.35 528.078 296.833 527.796 296.265C526.285 293.586 525.628 290.512 525.913 287.453C525.934 286.822 526.063 286.2 526.294 285.612C525.816 289.847 526.73 294.121 528.898 297.795H528.907Z" fill="#455A64"/>
<path d="M468.72 265.896C471.149 266.849 473.142 268.657 474.319 270.976C474.215 271.045 473.242 269.637 471.715 268.246C470.187 266.855 468.625 266.008 468.72 265.896Z" fill="#455A64"/>
<path d="M471.758 264.064C472.57 264.622 473.232 265.369 473.685 266.241C474.268 267.037 474.646 267.962 474.788 268.937C474.253 268.141 473.763 267.316 473.321 266.466C472.756 265.695 472.234 264.893 471.758 264.064Z" fill="#455A64"/>
<path d="M474.466 173.586L479.475 198.348L483.554 232.908C483.554 232.908 500.376 230.567 507.546 228.312C515.861 225.72 533.95 223.456 533.95 223.456L530.895 226.463C537.37 224.657 541.493 218.514 541.493 218.514C530.348 208.224 520.8 187.004 520.8 187.004L512.32 145.083C512.32 145.083 511.035 139.173 510.254 136.538C509.473 133.902 496.6 125.427 494.812 124.355L493.693 123.828L493.337 120.467L492.009 119.672L478.086 132.278C475.372 134.726 473.647 138.074 473.234 141.696C472.645 146.93 472.442 152.2 472.626 157.464C472.791 162.432 474.466 173.586 474.466 173.586Z" fill="#EA4335"/>
<path d="M484.031 130.706C484.031 130.706 476.671 134.637 475.395 137.972C474.119 141.307 477.912 177.871 477.912 177.871L451.464 178.372L451.36 194.054C451.36 194.054 493.362 197.363 495.003 195.099C497.208 192.041 499.777 163.468 499.777 163.468L500.732 142.905C500.732 142.905 498.327 127.232 484.031 130.706Z" fill="#EA4335"/>
<g opacity="0.3">
<path opacity="0.3" d="M479.475 198.348C482.896 199.414 486.505 199.747 490.064 199.325C493.788 198.988 497.581 196.957 498.987 193.501C500.064 190.866 499.612 187.885 499.777 185.043C499.925 182.563 500.532 180.144 500.914 177.699C501.296 175.254 500.046 170.787 499.178 168.411C499.178 168.411 498.241 185.38 495.567 192.508C495.27 193.503 494.706 194.399 493.936 195.1C492.99 195.86 491.688 195.964 490.464 196.05C487.087 196.404 478.945 195.817 478.945 195.817" fill="black"/>
</g>
<path d="M500.714 145.152C500.726 145.278 500.726 145.406 500.714 145.532C500.714 145.791 500.714 146.154 500.671 146.621C500.671 147.606 500.558 149.014 500.471 150.82C500.385 152.625 500.254 154.88 500.116 157.464C499.977 160.047 499.873 163.011 499.551 166.259C499.23 169.508 498.926 173.068 498.518 176.887C498.111 180.705 497.65 184.784 496.913 189.043C496.739 190.132 496.496 191.208 496.184 192.266C495.823 193.373 495.162 194.36 494.274 195.117C493.362 195.9 492.189 196.316 490.984 196.283C489.821 196.283 488.649 196.283 487.512 196.283C482.79 196.162 477.912 195.929 472.912 195.653C465.404 195.247 458.156 194.789 451.412 194.305H451.221V194.115C451.221 188.542 451.282 183.297 451.317 178.45V178.269H451.499L477.027 177.725L484.162 177.604H486.045C486.471 177.604 486.688 177.604 486.688 177.604C486.688 177.604 486.471 177.604 486.045 177.647L484.17 177.725L477.027 177.949L451.508 178.649L451.69 178.468C451.69 183.306 451.69 188.551 451.638 194.123L451.438 193.916C458.2 194.374 465.439 194.84 472.938 195.247C477.929 195.514 482.808 195.765 487.521 195.886C488.701 195.886 489.864 195.929 490.993 195.886C492.104 195.927 493.19 195.548 494.031 194.823C494.86 194.117 495.476 193.196 495.81 192.162C496.116 191.124 496.356 190.068 496.531 189C497.269 184.758 497.737 180.68 498.18 176.904C498.623 173.128 498.961 169.543 499.265 166.294C499.569 163.045 499.716 160.09 499.89 157.507C500.063 154.924 500.202 152.703 500.315 150.872C500.428 149.04 500.532 147.657 500.602 146.681C500.602 146.215 500.662 145.817 500.688 145.584C500.68 145.439 500.689 145.294 500.714 145.152Z" fill="#010518"/>
<path d="M456.568 193.821C456.363 191.292 456.302 188.754 456.386 186.218C456.329 183.681 456.416 181.142 456.646 178.615C456.852 181.144 456.912 183.682 456.829 186.218C456.886 188.755 456.799 191.294 456.568 193.821Z" fill="#010518"/>
<path d="M453.773 180.999C453.721 180.999 453.981 180.671 454.485 180.844C454.632 180.895 454.761 180.987 454.857 181.11C454.952 181.233 455.01 181.38 455.023 181.535C455.046 181.728 455.007 181.923 454.912 182.093C454.817 182.262 454.671 182.398 454.494 182.48C454.317 182.562 454.119 182.587 453.927 182.551C453.735 182.515 453.56 182.419 453.426 182.278C453.314 182.176 453.231 182.046 453.186 181.902C453.14 181.758 453.133 181.605 453.166 181.457C453.287 180.956 453.634 180.852 453.643 180.904C453.652 180.956 453.478 181.137 453.469 181.492C453.467 181.585 453.485 181.677 453.523 181.762C453.56 181.847 453.616 181.923 453.686 181.984C453.771 182.054 453.873 182.1 453.981 182.116C454.09 182.133 454.201 182.12 454.303 182.079C454.399 182.03 454.479 181.956 454.536 181.865C454.593 181.773 454.623 181.668 454.624 181.561C454.621 181.47 454.595 181.382 454.548 181.305C454.501 181.228 454.434 181.164 454.355 181.12C454.051 180.939 453.799 181.051 453.773 180.999Z" fill="#010518"/>
<path d="M512.45 148.677C512.45 148.677 526.216 166.587 527.891 171.46C529.567 176.333 528.273 183.349 525.47 186.701C522.666 190.054 520.409 188.689 520.409 188.689L512.45 148.677Z" fill="#EA4335"/>
<path d="M519.932 187.255C518.811 187.658 517.645 187.927 516.46 188.058C515.306 188.329 514.122 188.457 512.936 188.438C514.057 188.034 515.223 187.764 516.408 187.635C517.562 187.364 518.746 187.236 519.932 187.255Z" fill="#010518"/>
<path d="M522.536 200.448C522.691 200.749 522.816 201.064 522.909 201.39C523.118 202.012 523.43 202.893 523.838 203.982C524.907 206.819 526.142 209.591 527.536 212.285C528.94 214.971 530.481 217.583 532.154 220.112C532.796 221.089 533.325 221.84 533.699 222.402C533.911 222.668 534.092 222.958 534.237 223.266C533.983 223.039 533.756 222.784 533.56 222.506C533.152 221.996 532.579 221.244 531.902 220.285C530.142 217.803 528.553 215.205 527.145 212.509C525.737 209.804 524.536 206.996 523.552 204.111C523.178 203.005 522.901 202.098 522.744 201.467C522.63 201.138 522.56 200.795 522.536 200.448Z" fill="#010518"/>
<g opacity="0.3">
<path opacity="0.3" d="M523.491 202.573C525.678 206.444 527.918 210.349 531.233 213.347C532.488 214.295 533.624 215.389 534.618 216.605C535.486 217.892 535.894 219.689 535.044 221.011C534.917 221.257 534.718 221.46 534.473 221.591C534.228 221.722 533.949 221.776 533.672 221.745C533.31 221.607 533.004 221.351 532.804 221.02C528.652 215.698 525.551 209.641 523.664 203.169" fill="black"/>
</g>
<g opacity="0.3">
<path opacity="0.3" d="M521.668 188.62C523.551 187.272 524.211 184.715 523.933 182.416C523.656 180.118 522.597 178.01 521.651 175.91C518.791 169.632 516.549 163.093 514.958 156.384L513.613 151.416L520.418 186.84L521.668 188.62Z" fill="black"/>
</g>
<path d="M487.617 129.116C488.429 128.211 489.298 127.36 490.221 126.567C491.034 125.651 491.904 124.785 492.825 123.975C492.245 125.052 491.481 126.019 490.568 126.835C489.734 127.771 488.734 128.544 487.617 129.116Z" fill="#010518"/>
<path d="M486.228 132.192C486.228 132.27 485.429 132.512 484.214 133.108C481.024 134.683 478.455 137.274 476.914 140.469C476.324 141.687 476.046 142.499 476.046 142.482C476.044 142.279 476.076 142.078 476.142 141.886C476.275 141.358 476.449 140.841 476.662 140.339C478.097 136.983 480.763 134.298 484.118 132.831C484.619 132.613 485.135 132.434 485.664 132.296C485.845 132.23 486.035 132.195 486.228 132.192Z" fill="#010518"/>
<path d="M523.178 192.188C523.091 192.083 523.018 191.967 522.961 191.842L522.415 190.814C521.92 189.855 521.252 188.55 520.427 186.961C519.559 183.038 518.352 177.318 517.024 170.951C515.792 164.911 514.724 159.477 513.856 155.52L512.988 150.828C512.901 150.318 512.823 149.895 512.762 149.549C512.726 149.402 512.712 149.251 512.719 149.1C512.777 149.239 512.821 149.384 512.849 149.532C512.927 149.869 513.032 150.292 513.153 150.802C513.413 151.96 513.769 153.532 514.195 155.459C515.063 159.451 516.191 164.877 517.458 170.864C518.786 177.232 519.949 182.96 520.722 186.909C521.495 188.524 522.12 189.846 522.58 190.823L523.066 191.885C523.113 191.982 523.151 192.084 523.178 192.188Z" fill="#010518"/>
<path d="M477.461 177.863C477.35 177.438 477.28 177.004 477.252 176.567C477.157 175.651 477.027 174.45 476.87 173.007C476.558 170.009 476.159 165.853 475.751 161.274C475.343 156.695 474.996 152.53 474.761 149.515C474.657 148.072 474.579 146.871 474.51 145.955C474.469 145.519 474.469 145.079 474.51 144.642C474.608 145.069 474.675 145.502 474.709 145.938C474.805 146.854 474.935 148.055 475.1 149.498C475.404 152.496 475.803 156.643 476.211 161.231C476.619 165.819 476.966 169.975 477.2 172.981C477.304 174.424 477.383 175.625 477.452 176.55C477.486 176.987 477.488 177.425 477.461 177.863Z" fill="#010518"/>
<path d="M451.803 180.204C451.803 180.204 446.091 175.884 444.702 175.634C443.635 175.435 437.272 175.547 434.347 175.634C433.801 175.629 433.274 175.838 432.881 176.217C432.488 176.595 432.26 177.112 432.247 177.655C432.238 177.724 432.238 177.794 432.247 177.863C432.319 178.208 432.488 178.525 432.734 178.779C432.98 179.032 433.292 179.212 433.635 179.297C433.192 179.439 432.804 179.717 432.529 180.091C432.253 180.464 432.102 180.915 432.099 181.379C432.099 183.021 434.069 183.367 434.069 183.367L433.783 183.626C433.536 183.875 433.36 184.185 433.274 184.525C433.189 184.865 433.196 185.221 433.295 185.557C433.394 185.893 433.582 186.196 433.839 186.435C434.095 186.675 434.412 186.841 434.755 186.918L435.623 187.125C435.29 187.26 435.001 187.483 434.788 187.772C434.575 188.06 434.446 188.401 434.417 188.758C434.417 190.918 439.347 191.35 439.347 191.35C439.347 191.35 451.438 193.259 451.699 193.173C451.959 193.087 451.803 180.204 451.803 180.204Z" fill="#FFBE9D"/>
<path d="M435.467 173.042C435.519 173.759 435.693 175.28 436.908 175.962L443.652 175.703C443.652 175.703 438.635 173.975 437.915 173.111C437.636 172.757 437.312 172.441 436.951 172.169C436.802 172.069 436.627 172.013 436.446 172.008C436.266 172.002 436.088 172.048 435.933 172.139C435.777 172.231 435.651 172.364 435.569 172.524C435.486 172.683 435.451 172.863 435.467 173.042Z" fill="#FFBE9D"/>
<path d="M440.476 175.634C439.47 175.871 438.432 175.944 437.403 175.85C436.374 175.911 435.341 175.838 434.33 175.634C435.341 175.409 436.379 175.336 437.411 175.418C438.438 175.367 439.467 175.439 440.476 175.634Z" fill="#EB996E"/>
<path d="M438.965 179.383C438.109 179.658 437.204 179.749 436.309 179.651C435.418 179.684 434.531 179.528 433.705 179.193C434.585 179.098 435.473 179.098 436.352 179.193C437.228 179.159 438.104 179.222 438.965 179.383Z" fill="#EB996E"/>
<path d="M442.393 178.899C442.498 178.969 442.393 179.331 441.986 179.573C441.578 179.815 441.213 179.789 441.204 179.668C441.196 179.547 441.447 179.401 441.742 179.21C442.038 179.02 442.289 178.848 442.393 178.899Z" fill="#EB996E"/>
<path d="M439.703 183.634C437.774 183.859 435.823 183.795 433.913 183.444C434.87 183.255 435.851 183.211 436.821 183.314C437.792 183.278 438.763 183.386 439.703 183.634Z" fill="#EB996E"/>
<path d="M443.548 181.837C443.6 181.837 443.704 181.958 443.739 182.218C443.776 182.571 443.674 182.924 443.453 183.203C443.233 183.482 442.912 183.665 442.559 183.712C442.298 183.712 442.142 183.712 442.142 183.617C442.142 183.522 442.724 183.427 443.106 182.935C443.487 182.442 443.444 181.863 443.548 181.837Z" fill="#EB996E"/>
<path d="M440.727 187.79C439.859 187.896 438.98 187.861 438.123 187.687C437.231 187.656 436.35 187.474 435.519 187.151C436.387 187.045 437.266 187.08 438.123 187.255C439.015 187.291 439.894 187.472 440.727 187.79Z" fill="#EB996E"/>
<path d="M444.486 185.673C444.538 185.673 444.625 185.812 444.616 186.079C444.582 186.397 444.455 186.697 444.251 186.943C443.765 187.54 443.21 187.756 443.149 187.669C443.088 187.583 443.505 187.177 443.913 186.676C444.321 186.174 444.416 185.699 444.486 185.673Z" fill="#EB996E"/>
<path d="M528.612 226.808C529.805 226.694 530.955 226.303 531.97 225.667C532.984 225.031 533.835 224.167 534.454 223.145C534.592 222.912 534.714 222.592 534.532 222.393C534.461 222.335 534.379 222.291 534.291 222.264C534.203 222.238 534.111 222.229 534.02 222.238C532.132 222.224 530.256 222.546 528.482 223.188C528.378 223.212 528.28 223.257 528.194 223.321C528.109 223.385 528.038 223.466 527.987 223.56C527.94 223.706 527.94 223.863 527.987 224.009C528.221 224.916 528.456 225.823 528.699 226.739" fill="#EA4335"/>
<g opacity="0.4">
<path opacity="0.4" d="M528.612 226.808C529.805 226.694 530.955 226.303 531.97 225.667C532.984 225.031 533.835 224.167 534.454 223.145C534.592 222.912 534.714 222.592 534.532 222.393C534.461 222.335 534.379 222.291 534.291 222.264C534.203 222.238 534.111 222.229 534.02 222.238C532.132 222.224 530.256 222.546 528.482 223.188C528.378 223.212 528.28 223.257 528.194 223.321C528.109 223.385 528.038 223.466 527.987 223.56C527.94 223.706 527.94 223.863 527.987 224.009C528.221 224.916 528.456 225.823 528.699 226.739" fill="black"/>
</g>
<path d="M471.715 131.916C471.715 131.916 468.937 141.186 469.701 140.659C470.465 140.132 472.122 138.672 472.122 138.672L471.715 131.916Z" fill="#EBEBEB"/>
<path d="M471.871 136.192L470.361 139.804C470.21 140.178 470.11 140.57 470.066 140.97C469.935 141.981 469.796 143.83 470.395 143.96C470.699 143.977 471.002 143.926 471.283 143.811C471.564 143.696 471.815 143.519 472.019 143.294L471.871 136.192Z" fill="#EB996E"/>
<path d="M518.916 136.763C518.916 136.763 504.082 131 495.862 136.089C487.642 141.178 486.149 149.299 481.254 149.299C471.706 149.299 472.018 142.595 472.018 142.595L469.987 143.208C469.987 144.582 467.783 154.44 477.799 155.641C487.816 156.842 492.087 143.217 501.131 143.208C506.789 143.303 512.305 144.989 517.041 148.072L523.543 143.986L518.916 136.763Z" fill="#FE7058"/>
<path d="M480.872 155.52C483.431 154.002 485.435 151.711 486.592 148.979C488.901 143.683 493.849 137.643 497.98 136.123C502.112 134.602 511.669 133.531 518.274 137.851L522.501 143.536L517.016 147.087C513.931 145.474 510.688 144.18 507.337 143.225C500.515 141.333 496.366 143.475 492.399 147.208C492.156 147.441 491.922 147.674 491.731 147.899C489.814 149.933 487.71 151.784 485.446 153.429C483.476 154.751 481.74 155.52 480.872 155.52Z" fill="#EA4335"/>
<path d="M173.6 75.0556C164.799 76.412 158.35 69.0076 156.292 62.5016C154.392 56.4536 153.489 50.1551 150.824 44.3576C147.092 36.3224 137.214 32.6072 128.352 33.3503C119.489 34.0933 110.549 38.5343 102.702 42.6901L104.872 91.0741C104.872 91.0741 121.946 72.9301 130.157 72.6364C143.854 72.092 143.108 94.4956 156.405 97.8047C156.405 97.8047 175.05 102.833 187.653 86.6332C195.648 76.3429 196.333 63.8495 196.333 63.8495C196.333 63.8495 190.205 72.5068 173.6 75.0556Z" fill="#EA4335"/>
<path d="M102.786 43.0032C103.336 43.0852 106.758 94.4922 110.412 157.819C114.065 221.146 116.62 272.441 116.069 272.367C115.518 272.294 112.135 220.893 108.445 157.543C104.754 94.1935 102.235 42.9296 102.786 43.0032Z" fill="#EA4335"/>
<g opacity="0.2">
<path opacity="0.2" d="M149.296 59.1494C150.787 64.2617 152.965 69.15 155.771 73.6819C158.306 77.6304 162.151 80.9568 166.76 81.9158C167.604 82.0289 168.431 82.2406 169.225 82.5465C169.621 82.7069 169.966 82.9704 170.224 83.3095C170.482 83.6485 170.644 84.0505 170.692 84.4733C170.692 85.7433 169.416 86.5728 168.27 87.1344C166.679 88.0036 164.977 88.6546 163.21 89.0697C161.474 89.3981 160.033 89.5881 158.809 88.2057C157.625 87.0505 156.561 85.7798 155.632 84.4128C151.613 77.5958 149.626 67.8499 149.296 60.143" fill="black"/>
</g>
<path d="M161.231 90.2274C161.231 90.2274 161.092 90.1669 160.84 90.0027C160.476 89.7662 160.126 89.5095 159.79 89.2338C158.554 88.2157 157.462 87.0357 156.544 85.7259C155.184 83.7818 154.09 81.6667 153.289 79.436C152.315 76.7148 151.512 73.936 150.884 71.1157C149.692 66.0048 148.94 60.8019 148.636 55.5637C148.524 53.5592 148.506 51.9349 148.506 50.8117C148.506 50.2846 148.506 49.8613 148.506 49.5157C148.491 49.3663 148.491 49.2158 148.506 49.0664C148.545 49.2129 148.563 49.3642 148.558 49.5157C148.558 49.8613 148.558 50.2846 148.61 50.803C148.662 51.9262 148.723 53.5506 148.879 55.5464C149.274 60.7535 150.063 65.9234 151.24 71.012C151.877 73.8177 152.677 76.5842 153.636 79.2978C154.423 81.5006 155.484 83.5963 156.796 85.5359C157.678 86.842 158.719 88.0347 159.894 89.0869C160.736 89.8559 161.257 90.2015 161.231 90.2274Z" fill="#EA4335"/>
<path d="M49.2505 274.51L165.536 293.458V274.51H49.2505Z" fill="#E0E0E0"/>
<path d="M184.728 317.321L301.023 336.269V317.321H184.728Z" fill="#E0E0E0"/>
<path d="M319.276 358.266L435.571 377.214V358.266H319.276Z" fill="#E0E0E0"/>
<path d="M453.652 390.856L569.938 409.804V390.856H453.652Z" fill="#E0E0E0"/>
<path d="M165.536 260.323H49.2505V274.519H165.536V260.323Z" fill="#EA4335"/>
<g opacity="0.3">
<path opacity="0.3" d="M165.537 260.323H129.246V274.519H165.537V260.323Z" fill="black"/>
</g>
<path d="M301.014 303.126H184.728V317.321H301.014V303.126Z" fill="#EA4335"/>
<g opacity="0.3">
<path opacity="0.3" d="M301.023 303.126H264.731V317.321H301.023V303.126Z" fill="black"/>
</g>
<path d="M435.571 344.071H319.285V358.266H435.571V344.071Z" fill="#EA4335"/>
<g opacity="0.3">
<path opacity="0.3" d="M435.571 344.071H399.28V358.266H435.571V344.071Z" fill="black"/>
</g>
<path d="M570.12 376.661H453.834V390.856H570.12V376.661Z" fill="#EA4335"/>
<g opacity="0.3">
<path opacity="0.3" d="M570.12 376.661H533.829V390.856H570.12V376.661Z" fill="black"/>
</g>
<path d="M498.458 325.002C498.46 325.624 498.646 326.231 498.995 326.747C499.343 327.263 499.837 327.665 500.414 327.902C500.992 328.138 501.627 328.199 502.239 328.077C502.852 327.955 503.414 327.655 503.855 327.214C504.296 326.774 504.596 326.214 504.717 325.604C504.838 324.994 504.775 324.362 504.536 323.788C504.296 323.214 503.891 322.723 503.372 322.378C502.853 322.033 502.242 321.849 501.618 321.849C501.202 321.849 500.79 321.93 500.406 322.089C500.023 322.247 499.674 322.48 499.38 322.773C499.087 323.066 498.854 323.413 498.696 323.796C498.538 324.179 498.457 324.588 498.458 325.002Z" fill="#EBEBEB"/>
</svg>
