<svg width="198" height="67" viewBox="0 0 198 67" fill="none" xmlns="http://www.w3.org/2000/svg">
<path d="M21.36 26.4C19.4133 26.4 17.84 26.1733 16.64 25.72C15.4667 25.2667 14.6133 24.7067 14.08 24.04C13.5467 23.3467 13.28 22.6667 13.28 22C13.28 21.2267 13.4533 20.6133 13.8 20.16C14.1733 19.68 14.64 19.3467 15.2 19.16C15.7867 18.9467 16.4 18.84 17.04 18.84C17.0667 19.96 17.24 20.92 17.56 21.72C17.9067 22.52 18.4133 23.1333 19.08 23.56C19.7467 23.9867 20.56 24.2 21.52 24.2C22.8267 24.2 23.8533 23.9067 24.6 23.32C25.3467 22.7333 25.72 21.9333 25.72 20.92C25.72 20.2 25.52 19.6 25.12 19.12C24.72 18.64 24.1067 18.1867 23.28 17.76C22.48 17.3333 21.4533 16.8667 20.2 16.36C18.6533 15.7467 17.4133 15.0933 16.48 14.4C15.5467 13.68 14.88 12.9067 14.48 12.08C14.08 11.2267 13.88 10.3067 13.88 9.32C13.88 7.90667 14.2267 6.72 14.92 5.76C15.6133 4.77333 16.5733 4.04 17.8 3.56C19.0267 3.05333 20.44 2.8 22.04 2.8C23.72 2.8 25.0933 2.98666 26.16 3.36C27.2267 3.73333 28.0267 4.22666 28.56 4.84C29.12 5.45333 29.4 6.09333 29.4 6.76C29.4 7.29333 29.2533 7.76 28.96 8.16C28.6933 8.56 28.2667 8.88 27.68 9.12C27.12 9.33333 26.4133 9.44 25.56 9.44C25.56 8.21333 25.24 7.17333 24.6 6.32C23.96 5.44 22.9867 5 21.68 5C20.96 5 20.3467 5.13333 19.84 5.4C19.3333 5.64 18.9467 5.98667 18.68 6.44C18.44 6.89333 18.32 7.44 18.32 8.08C18.32 8.69333 18.4533 9.24 18.72 9.72C18.9867 10.1733 19.5067 10.6133 20.28 11.04C21.0533 11.4667 22.2 11.96 23.72 12.52C25.24 13.1067 26.48 13.7333 27.44 14.4C28.4 15.0667 29.0933 15.8267 29.52 16.68C29.9733 17.5067 30.2 18.4667 30.2 19.56C30.2 20.92 29.8533 22.12 29.16 23.16C28.4933 24.1733 27.4933 24.9733 26.16 25.56C24.8533 26.12 23.2533 26.4 21.36 26.4ZM35.2866 26V24.04H36.4466C37.0599 24.04 37.5399 23.92 37.8866 23.68C38.2332 23.44 38.4066 22.88 38.4066 22V7.04C38.4066 6.21333 38.2199 5.69333 37.8466 5.48C37.4732 5.24 37.0066 5.12 36.4466 5.12H35.2866V3.16H46.5266V5.12H45.5666C45.0066 5.12 44.5399 5.24 44.1666 5.48C43.7932 5.72 43.6066 6.28 43.6066 7.16V13H52.6066V7.16C52.6066 6.28 52.4199 5.72 52.0466 5.48C51.6732 5.24 51.1932 5.12 50.6066 5.12H49.6866V3.16H60.9266V5.12H59.7666C59.2066 5.12 58.7399 5.24 58.3666 5.48C57.9932 5.72 57.8066 6.28 57.8066 7.16V22.16C57.8066 22.9867 57.9799 23.5067 58.3266 23.72C58.6999 23.9333 59.1799 24.04 59.7666 24.04H60.9266V26H49.6866V24.04H50.6066C51.2199 24.04 51.6999 23.92 52.0466 23.68C52.4199 23.44 52.6066 22.88 52.6066 22V15H43.6066V22C43.6066 22.88 43.7799 23.44 44.1266 23.68C44.4999 23.92 44.9799 24.04 45.5666 24.04H46.5266V26H35.2866ZM65.6553 26V24.04H66.8153C67.4286 24.04 67.9086 23.92 68.2553 23.68C68.602 23.44 68.7753 22.88 68.7753 22V7.12C68.7753 6.24 68.5886 5.69333 68.2153 5.48C67.8686 5.24 67.402 5.12 66.8153 5.12H65.6553V3.16H77.0953V5.12H75.9353C75.3486 5.12 74.8686 5.24 74.4953 5.48C74.1486 5.72 73.9753 6.28 73.9753 7.16V22C73.9753 22.88 74.1353 23.44 74.4553 23.68C74.802 23.92 75.2953 24.04 75.9353 24.04H77.0953V26H65.6553ZM81.8053 26V24.08H82.9653C83.552 24.08 84.0186 23.9733 84.3653 23.76C84.7386 23.52 84.9253 22.9867 84.9253 22.16V7.04C84.9253 6.21333 84.7386 5.69333 84.3653 5.48C84.0186 5.24 83.552 5.12 82.9653 5.12H81.8053V3.16H93.0453V5.12H92.0853C91.4986 5.12 91.0186 5.24 90.6453 5.48C90.2986 5.72 90.1253 6.28 90.1253 7.16V14.36L95.2453 9.04C95.9653 8.32 96.4586 7.76 96.7253 7.36C97.0186 6.96 97.1653 6.54667 97.1653 6.12C97.1653 5.77333 97.0053 5.52 96.6853 5.36C96.392 5.17333 95.8986 5.08 95.2053 5.08V3.16H104.645V5.08C104.005 5.08 103.432 5.2 102.925 5.44C102.419 5.65333 101.925 5.96 101.445 6.36C100.965 6.76 100.459 7.22667 99.9253 7.76L95.5253 12.24L101.645 21.52C102.099 22.16 102.525 22.68 102.925 23.08C103.325 23.4533 103.739 23.72 104.165 23.88C104.619 24.04 105.072 24.12 105.525 24.12H105.685V26H103.845C102.192 26 100.899 25.9067 99.9653 25.72C99.032 25.5067 98.2986 25.16 97.7653 24.68C97.232 24.1733 96.6986 23.5067 96.1653 22.68L91.6853 15.8L90.1253 16.92V22C90.1253 22.88 90.2986 23.44 90.6453 23.68C91.0186 23.92 91.512 24.04 92.1253 24.04H93.0453V26H81.8053ZM117.327 26.4C115.381 26.4 113.807 26.1733 112.607 25.72C111.434 25.2667 110.581 24.7067 110.047 24.04C109.514 23.3467 109.247 22.6667 109.247 22C109.247 21.2267 109.421 20.6133 109.767 20.16C110.141 19.68 110.607 19.3467 111.167 19.16C111.754 18.9467 112.367 18.84 113.007 18.84C113.034 19.96 113.207 20.92 113.527 21.72C113.874 22.52 114.381 23.1333 115.047 23.56C115.714 23.9867 116.527 24.2 117.487 24.2C118.794 24.2 119.821 23.9067 120.567 23.32C121.314 22.7333 121.687 21.9333 121.687 20.92C121.687 20.2 121.487 19.6 121.087 19.12C120.687 18.64 120.074 18.1867 119.247 17.76C118.447 17.3333 117.421 16.8667 116.167 16.36C114.621 15.7467 113.381 15.0933 112.447 14.4C111.514 13.68 110.847 12.9067 110.447 12.08C110.047 11.2267 109.847 10.3067 109.847 9.32C109.847 7.90667 110.194 6.72 110.887 5.76C111.581 4.77333 112.541 4.04 113.767 3.56C114.994 3.05333 116.407 2.8 118.007 2.8C119.687 2.8 121.061 2.98666 122.127 3.36C123.194 3.73333 123.994 4.22666 124.527 4.84C125.087 5.45333 125.367 6.09333 125.367 6.76C125.367 7.29333 125.221 7.76 124.927 8.16C124.661 8.56 124.234 8.88 123.647 9.12C123.087 9.33333 122.381 9.44 121.527 9.44C121.527 8.21333 121.207 7.17333 120.567 6.32C119.927 5.44 118.954 5 117.647 5C116.927 5 116.314 5.13333 115.807 5.4C115.301 5.64 114.914 5.98667 114.647 6.44C114.407 6.89333 114.287 7.44 114.287 8.08C114.287 8.69333 114.421 9.24 114.687 9.72C114.954 10.1733 115.474 10.6133 116.247 11.04C117.021 11.4667 118.167 11.96 119.687 12.52C121.207 13.1067 122.447 13.7333 123.407 14.4C124.367 15.0667 125.061 15.8267 125.487 16.68C125.941 17.5067 126.167 18.4667 126.167 19.56C126.167 20.92 125.821 22.12 125.127 23.16C124.461 24.1733 123.461 24.9733 122.127 25.56C120.821 26.12 119.221 26.4 117.327 26.4ZM131.254 26V24.04H132.414C133.027 24.04 133.507 23.92 133.854 23.68C134.2 23.44 134.374 22.88 134.374 22V7.04C134.374 6.21333 134.187 5.69333 133.814 5.48C133.44 5.24 132.974 5.12 132.414 5.12H131.254V3.16H142.494V5.12H141.534C140.974 5.12 140.507 5.24 140.134 5.48C139.76 5.72 139.574 6.28 139.574 7.16V13H148.574V7.16C148.574 6.28 148.387 5.72 148.014 5.48C147.64 5.24 147.16 5.12 146.574 5.12H145.654V3.16H156.894V5.12H155.734C155.174 5.12 154.707 5.24 154.334 5.48C153.96 5.72 153.774 6.28 153.774 7.16V22.16C153.774 22.9867 153.947 23.5067 154.294 23.72C154.667 23.9333 155.147 24.04 155.734 24.04H156.894V26H145.654V24.04H146.574C147.187 24.04 147.667 23.92 148.014 23.68C148.387 23.44 148.574 22.88 148.574 22V15H139.574V22C139.574 22.88 139.747 23.44 140.094 23.68C140.467 23.92 140.947 24.04 141.534 24.04H142.494V26H131.254ZM160.542 26V24.04H160.942C161.396 24.04 161.782 23.9867 162.102 23.88C162.422 23.7733 162.702 23.5733 162.942 23.28C163.209 22.96 163.449 22.52 163.662 21.96L170.942 3.16H175.782L182.742 21.84C183.062 22.6667 183.436 23.24 183.862 23.56C184.316 23.88 184.809 24.04 185.342 24.04H185.942V26H174.862V24.04H175.982C176.489 24.04 176.876 23.96 177.142 23.8C177.409 23.6133 177.542 23.36 177.542 23.04C177.542 22.8267 177.516 22.6133 177.462 22.4C177.409 22.16 177.342 21.9333 177.262 21.72L176.062 18.36H167.782L166.742 21.2C166.636 21.52 166.542 21.8267 166.462 22.12C166.382 22.3867 166.342 22.6533 166.342 22.92C166.342 23.2133 166.462 23.48 166.702 23.72C166.969 23.9333 167.369 24.04 167.902 24.04H169.022V26H160.542ZM168.502 16.36H175.342L173.542 11.36C173.276 10.56 172.996 9.74667 172.702 8.92C172.436 8.09333 172.196 7.28 171.982 6.48C171.849 7.01333 171.689 7.54667 171.502 8.08C171.342 8.61333 171.156 9.14667 170.942 9.68C170.756 10.1867 170.569 10.7067 170.382 11.24L168.502 16.36Z" fill="url(#paint0_linear_135_6)"/>
<path d="M5.483 50V48.781H6.288C6.61 48.781 6.85533 48.7273 7.024 48.62C7.208 48.4973 7.3 48.206 7.3 47.746V39.144C7.3 38.684 7.208 38.3927 7.024 38.27C6.85533 38.1473 6.61 38.086 6.288 38.086H5.483V36.867H16.868L16.96 40.432H15.419L15.327 39.466C15.2963 39.098 15.2197 38.822 15.097 38.638C14.9743 38.4387 14.821 38.3007 14.637 38.224C14.453 38.1473 14.2537 38.109 14.039 38.109H10.796V42.939H15.35V44.181H10.796V47.654C10.796 48.1447 10.8727 48.459 11.026 48.597C11.1947 48.7197 11.4477 48.781 11.785 48.781H13.05V50H5.483ZM25.5586 50.23C24.0406 50.23 22.7756 49.9463 21.7636 49.379C20.7669 48.8117 20.0156 48.022 19.5096 47.01C19.0189 45.9827 18.7736 44.779 18.7736 43.399C18.7736 42.0343 19.0189 40.846 19.5096 39.834C20.0156 38.822 20.7746 38.04 21.7866 37.488C22.7986 36.9207 24.0636 36.637 25.5816 36.637C27.0536 36.637 28.2879 36.9207 29.2846 37.488C30.2966 38.04 31.0556 38.822 31.5616 39.834C32.0676 40.846 32.3206 42.0343 32.3206 43.399C32.3206 44.779 32.0599 45.9827 31.5386 47.01C31.0326 48.022 30.2736 48.8117 29.2616 49.379C28.2649 49.9463 27.0306 50.23 25.5586 50.23ZM25.5586 48.758C26.3406 48.758 26.9539 48.5433 27.3986 48.114C27.8586 47.6847 28.1883 47.0713 28.3876 46.274C28.5869 45.4767 28.6866 44.5183 28.6866 43.399C28.6866 42.295 28.5869 41.352 28.3876 40.57C28.1883 39.7727 27.8586 39.167 27.3986 38.753C26.9539 38.3237 26.3483 38.109 25.5816 38.109C24.7996 38.109 24.1709 38.3237 23.6956 38.753C23.2356 39.167 22.9059 39.7727 22.7066 40.57C22.5073 41.352 22.4076 42.295 22.4076 43.399C22.4076 44.5183 22.5073 45.4767 22.7066 46.274C22.9059 47.0713 23.2356 47.6847 23.6956 48.114C24.1556 48.5433 24.7766 48.758 25.5586 48.758ZM33.9859 50V48.781H34.7909C35.0976 48.781 35.3429 48.7273 35.5269 48.62C35.7109 48.4973 35.8029 48.206 35.8029 47.746V39.144C35.8029 38.684 35.7109 38.3927 35.5269 38.27C35.3429 38.1473 35.0976 38.086 34.7909 38.086H33.9859V36.867H40.6329C41.9056 36.867 42.9329 37.0203 43.7149 37.327C44.4969 37.6183 45.0719 38.0323 45.4399 38.569C45.8079 39.1057 45.9919 39.7343 45.9919 40.455C45.9919 41.0837 45.8693 41.605 45.6239 42.019C45.3939 42.433 45.0873 42.7703 44.7039 43.031C44.3359 43.2917 43.9373 43.4987 43.5079 43.652L45.7389 47.378C45.9536 47.7153 46.1529 47.9913 46.3369 48.206C46.5363 48.4053 46.7356 48.551 46.9349 48.643C47.1496 48.735 47.3643 48.781 47.5789 48.781H47.6709V50H46.6819C45.8693 50 45.1869 49.9463 44.6349 49.839C44.0983 49.7163 43.6536 49.517 43.3009 49.241C42.9483 48.965 42.6416 48.597 42.3809 48.137L40.3109 44.365H39.2989V47.746C39.2989 48.206 39.3909 48.4973 39.5749 48.62C39.7589 48.7273 40.0043 48.781 40.3109 48.781H41.1159V50H33.9859ZM39.9889 43.146C40.7709 43.146 41.3613 42.939 41.7599 42.525C42.1586 42.0957 42.3579 41.444 42.3579 40.57C42.3579 39.65 42.1739 39.0137 41.8059 38.661C41.4379 38.293 40.9089 38.109 40.2189 38.109H39.2989V43.146H39.9889ZM56.6885 50V48.781H57.5855C57.9075 48.781 58.1375 48.712 58.2755 48.574C58.4289 48.436 58.5055 48.1063 58.5055 47.585V38.109H57.1025C56.7192 38.109 56.4125 38.155 56.1825 38.247C55.9679 38.339 55.8069 38.4847 55.6995 38.684C55.5922 38.868 55.5232 39.121 55.4925 39.443L55.3545 40.639H53.9285L54.0205 36.867H66.4635L66.5785 40.639H65.1295L64.9915 39.443C64.9609 39.121 64.8919 38.868 64.7845 38.684C64.6925 38.4847 64.5315 38.339 64.3015 38.247C64.0869 38.155 63.7879 38.109 63.4045 38.109H62.0015V47.654C62.0015 48.1447 62.0782 48.459 62.2315 48.597C62.3849 48.7197 62.6149 48.781 62.9215 48.781H63.8185V50H56.6885ZM67.4303 50V48.781H68.2353C68.5879 48.781 68.8409 48.7197 68.9943 48.597C69.1629 48.459 69.2473 48.1447 69.2473 47.654V39.144C69.2473 38.684 69.1553 38.3927 68.9713 38.27C68.7873 38.1473 68.5419 38.086 68.2353 38.086H67.4303V36.867H74.3763V38.086H73.7783C73.4563 38.086 73.2033 38.155 73.0193 38.293C72.8353 38.4157 72.7433 38.7223 72.7433 39.213V42.479H77.4813V39.213C77.4813 38.7223 77.3893 38.4157 77.2053 38.293C77.0213 38.155 76.7683 38.086 76.4463 38.086H75.8483V36.867H82.7943V38.086H81.9893C81.6826 38.086 81.4373 38.155 81.2533 38.293C81.0693 38.4157 80.9773 38.7223 80.9773 39.213V47.746C80.9773 48.206 81.0616 48.4973 81.2303 48.62C81.3989 48.7273 81.6519 48.781 81.9893 48.781H82.7943V50H75.8483V48.781H76.4463C76.7836 48.781 77.0366 48.7197 77.2053 48.597C77.3893 48.459 77.4813 48.1447 77.4813 47.654V43.721H72.7433V47.654C72.7433 48.1447 72.8276 48.459 72.9963 48.597C73.1803 48.7197 73.4409 48.781 73.7783 48.781H74.3763V50H67.4303ZM83.7594 50V48.781H84.5644C84.8864 48.781 85.1317 48.7273 85.3004 48.62C85.4844 48.4973 85.5764 48.1983 85.5764 47.723V39.236C85.5764 38.73 85.492 38.4157 85.3234 38.293C85.1547 38.155 84.9017 38.086 84.5644 38.086H83.7594V36.867H95.1444L95.2364 40.432H93.6954L93.6034 39.489C93.542 38.9983 93.4117 38.6457 93.2124 38.431C93.013 38.2163 92.714 38.109 92.3154 38.109H89.0724V42.479H93.6264V43.721H89.0724V48.735H92.9364C93.289 48.735 93.565 48.6123 93.7644 48.367C93.9637 48.1063 94.1017 47.769 94.1784 47.355L94.3394 46.412H95.8344L95.6734 50H83.7594ZM102.94 50V48.781H103.745C104.067 48.781 104.313 48.7273 104.481 48.62C104.665 48.4973 104.757 48.206 104.757 47.746V39.144C104.757 38.684 104.665 38.3927 104.481 38.27C104.313 38.1473 104.067 38.086 103.745 38.086H102.94V36.867H109.196L111.956 44.549L114.624 36.867H120.765V38.086H119.96C119.623 38.086 119.37 38.155 119.201 38.293C119.033 38.4157 118.948 38.7223 118.948 39.213V47.654C118.948 48.1447 119.033 48.459 119.201 48.597C119.37 48.7197 119.623 48.781 119.96 48.781H120.765V50H114.003V48.781H114.371C114.739 48.781 115.015 48.712 115.199 48.574C115.383 48.436 115.475 48.16 115.475 47.746V39.052L111.703 50H110.277L106.39 39.052V47.654C106.39 48.1447 106.482 48.459 106.666 48.597C106.866 48.7197 107.195 48.781 107.655 48.781H107.954V50H102.94ZM121.35 50V48.781H121.534C121.794 48.781 122.017 48.7503 122.201 48.689C122.4 48.6277 122.576 48.5127 122.73 48.344C122.883 48.1753 123.021 47.9377 123.144 47.631L127.33 36.867H130.642L134.598 47.378C134.812 47.9147 135.05 48.2827 135.311 48.482C135.587 48.6813 135.87 48.781 136.162 48.781H136.553V50H129.699V48.781H130.343C130.619 48.781 130.818 48.7427 130.941 48.666C131.079 48.574 131.148 48.436 131.148 48.252C131.148 48.1293 131.132 48.0067 131.102 47.884C131.071 47.7613 131.033 47.631 130.987 47.493L130.32 45.607H125.651L125.076 47.148C125.014 47.3473 124.961 47.5237 124.915 47.677C124.869 47.8303 124.846 47.9913 124.846 48.16C124.846 48.3133 124.899 48.459 125.007 48.597C125.129 48.7197 125.336 48.781 125.628 48.781H126.318V50H121.35ZM126.088 44.365H129.86L128.894 41.628C128.74 41.1987 128.587 40.754 128.434 40.294C128.28 39.834 128.135 39.374 127.997 38.914C127.92 39.2207 127.828 39.5273 127.721 39.834C127.629 40.1407 127.529 40.4473 127.422 40.754C127.314 41.0453 127.207 41.3367 127.1 41.628L126.088 44.365ZM137.037 50V48.781H137.842C138.148 48.781 138.394 48.7273 138.578 48.62C138.762 48.4973 138.854 48.206 138.854 47.746V39.144C138.854 38.684 138.762 38.3927 138.578 38.27C138.394 38.1473 138.148 38.086 137.842 38.086H137.037V36.867H143.684C144.956 36.867 145.984 37.0203 146.766 37.327C147.548 37.6183 148.123 38.0323 148.491 38.569C148.859 39.1057 149.043 39.7343 149.043 40.455C149.043 41.0837 148.92 41.605 148.675 42.019C148.445 42.433 148.138 42.7703 147.755 43.031C147.387 43.2917 146.988 43.4987 146.559 43.652L148.79 47.378C149.004 47.7153 149.204 47.9913 149.388 48.206C149.587 48.4053 149.786 48.551 149.986 48.643C150.2 48.735 150.415 48.781 150.63 48.781H150.722V50H149.733C148.92 50 148.238 49.9463 147.686 49.839C147.149 49.7163 146.704 49.517 146.352 49.241C145.999 48.965 145.692 48.597 145.432 48.137L143.362 44.365H142.35V47.746C142.35 48.206 142.442 48.4973 142.626 48.62C142.81 48.7273 143.055 48.781 143.362 48.781H144.167V50H137.037ZM143.04 43.146C143.822 43.146 144.412 42.939 144.811 42.525C145.209 42.0957 145.409 41.444 145.409 40.57C145.409 39.65 145.225 39.0137 144.857 38.661C144.489 38.293 143.96 38.109 143.27 38.109H142.35V43.146H143.04ZM151.12 50V48.781H151.925C152.247 48.781 152.492 48.7273 152.661 48.62C152.845 48.4973 152.937 48.206 152.937 47.746V39.144C152.937 38.684 152.845 38.3927 152.661 38.27C152.492 38.1473 152.247 38.086 151.925 38.086H151.12V36.867H158.066V38.086H157.445C157.123 38.086 156.87 38.155 156.686 38.293C156.517 38.4157 156.433 38.7223 156.433 39.213V43.031L159.032 40.432C159.446 40.018 159.737 39.7037 159.906 39.489C160.074 39.259 160.159 39.006 160.159 38.73C160.159 38.5153 160.059 38.3543 159.86 38.247C159.676 38.1397 159.369 38.086 158.94 38.086V36.867H164.897V38.086C164.498 38.086 164.145 38.1473 163.839 38.27C163.532 38.3927 163.241 38.569 162.965 38.799C162.689 39.0137 162.397 39.2743 162.091 39.581L159.653 42.019L163.057 47.286C163.317 47.6693 163.563 47.976 163.793 48.206C164.038 48.4207 164.283 48.574 164.529 48.666C164.789 48.7427 165.058 48.781 165.334 48.781H165.426V50H164.092C163.034 50 162.213 49.9387 161.631 49.816C161.048 49.6933 160.588 49.4863 160.251 49.195C159.929 48.8883 159.607 48.482 159.285 47.976L157.031 44.319L156.433 44.664V47.654C156.433 48.1447 156.517 48.459 156.686 48.597C156.87 48.7197 157.13 48.781 157.468 48.781H158.066V50H151.12ZM165.899 50V48.781H166.704C167.026 48.781 167.271 48.7273 167.44 48.62C167.624 48.4973 167.716 48.1983 167.716 47.723V39.236C167.716 38.73 167.632 38.4157 167.463 38.293C167.294 38.155 167.041 38.086 166.704 38.086H165.899V36.867H177.284L177.376 40.432H175.835L175.743 39.489C175.682 38.9983 175.551 38.6457 175.352 38.431C175.153 38.2163 174.854 38.109 174.455 38.109H171.212V42.479H175.766V43.721H171.212V48.735H175.076C175.429 48.735 175.705 48.6123 175.904 48.367C176.103 48.1063 176.241 47.769 176.318 47.355L176.479 46.412H177.974L177.813 50H165.899ZM181.774 50V48.781H182.671C182.993 48.781 183.223 48.712 183.361 48.574C183.514 48.436 183.591 48.1063 183.591 47.585V38.109H182.188C181.804 38.109 181.498 38.155 181.268 38.247C181.053 38.339 180.892 38.4847 180.785 38.684C180.677 38.868 180.608 39.121 180.578 39.443L180.44 40.639H179.014L179.106 36.867H191.549L191.664 40.639H190.215L190.077 39.443C190.046 39.121 189.977 38.868 189.87 38.684C189.778 38.4847 189.617 38.339 189.387 38.247C189.172 38.155 188.873 38.109 188.49 38.109H187.087V47.654C187.087 48.1447 187.163 48.459 187.317 48.597C187.47 48.7197 187.7 48.781 188.007 48.781H188.904V50H181.774Z" fill="url(#paint1_linear_135_6)"/>
<path d="M3.168 64.12C2.632 64.12 2.184 64.072 1.824 63.976C1.464 63.872 1.176 63.74 0.96 63.58C0.744 63.412 0.588 63.228 0.492 63.028C0.404 62.828 0.36 62.632 0.36 62.44C0.36 62.168 0.424 61.952 0.552 61.792C0.68 61.624 0.848 61.504 1.056 61.432C1.264 61.36 1.484 61.324 1.716 61.324C1.716 61.78 1.784 62.164 1.92 62.476C2.064 62.78 2.26 63.012 2.508 63.172C2.756 63.324 3.04 63.4 3.36 63.4C3.832 63.4 4.196 63.276 4.452 63.028C4.716 62.78 4.848 62.472 4.848 62.104C4.848 61.832 4.772 61.6 4.62 61.408C4.476 61.208 4.256 61.028 3.96 60.868C3.664 60.7 3.292 60.524 2.844 60.34C2.428 60.172 2.076 59.996 1.788 59.812C1.5 59.628 1.268 59.432 1.092 59.224C0.916 59.008 0.788 58.78 0.708 58.54C0.636 58.292 0.6 58.02 0.6 57.724C0.6 57.236 0.728 56.812 0.984 56.452C1.24 56.092 1.588 55.812 2.028 55.612C2.476 55.412 2.98 55.312 3.54 55.312C4.132 55.312 4.616 55.376 4.992 55.504C5.368 55.624 5.644 55.788 5.82 55.996C6.004 56.204 6.096 56.44 6.096 56.704C6.096 56.984 5.972 57.22 5.724 57.412C5.484 57.604 5.116 57.7 4.62 57.7C4.62 57.476 4.576 57.236 4.488 56.98C4.408 56.724 4.276 56.504 4.092 56.32C3.908 56.136 3.66 56.044 3.348 56.044C3.132 56.044 2.932 56.088 2.748 56.176C2.572 56.256 2.428 56.38 2.316 56.548C2.212 56.708 2.16 56.908 2.16 57.148C2.16 57.372 2.212 57.58 2.316 57.772C2.42 57.964 2.616 58.156 2.904 58.348C3.192 58.532 3.604 58.732 4.14 58.948C4.692 59.172 5.136 59.404 5.472 59.644C5.808 59.884 6.052 60.156 6.204 60.46C6.356 60.756 6.432 61.1 6.432 61.492C6.432 62.004 6.296 62.46 6.024 62.86C5.76 63.252 5.384 63.56 4.896 63.784C4.408 64.008 3.832 64.12 3.168 64.12ZM7.27125 64V63.364H7.29525C7.47925 63.364 7.63925 63.344 7.77525 63.304C7.91925 63.264 8.03125 63.188 8.11125 63.076C8.19925 62.956 8.24325 62.776 8.24325 62.536L8.23125 56.248C8.23125 56.032 8.18325 55.872 8.08725 55.768C7.99125 55.664 7.87525 55.596 7.73925 55.564C7.61125 55.532 7.49125 55.516 7.37925 55.516H7.23525V54.88H10.0553V56.86C10.0553 57.068 10.0473 57.292 10.0312 57.532C10.0153 57.764 9.99925 57.964 9.98325 58.132C9.96725 58.3 9.95925 58.384 9.95925 58.384H10.0673C10.2273 58.08 10.3993 57.86 10.5833 57.724C10.7753 57.588 10.9793 57.504 11.1953 57.472C11.4193 57.432 11.6553 57.412 11.9033 57.412C12.5193 57.412 13.0033 57.596 13.3553 57.964C13.7073 58.332 13.8833 58.92 13.8833 59.728V62.512C13.8833 62.76 13.9113 62.944 13.9673 63.064C14.0313 63.184 14.1233 63.264 14.2433 63.304C14.3633 63.344 14.5113 63.364 14.6873 63.364H14.7233V64H12.0593V60.052C12.0593 59.532 11.9873 59.132 11.8433 58.852C11.6993 58.572 11.4513 58.432 11.0993 58.432C10.8353 58.432 10.6273 58.52 10.4753 58.696C10.3233 58.864 10.2153 59.092 10.1513 59.38C10.0873 59.66 10.0553 59.964 10.0553 60.292L10.0673 62.584C10.0673 62.808 10.0993 62.976 10.1633 63.088C10.2353 63.2 10.3353 63.276 10.4633 63.316C10.5913 63.348 10.7433 63.364 10.9193 63.364H10.9553V64H7.27125ZM17.4592 64.12C17.1072 64.12 16.7872 64.052 16.4992 63.916C16.2192 63.772 15.9952 63.556 15.8272 63.268C15.6592 62.972 15.5752 62.604 15.5752 62.164C15.5752 61.516 15.7992 61.036 16.2472 60.724C16.6952 60.412 17.3672 60.24 18.2632 60.208L19.2472 60.172V59.512C19.2472 59.24 19.2312 59.004 19.1992 58.804C19.1672 58.596 19.0992 58.436 18.9952 58.324C18.8912 58.204 18.7272 58.144 18.5032 58.144C18.3032 58.144 18.1432 58.2 18.0232 58.312C17.9032 58.424 17.8192 58.58 17.7712 58.78C17.7232 58.972 17.6992 59.192 17.6992 59.44C17.1632 59.44 16.7592 59.38 16.4872 59.26C16.2152 59.14 16.0792 58.932 16.0792 58.636C16.0792 58.34 16.1912 58.104 16.4152 57.928C16.6392 57.752 16.9392 57.624 17.3152 57.544C17.6912 57.456 18.1032 57.412 18.5512 57.412C19.3912 57.412 20.0192 57.564 20.4352 57.868C20.8592 58.172 21.0712 58.7 21.0712 59.452V62.512C21.0712 62.728 21.0912 62.9 21.1312 63.028C21.1792 63.148 21.2552 63.236 21.3592 63.292C21.4712 63.34 21.6152 63.364 21.7912 63.364H21.8392V64H19.6072L19.3552 63.172H19.2472C19.0712 63.388 18.9032 63.568 18.7432 63.712C18.5912 63.848 18.4152 63.948 18.2152 64.012C18.0152 64.084 17.7632 64.12 17.4592 64.12ZM18.1192 63.244C18.3512 63.244 18.5512 63.184 18.7192 63.064C18.8872 62.936 19.0152 62.756 19.1032 62.524C19.1992 62.292 19.2472 62.02 19.2472 61.708V60.808L18.7072 60.844C18.3872 60.86 18.1352 60.924 17.9512 61.036C17.7672 61.14 17.6352 61.292 17.5552 61.492C17.4752 61.684 17.4352 61.924 17.4352 62.212C17.4352 62.436 17.4592 62.628 17.5072 62.788C17.5552 62.94 17.6312 63.056 17.7352 63.136C17.8392 63.208 17.9672 63.244 18.1192 63.244ZM22.4588 64V63.364H22.4948C22.6788 63.364 22.8388 63.344 22.9748 63.304C23.1108 63.264 23.2188 63.184 23.2988 63.064C23.3788 62.936 23.4188 62.748 23.4188 62.5V59.02C23.4188 58.78 23.3828 58.604 23.3108 58.492C23.2388 58.372 23.1388 58.296 23.0107 58.264C22.8828 58.224 22.7308 58.204 22.5548 58.204H22.5188V57.568H24.9428L25.1828 58.504H25.2428C25.3468 58.264 25.4668 58.064 25.6028 57.904C25.7388 57.744 25.9108 57.624 26.1188 57.544C26.3348 57.464 26.6068 57.424 26.9348 57.424C27.4068 57.424 27.7548 57.508 27.9788 57.676C28.2028 57.844 28.3148 58.084 28.3148 58.396C28.3148 58.764 28.1788 59.052 27.9068 59.26C27.6428 59.46 27.2708 59.56 26.7908 59.56C26.7908 59.336 26.7708 59.152 26.7308 59.008C26.6988 58.864 26.6388 58.756 26.5508 58.684C26.4708 58.604 26.3548 58.564 26.2028 58.564C25.9948 58.564 25.8268 58.636 25.6988 58.78C25.5708 58.924 25.4748 59.104 25.4108 59.32C25.3468 59.528 25.3028 59.74 25.2788 59.956C25.2548 60.172 25.2428 60.348 25.2428 60.484V62.56C25.2428 62.792 25.2788 62.968 25.3508 63.088C25.4228 63.2 25.5228 63.276 25.6508 63.316C25.7788 63.348 25.9228 63.364 26.0828 63.364H26.4668V64H22.4588ZM28.704 64V63.364H28.848C28.968 63.364 29.092 63.348 29.22 63.316C29.356 63.276 29.468 63.2 29.556 63.088C29.652 62.976 29.7 62.808 29.7 62.584V58.936C29.7 58.72 29.652 58.56 29.556 58.456C29.46 58.352 29.344 58.284 29.208 58.252C29.08 58.22 28.96 58.204 28.848 58.204H28.704V57.568H31.524V62.584C31.524 62.808 31.568 62.976 31.656 63.088C31.752 63.2 31.868 63.276 32.004 63.316C32.14 63.348 32.264 63.364 32.376 63.364H32.52V64H28.704ZM30.552 56.488C30.264 56.488 30.02 56.42 29.82 56.284C29.628 56.14 29.532 55.92 29.532 55.624C29.532 55.32 29.632 55.1 29.832 54.964C30.032 54.828 30.276 54.76 30.564 54.76C30.836 54.76 31.072 54.828 31.272 54.964C31.48 55.1 31.584 55.32 31.584 55.624C31.584 55.92 31.48 56.14 31.272 56.284C31.072 56.42 30.832 56.488 30.552 56.488ZM32.9588 64V63.364H32.9828C33.1668 63.364 33.3268 63.344 33.4628 63.304C33.6068 63.264 33.7188 63.188 33.7988 63.076C33.8788 62.956 33.9188 62.776 33.9188 62.536V58.984C33.9188 58.76 33.8828 58.592 33.8108 58.48C33.7388 58.368 33.6388 58.296 33.5107 58.264C33.3828 58.224 33.2308 58.204 33.0548 58.204H33.0188V57.568H35.5388L35.6948 58.42H35.7548C35.9148 58.116 36.0868 57.896 36.2708 57.76C36.4628 57.616 36.6668 57.524 36.8828 57.484C37.1068 57.436 37.3428 57.412 37.5908 57.412C38.2068 57.412 38.6908 57.596 39.0428 57.964C39.3948 58.332 39.5708 58.92 39.5708 59.728V62.512C39.5708 62.76 39.5988 62.944 39.6548 63.064C39.7188 63.184 39.8108 63.264 39.9308 63.304C40.0508 63.344 40.1988 63.364 40.3748 63.364H40.4108V64H37.7468V60.052C37.7468 59.532 37.6748 59.132 37.5308 58.852C37.3868 58.572 37.1388 58.432 36.7868 58.432C36.5228 58.432 36.3148 58.52 36.1628 58.696C36.0108 58.864 35.9028 59.092 35.8388 59.38C35.7748 59.66 35.7428 59.964 35.7428 60.292V62.584C35.7428 62.808 35.7788 62.976 35.8508 63.088C35.9228 63.2 36.0228 63.276 36.1508 63.316C36.2788 63.348 36.4308 63.364 36.6068 63.364H36.6428V64H32.9588ZM43.5547 66.88C42.6107 66.88 41.9067 66.736 41.4427 66.448C40.9787 66.168 40.7467 65.756 40.7467 65.212C40.7467 64.924 40.8067 64.68 40.9267 64.48C41.0547 64.288 41.2387 64.136 41.4787 64.024C41.7267 63.912 42.0227 63.844 42.3667 63.82C42.1507 63.732 41.9507 63.604 41.7667 63.436C41.5827 63.26 41.4907 63.032 41.4907 62.752C41.4907 62.488 41.5907 62.256 41.7907 62.056C41.9907 61.856 42.2467 61.668 42.5587 61.492C42.2067 61.364 41.9147 61.144 41.6827 60.832C41.4507 60.52 41.3347 60.12 41.3347 59.632C41.3347 58.928 41.5387 58.384 41.9467 58C42.3547 57.608 42.9867 57.412 43.8427 57.412C44.1227 57.412 44.3867 57.448 44.6347 57.52C44.8827 57.592 45.0947 57.68 45.2707 57.784C45.4147 57.632 45.5507 57.508 45.6787 57.412C45.8067 57.308 45.9387 57.232 46.0747 57.184C46.2107 57.136 46.3587 57.112 46.5187 57.112C46.8067 57.112 47.0227 57.18 47.1667 57.316C47.3107 57.452 47.3827 57.612 47.3827 57.796C47.3827 57.972 47.3227 58.132 47.2027 58.276C47.0827 58.412 46.8587 58.48 46.5307 58.48C46.5307 58.32 46.4827 58.196 46.3867 58.108C46.2907 58.02 46.1867 57.976 46.0747 57.976C46.0107 57.976 45.9387 57.988 45.8587 58.012C45.7787 58.036 45.7187 58.068 45.6787 58.108C45.8387 58.284 45.9747 58.508 46.0867 58.78C46.2067 59.052 46.2667 59.336 46.2667 59.632C46.2667 60.24 46.0707 60.744 45.6787 61.144C45.2867 61.536 44.6747 61.732 43.8427 61.732C43.7547 61.732 43.6347 61.728 43.4827 61.72C43.3307 61.712 43.2187 61.704 43.1467 61.696C43.0347 61.744 42.9347 61.824 42.8467 61.936C42.7587 62.04 42.7147 62.164 42.7147 62.308C42.7147 62.436 42.7667 62.532 42.8707 62.596C42.9747 62.66 43.1107 62.692 43.2787 62.692H44.7307C45.2667 62.692 45.7027 62.764 46.0387 62.908C46.3747 63.052 46.6227 63.264 46.7827 63.544C46.9507 63.816 47.0347 64.144 47.0347 64.528C47.0347 65.264 46.7507 65.84 46.1827 66.256C45.6147 66.672 44.7387 66.88 43.5547 66.88ZM43.5787 66.16C44.0507 66.16 44.4347 66.112 44.7307 66.016C45.0267 65.928 45.2427 65.796 45.3787 65.62C45.5227 65.444 45.5947 65.224 45.5947 64.96C45.5947 64.704 45.5147 64.524 45.3547 64.42C45.1947 64.324 44.9507 64.276 44.6227 64.276H43.2307C43.0707 64.276 42.9067 64.296 42.7387 64.336C42.5787 64.384 42.4427 64.472 42.3307 64.6C42.2187 64.728 42.1627 64.924 42.1627 65.188C42.1627 65.404 42.2147 65.584 42.3187 65.728C42.4307 65.872 42.5907 65.98 42.7987 66.052C43.0147 66.124 43.2747 66.16 43.5787 66.16ZM43.8067 61.024C44.0227 61.024 44.1867 60.968 44.2987 60.856C44.4187 60.744 44.5027 60.584 44.5507 60.376C44.5987 60.16 44.6227 59.908 44.6227 59.62C44.6227 59.324 44.5987 59.064 44.5507 58.84C44.5027 58.616 44.4187 58.444 44.2987 58.324C44.1787 58.196 44.0107 58.132 43.7947 58.132C43.5867 58.132 43.4227 58.196 43.3027 58.324C43.1827 58.452 43.0947 58.628 43.0387 58.852C42.9907 59.076 42.9667 59.336 42.9667 59.632C42.9667 59.912 42.9907 60.156 43.0387 60.364C43.0947 60.572 43.1827 60.736 43.3027 60.856C43.4307 60.968 43.5987 61.024 43.8067 61.024ZM56.8399 64.12C56.3039 64.12 55.8559 64.072 55.4959 63.976C55.1359 63.872 54.8479 63.74 54.6319 63.58C54.4159 63.412 54.2599 63.228 54.1639 63.028C54.0759 62.828 54.0319 62.632 54.0319 62.44C54.0319 62.168 54.0959 61.952 54.2239 61.792C54.3519 61.624 54.5199 61.504 54.7279 61.432C54.9359 61.36 55.1559 61.324 55.3879 61.324C55.3879 61.78 55.4559 62.164 55.5919 62.476C55.7359 62.78 55.9319 63.012 56.1799 63.172C56.4279 63.324 56.7119 63.4 57.0319 63.4C57.5039 63.4 57.8679 63.276 58.1239 63.028C58.3879 62.78 58.5199 62.472 58.5199 62.104C58.5199 61.832 58.4439 61.6 58.2919 61.408C58.1479 61.208 57.9279 61.028 57.6319 60.868C57.3359 60.7 56.9639 60.524 56.5159 60.34C56.0999 60.172 55.7479 59.996 55.4599 59.812C55.1719 59.628 54.9399 59.432 54.7639 59.224C54.5879 59.008 54.4599 58.78 54.3799 58.54C54.3079 58.292 54.2719 58.02 54.2719 57.724C54.2719 57.236 54.3999 56.812 54.6559 56.452C54.9119 56.092 55.2599 55.812 55.6999 55.612C56.1479 55.412 56.6519 55.312 57.2119 55.312C57.8039 55.312 58.2879 55.376 58.6639 55.504C59.0399 55.624 59.3159 55.788 59.4919 55.996C59.6759 56.204 59.7679 56.44 59.7679 56.704C59.7679 56.984 59.6439 57.22 59.3959 57.412C59.1559 57.604 58.7879 57.7 58.2919 57.7C58.2919 57.476 58.2479 57.236 58.1599 56.98C58.0799 56.724 57.9479 56.504 57.7639 56.32C57.5799 56.136 57.3319 56.044 57.0199 56.044C56.8039 56.044 56.6039 56.088 56.4199 56.176C56.2439 56.256 56.0999 56.38 55.9879 56.548C55.8839 56.708 55.8319 56.908 55.8319 57.148C55.8319 57.372 55.8839 57.58 55.9879 57.772C56.0919 57.964 56.2879 58.156 56.5759 58.348C56.8639 58.532 57.2759 58.732 57.8119 58.948C58.3639 59.172 58.8079 59.404 59.1439 59.644C59.4799 59.884 59.7239 60.156 59.8759 60.46C60.0279 60.756 60.1039 61.1 60.1039 61.492C60.1039 62.004 59.9679 62.46 59.6959 62.86C59.4319 63.252 59.0559 63.56 58.5679 63.784C58.0799 64.008 57.5039 64.12 56.8399 64.12ZM63.7991 64.12C63.1751 64.12 62.6951 63.928 62.3591 63.544C62.0231 63.152 61.8551 62.552 61.8551 61.744V59.056C61.8551 58.824 61.8271 58.648 61.7711 58.528C61.7151 58.4 61.6271 58.316 61.5071 58.276C61.3871 58.228 61.2311 58.204 61.0391 58.204H61.0151V57.568H63.6791V61.408C63.6791 61.752 63.7031 62.052 63.7511 62.308C63.8071 62.556 63.9031 62.752 64.0391 62.896C64.1751 63.032 64.3591 63.1 64.5911 63.1C64.8471 63.1 65.0551 63.028 65.2151 62.884C65.3751 62.732 65.4911 62.52 65.5631 62.248C65.6431 61.968 65.6831 61.644 65.6831 61.276V58.972C65.6831 58.74 65.6431 58.572 65.5631 58.468C65.4831 58.356 65.3791 58.284 65.2511 58.252C65.1231 58.22 64.9791 58.204 64.8191 58.204H64.7831V57.568H67.5071V62.608C67.5071 62.84 67.5391 63.012 67.6031 63.124C67.6751 63.228 67.7711 63.296 67.8911 63.328C68.0191 63.352 68.1591 63.364 68.3111 63.364H68.4071V64H66.0191L65.7551 63.148H65.6951C65.5751 63.356 65.4431 63.524 65.2991 63.652C65.1631 63.78 65.0151 63.88 64.8551 63.952C64.6951 64.016 64.5271 64.06 64.3511 64.084C64.1751 64.108 63.9911 64.12 63.7991 64.12ZM72.247 64.12C71.663 64.12 71.147 64.016 70.699 63.808C70.251 63.592 69.899 63.244 69.643 62.764C69.395 62.276 69.271 61.624 69.271 60.808C69.271 59.944 69.399 59.268 69.655 58.78C69.919 58.284 70.271 57.932 70.711 57.724C71.159 57.516 71.659 57.412 72.211 57.412C72.731 57.412 73.167 57.468 73.519 57.58C73.871 57.692 74.135 57.844 74.311 58.036C74.495 58.22 74.587 58.432 74.587 58.672C74.587 58.84 74.543 59.004 74.455 59.164C74.375 59.316 74.223 59.444 73.999 59.548C73.775 59.644 73.455 59.692 73.039 59.692C73.039 59.412 73.015 59.156 72.967 58.924C72.919 58.692 72.839 58.504 72.727 58.36C72.615 58.216 72.459 58.144 72.259 58.144C72.027 58.144 71.823 58.224 71.647 58.384C71.479 58.536 71.347 58.804 71.251 59.188C71.163 59.572 71.119 60.108 71.119 60.796C71.119 61.332 71.167 61.78 71.263 62.14C71.367 62.5 71.523 62.772 71.731 62.956C71.939 63.132 72.211 63.22 72.547 63.22C72.827 63.22 73.079 63.18 73.303 63.1C73.535 63.012 73.735 62.896 73.903 62.752C74.071 62.6 74.199 62.432 74.287 62.248C74.383 62.304 74.455 62.384 74.503 62.488C74.551 62.584 74.575 62.688 74.575 62.8C74.575 63 74.491 63.204 74.323 63.412C74.163 63.612 73.911 63.78 73.567 63.916C73.231 64.052 72.791 64.12 72.247 64.12ZM78.5752 64.12C77.9912 64.12 77.4752 64.016 77.0272 63.808C76.5792 63.592 76.2272 63.244 75.9712 62.764C75.7232 62.276 75.5992 61.624 75.5992 60.808C75.5992 59.944 75.7272 59.268 75.9832 58.78C76.2472 58.284 76.5992 57.932 77.0392 57.724C77.4872 57.516 77.9872 57.412 78.5392 57.412C79.0592 57.412 79.4952 57.468 79.8472 57.58C80.1992 57.692 80.4632 57.844 80.6392 58.036C80.8232 58.22 80.9152 58.432 80.9152 58.672C80.9152 58.84 80.8712 59.004 80.7832 59.164C80.7032 59.316 80.5512 59.444 80.3272 59.548C80.1032 59.644 79.7832 59.692 79.3672 59.692C79.3672 59.412 79.3432 59.156 79.2952 58.924C79.2472 58.692 79.1672 58.504 79.0552 58.36C78.9432 58.216 78.7872 58.144 78.5872 58.144C78.3552 58.144 78.1512 58.224 77.9752 58.384C77.8072 58.536 77.6752 58.804 77.5792 59.188C77.4912 59.572 77.4472 60.108 77.4472 60.796C77.4472 61.332 77.4952 61.78 77.5912 62.14C77.6952 62.5 77.8512 62.772 78.0592 62.956C78.2672 63.132 78.5392 63.22 78.8752 63.22C79.1552 63.22 79.4072 63.18 79.6312 63.1C79.8632 63.012 80.0632 62.896 80.2312 62.752C80.3992 62.6 80.5272 62.432 80.6152 62.248C80.7112 62.304 80.7832 62.384 80.8312 62.488C80.8792 62.584 80.9032 62.688 80.9032 62.8C80.9032 63 80.8192 63.204 80.6512 63.412C80.4912 63.612 80.2392 63.78 79.8952 63.916C79.5592 64.052 79.1192 64.12 78.5752 64.12ZM85.0353 64.12C84.0193 64.12 83.2473 63.832 82.7193 63.256C82.1913 62.672 81.9273 61.86 81.9273 60.82C81.9273 59.692 82.1873 58.844 82.7073 58.276C83.2273 57.7 83.9593 57.412 84.9033 57.412C85.7753 57.412 86.4593 57.656 86.9553 58.144C87.4593 58.632 87.7113 59.352 87.7113 60.304V60.916H83.7753C83.7913 61.452 83.8633 61.892 83.9913 62.236C84.1193 62.572 84.2993 62.82 84.5313 62.98C84.7713 63.14 85.0553 63.22 85.3833 63.22C85.6633 63.22 85.9113 63.18 86.1273 63.1C86.3513 63.012 86.5433 62.896 86.7033 62.752C86.8633 62.6 86.9873 62.432 87.0753 62.248C87.1873 62.304 87.2673 62.384 87.3153 62.488C87.3713 62.584 87.3993 62.7 87.3993 62.836C87.3993 63.06 87.3153 63.272 87.1473 63.472C86.9793 63.664 86.7193 63.82 86.3673 63.94C86.0233 64.06 85.5793 64.12 85.0353 64.12ZM85.8753 60.148C85.8753 59.74 85.8433 59.392 85.7793 59.104C85.7153 58.808 85.6153 58.584 85.4793 58.432C85.3433 58.272 85.1593 58.192 84.9273 58.192C84.7033 58.192 84.5073 58.268 84.3393 58.42C84.1793 58.564 84.0513 58.784 83.9553 59.08C83.8673 59.368 83.8153 59.724 83.7993 60.148H85.8753ZM90.9908 64.12C90.4148 64.12 89.9468 64.06 89.5868 63.94C89.2348 63.812 88.9788 63.644 88.8188 63.436C88.6588 63.22 88.5788 62.98 88.5788 62.716C88.5788 62.452 88.6428 62.256 88.7708 62.128C88.8988 62 89.0508 61.916 89.2268 61.876C89.4028 61.828 89.5588 61.804 89.6948 61.804C89.6948 62.132 89.7468 62.42 89.8508 62.668C89.9628 62.908 90.1148 63.092 90.3068 63.22C90.5068 63.348 90.7348 63.412 90.9908 63.412C91.4068 63.412 91.7068 63.332 91.8908 63.172C92.0828 63.012 92.1788 62.82 92.1788 62.596C92.1788 62.42 92.1348 62.268 92.0468 62.14C91.9588 62.004 91.8068 61.88 91.5908 61.768C91.3748 61.648 91.0788 61.524 90.7028 61.396C90.2708 61.244 89.9068 61.08 89.6108 60.904C89.3148 60.72 89.0868 60.504 88.9268 60.256C88.7748 60 88.6988 59.692 88.6988 59.332C88.6988 58.692 88.9348 58.216 89.4068 57.904C89.8788 57.584 90.5028 57.424 91.2788 57.424C91.7828 57.424 92.1868 57.48 92.4908 57.592C92.8028 57.696 93.0268 57.836 93.1628 58.012C93.3068 58.18 93.3788 58.356 93.3788 58.54C93.3788 58.812 93.2828 59.02 93.0908 59.164C92.9068 59.3 92.5948 59.368 92.1548 59.368C92.1548 58.968 92.0668 58.66 91.8908 58.444C91.7148 58.22 91.4508 58.108 91.0988 58.108C90.9308 58.108 90.7708 58.136 90.6188 58.192C90.4748 58.248 90.3548 58.332 90.2588 58.444C90.1708 58.548 90.1268 58.684 90.1268 58.852C90.1268 59.02 90.1708 59.168 90.2588 59.296C90.3548 59.424 90.5228 59.548 90.7628 59.668C91.0028 59.788 91.3388 59.924 91.7708 60.076C92.1308 60.196 92.4468 60.344 92.7188 60.52C92.9908 60.688 93.2028 60.896 93.3548 61.144C93.5148 61.384 93.5948 61.672 93.5948 62.008C93.5948 62.672 93.3668 63.192 92.9108 63.568C92.4628 63.936 91.8228 64.12 90.9908 64.12ZM96.8501 64.12C96.2741 64.12 95.8061 64.06 95.4461 63.94C95.0941 63.812 94.8381 63.644 94.6781 63.436C94.5181 63.22 94.4381 62.98 94.4381 62.716C94.4381 62.452 94.5021 62.256 94.6301 62.128C94.7581 62 94.9101 61.916 95.0861 61.876C95.2621 61.828 95.4181 61.804 95.5541 61.804C95.5541 62.132 95.6061 62.42 95.7101 62.668C95.8221 62.908 95.9741 63.092 96.1661 63.22C96.3661 63.348 96.5941 63.412 96.8501 63.412C97.2661 63.412 97.5661 63.332 97.7501 63.172C97.9421 63.012 98.0381 62.82 98.0381 62.596C98.0381 62.42 97.9941 62.268 97.9061 62.14C97.8181 62.004 97.6661 61.88 97.4501 61.768C97.2341 61.648 96.9381 61.524 96.5621 61.396C96.1301 61.244 95.7661 61.08 95.4701 60.904C95.1741 60.72 94.9461 60.504 94.7861 60.256C94.6341 60 94.5581 59.692 94.5581 59.332C94.5581 58.692 94.7941 58.216 95.2661 57.904C95.7381 57.584 96.3621 57.424 97.1381 57.424C97.6421 57.424 98.0461 57.48 98.3501 57.592C98.6621 57.696 98.8861 57.836 99.0221 58.012C99.1661 58.18 99.2381 58.356 99.2381 58.54C99.2381 58.812 99.1421 59.02 98.9501 59.164C98.7661 59.3 98.4541 59.368 98.0141 59.368C98.0141 58.968 97.9261 58.66 97.7501 58.444C97.5741 58.22 97.3101 58.108 96.9581 58.108C96.7901 58.108 96.6301 58.136 96.4781 58.192C96.3341 58.248 96.2141 58.332 96.1181 58.444C96.0301 58.548 95.9861 58.684 95.9861 58.852C95.9861 59.02 96.0301 59.168 96.1181 59.296C96.2141 59.424 96.3821 59.548 96.6221 59.668C96.8621 59.788 97.1981 59.924 97.6301 60.076C97.9901 60.196 98.3061 60.344 98.5781 60.52C98.8501 60.688 99.0621 60.896 99.2141 61.144C99.3741 61.384 99.4541 61.672 99.4541 62.008C99.4541 62.672 99.2261 63.192 98.7701 63.568C98.3221 63.936 97.6821 64.12 96.8501 64.12ZM101.701 64.096C101.43 64.096 101.198 64.028 101.006 63.892C100.814 63.748 100.718 63.496 100.718 63.136C100.718 62.768 100.814 62.516 101.006 62.38C101.198 62.244 101.43 62.176 101.701 62.176C101.966 62.176 102.194 62.244 102.386 62.38C102.586 62.516 102.686 62.768 102.686 63.136C102.686 63.496 102.586 63.748 102.386 63.892C102.194 64.028 101.966 64.096 101.701 64.096ZM105.229 64.096C104.957 64.096 104.725 64.028 104.533 63.892C104.341 63.748 104.245 63.496 104.245 63.136C104.245 62.768 104.341 62.516 104.533 62.38C104.725 62.244 104.957 62.176 105.229 62.176C105.493 62.176 105.721 62.244 105.913 62.38C106.113 62.516 106.213 62.768 106.213 63.136C106.213 63.496 106.113 63.748 105.913 63.892C105.721 64.028 105.493 64.096 105.229 64.096ZM108.756 64.096C108.484 64.096 108.252 64.028 108.06 63.892C107.868 63.748 107.772 63.496 107.772 63.136C107.772 62.768 107.868 62.516 108.06 62.38C108.252 62.244 108.484 62.176 108.756 62.176C109.02 62.176 109.248 62.244 109.44 62.38C109.64 62.516 109.74 62.768 109.74 63.136C109.74 63.496 109.64 63.748 109.44 63.892C109.248 64.028 109.02 64.096 108.756 64.096ZM116.805 64.12C116.269 64.12 115.821 64.072 115.461 63.976C115.101 63.872 114.813 63.74 114.597 63.58C114.381 63.412 114.225 63.228 114.129 63.028C114.041 62.828 113.997 62.632 113.997 62.44C113.997 62.168 114.061 61.952 114.189 61.792C114.317 61.624 114.485 61.504 114.693 61.432C114.901 61.36 115.121 61.324 115.353 61.324C115.353 61.78 115.421 62.164 115.557 62.476C115.701 62.78 115.897 63.012 116.145 63.172C116.393 63.324 116.677 63.4 116.997 63.4C117.469 63.4 117.833 63.276 118.089 63.028C118.353 62.78 118.485 62.472 118.485 62.104C118.485 61.832 118.409 61.6 118.257 61.408C118.113 61.208 117.893 61.028 117.597 60.868C117.301 60.7 116.929 60.524 116.481 60.34C116.065 60.172 115.713 59.996 115.425 59.812C115.137 59.628 114.905 59.432 114.729 59.224C114.553 59.008 114.425 58.78 114.345 58.54C114.273 58.292 114.237 58.02 114.237 57.724C114.237 57.236 114.365 56.812 114.621 56.452C114.877 56.092 115.225 55.812 115.665 55.612C116.113 55.412 116.617 55.312 117.177 55.312C117.769 55.312 118.253 55.376 118.629 55.504C119.005 55.624 119.281 55.788 119.457 55.996C119.641 56.204 119.733 56.44 119.733 56.704C119.733 56.984 119.609 57.22 119.361 57.412C119.121 57.604 118.753 57.7 118.257 57.7C118.257 57.476 118.213 57.236 118.125 56.98C118.045 56.724 117.913 56.504 117.729 56.32C117.545 56.136 117.297 56.044 116.985 56.044C116.769 56.044 116.569 56.088 116.385 56.176C116.209 56.256 116.065 56.38 115.953 56.548C115.849 56.708 115.797 56.908 115.797 57.148C115.797 57.372 115.849 57.58 115.953 57.772C116.057 57.964 116.253 58.156 116.541 58.348C116.829 58.532 117.241 58.732 117.777 58.948C118.329 59.172 118.773 59.404 119.109 59.644C119.445 59.884 119.689 60.156 119.841 60.46C119.993 60.756 120.069 61.1 120.069 61.492C120.069 62.004 119.933 62.46 119.661 62.86C119.397 63.252 119.021 63.56 118.533 63.784C118.045 64.008 117.469 64.12 116.805 64.12ZM120.908 64V63.364H120.932C121.116 63.364 121.276 63.344 121.412 63.304C121.556 63.264 121.668 63.188 121.748 63.076C121.836 62.956 121.88 62.776 121.88 62.536L121.868 56.248C121.868 56.032 121.82 55.872 121.724 55.768C121.628 55.664 121.512 55.596 121.376 55.564C121.248 55.532 121.128 55.516 121.016 55.516H120.872V54.88H123.692V56.86C123.692 57.068 123.684 57.292 123.668 57.532C123.652 57.764 123.636 57.964 123.62 58.132C123.604 58.3 123.596 58.384 123.596 58.384H123.704C123.864 58.08 124.036 57.86 124.22 57.724C124.412 57.588 124.616 57.504 124.832 57.472C125.056 57.432 125.292 57.412 125.54 57.412C126.156 57.412 126.64 57.596 126.992 57.964C127.344 58.332 127.52 58.92 127.52 59.728V62.512C127.52 62.76 127.548 62.944 127.604 63.064C127.668 63.184 127.76 63.264 127.88 63.304C128 63.344 128.148 63.364 128.324 63.364H128.36V64H125.696V60.052C125.696 59.532 125.624 59.132 125.48 58.852C125.336 58.572 125.088 58.432 124.736 58.432C124.472 58.432 124.264 58.52 124.112 58.696C123.96 58.864 123.852 59.092 123.788 59.38C123.724 59.66 123.692 59.964 123.692 60.292L123.704 62.584C123.704 62.808 123.736 62.976 123.8 63.088C123.872 63.2 123.972 63.276 124.1 63.316C124.228 63.348 124.38 63.364 124.556 63.364H124.592V64H120.908ZM131.096 64.12C130.744 64.12 130.424 64.052 130.136 63.916C129.856 63.772 129.632 63.556 129.464 63.268C129.296 62.972 129.212 62.604 129.212 62.164C129.212 61.516 129.436 61.036 129.884 60.724C130.332 60.412 131.004 60.24 131.9 60.208L132.884 60.172V59.512C132.884 59.24 132.868 59.004 132.836 58.804C132.804 58.596 132.736 58.436 132.632 58.324C132.528 58.204 132.364 58.144 132.14 58.144C131.94 58.144 131.78 58.2 131.66 58.312C131.54 58.424 131.456 58.58 131.408 58.78C131.36 58.972 131.336 59.192 131.336 59.44C130.8 59.44 130.396 59.38 130.124 59.26C129.852 59.14 129.716 58.932 129.716 58.636C129.716 58.34 129.828 58.104 130.052 57.928C130.276 57.752 130.576 57.624 130.952 57.544C131.328 57.456 131.74 57.412 132.188 57.412C133.028 57.412 133.656 57.564 134.072 57.868C134.496 58.172 134.708 58.7 134.708 59.452V62.512C134.708 62.728 134.728 62.9 134.768 63.028C134.816 63.148 134.892 63.236 134.996 63.292C135.108 63.34 135.252 63.364 135.428 63.364H135.476V64H133.244L132.992 63.172H132.884C132.708 63.388 132.54 63.568 132.38 63.712C132.228 63.848 132.052 63.948 131.852 64.012C131.652 64.084 131.4 64.12 131.096 64.12ZM131.756 63.244C131.988 63.244 132.188 63.184 132.356 63.064C132.524 62.936 132.652 62.756 132.74 62.524C132.836 62.292 132.884 62.02 132.884 61.708V60.808L132.344 60.844C132.024 60.86 131.772 60.924 131.588 61.036C131.404 61.14 131.272 61.292 131.192 61.492C131.112 61.684 131.072 61.924 131.072 62.212C131.072 62.436 131.096 62.628 131.144 62.788C131.192 62.94 131.268 63.056 131.372 63.136C131.476 63.208 131.604 63.244 131.756 63.244ZM136.095 64V63.364H136.131C136.315 63.364 136.475 63.344 136.611 63.304C136.747 63.264 136.855 63.184 136.935 63.064C137.015 62.936 137.055 62.748 137.055 62.5V59.02C137.055 58.78 137.019 58.604 136.947 58.492C136.875 58.372 136.775 58.296 136.647 58.264C136.519 58.224 136.367 58.204 136.191 58.204H136.155V57.568H138.579L138.819 58.504H138.879C138.983 58.264 139.103 58.064 139.239 57.904C139.375 57.744 139.547 57.624 139.755 57.544C139.971 57.464 140.243 57.424 140.571 57.424C141.043 57.424 141.391 57.508 141.615 57.676C141.839 57.844 141.951 58.084 141.951 58.396C141.951 58.764 141.815 59.052 141.543 59.26C141.279 59.46 140.907 59.56 140.427 59.56C140.427 59.336 140.407 59.152 140.367 59.008C140.335 58.864 140.275 58.756 140.187 58.684C140.107 58.604 139.991 58.564 139.839 58.564C139.631 58.564 139.463 58.636 139.335 58.78C139.207 58.924 139.111 59.104 139.047 59.32C138.983 59.528 138.939 59.74 138.915 59.956C138.891 60.172 138.879 60.348 138.879 60.484V62.56C138.879 62.792 138.915 62.968 138.987 63.088C139.059 63.2 139.159 63.276 139.287 63.316C139.415 63.348 139.559 63.364 139.719 63.364H140.103V64H136.095ZM142.341 64V63.364H142.485C142.605 63.364 142.729 63.348 142.857 63.316C142.993 63.276 143.105 63.2 143.193 63.088C143.289 62.976 143.337 62.808 143.337 62.584V58.936C143.337 58.72 143.289 58.56 143.193 58.456C143.097 58.352 142.981 58.284 142.845 58.252C142.717 58.22 142.597 58.204 142.485 58.204H142.341V57.568H145.161V62.584C145.161 62.808 145.205 62.976 145.293 63.088C145.389 63.2 145.505 63.276 145.641 63.316C145.777 63.348 145.901 63.364 146.013 63.364H146.157V64H142.341ZM144.189 56.488C143.901 56.488 143.657 56.42 143.457 56.284C143.265 56.14 143.169 55.92 143.169 55.624C143.169 55.32 143.269 55.1 143.469 54.964C143.669 54.828 143.913 54.76 144.201 54.76C144.473 54.76 144.709 54.828 144.909 54.964C145.117 55.1 145.221 55.32 145.221 55.624C145.221 55.92 145.117 56.14 144.909 56.284C144.709 56.42 144.469 56.488 144.189 56.488ZM146.595 64V63.364H146.619C146.803 63.364 146.963 63.344 147.099 63.304C147.243 63.264 147.355 63.188 147.435 63.076C147.515 62.956 147.555 62.776 147.555 62.536V58.984C147.555 58.76 147.519 58.592 147.447 58.48C147.375 58.368 147.275 58.296 147.147 58.264C147.019 58.224 146.867 58.204 146.691 58.204H146.655V57.568H149.175L149.331 58.42H149.391C149.551 58.116 149.723 57.896 149.907 57.76C150.099 57.616 150.303 57.524 150.519 57.484C150.743 57.436 150.979 57.412 151.227 57.412C151.843 57.412 152.327 57.596 152.679 57.964C153.031 58.332 153.207 58.92 153.207 59.728V62.512C153.207 62.76 153.235 62.944 153.291 63.064C153.355 63.184 153.447 63.264 153.567 63.304C153.687 63.344 153.835 63.364 154.011 63.364H154.047V64H151.383V60.052C151.383 59.532 151.311 59.132 151.167 58.852C151.023 58.572 150.775 58.432 150.423 58.432C150.159 58.432 149.951 58.52 149.799 58.696C149.647 58.864 149.539 59.092 149.475 59.38C149.411 59.66 149.379 59.964 149.379 60.292V62.584C149.379 62.808 149.415 62.976 149.487 63.088C149.559 63.2 149.659 63.276 149.787 63.316C149.915 63.348 150.067 63.364 150.243 63.364H150.279V64H146.595ZM157.191 66.88C156.247 66.88 155.543 66.736 155.079 66.448C154.615 66.168 154.383 65.756 154.383 65.212C154.383 64.924 154.443 64.68 154.563 64.48C154.691 64.288 154.875 64.136 155.115 64.024C155.363 63.912 155.659 63.844 156.003 63.82C155.787 63.732 155.587 63.604 155.403 63.436C155.219 63.26 155.127 63.032 155.127 62.752C155.127 62.488 155.227 62.256 155.427 62.056C155.627 61.856 155.883 61.668 156.195 61.492C155.843 61.364 155.551 61.144 155.319 60.832C155.087 60.52 154.971 60.12 154.971 59.632C154.971 58.928 155.175 58.384 155.583 58C155.991 57.608 156.623 57.412 157.479 57.412C157.759 57.412 158.023 57.448 158.271 57.52C158.519 57.592 158.731 57.68 158.907 57.784C159.051 57.632 159.187 57.508 159.315 57.412C159.443 57.308 159.575 57.232 159.711 57.184C159.847 57.136 159.995 57.112 160.155 57.112C160.443 57.112 160.659 57.18 160.803 57.316C160.947 57.452 161.019 57.612 161.019 57.796C161.019 57.972 160.959 58.132 160.839 58.276C160.719 58.412 160.495 58.48 160.167 58.48C160.167 58.32 160.119 58.196 160.023 58.108C159.927 58.02 159.823 57.976 159.711 57.976C159.647 57.976 159.575 57.988 159.495 58.012C159.415 58.036 159.355 58.068 159.315 58.108C159.475 58.284 159.611 58.508 159.723 58.78C159.843 59.052 159.903 59.336 159.903 59.632C159.903 60.24 159.707 60.744 159.315 61.144C158.923 61.536 158.311 61.732 157.479 61.732C157.391 61.732 157.271 61.728 157.119 61.72C156.967 61.712 156.855 61.704 156.783 61.696C156.671 61.744 156.571 61.824 156.483 61.936C156.395 62.04 156.351 62.164 156.351 62.308C156.351 62.436 156.403 62.532 156.507 62.596C156.611 62.66 156.747 62.692 156.915 62.692H158.367C158.903 62.692 159.339 62.764 159.675 62.908C160.011 63.052 160.259 63.264 160.419 63.544C160.587 63.816 160.671 64.144 160.671 64.528C160.671 65.264 160.387 65.84 159.819 66.256C159.251 66.672 158.375 66.88 157.191 66.88ZM157.215 66.16C157.687 66.16 158.071 66.112 158.367 66.016C158.663 65.928 158.879 65.796 159.015 65.62C159.159 65.444 159.231 65.224 159.231 64.96C159.231 64.704 159.151 64.524 158.991 64.42C158.831 64.324 158.587 64.276 158.259 64.276H156.867C156.707 64.276 156.543 64.296 156.375 64.336C156.215 64.384 156.079 64.472 155.967 64.6C155.855 64.728 155.799 64.924 155.799 65.188C155.799 65.404 155.851 65.584 155.955 65.728C156.067 65.872 156.227 65.98 156.435 66.052C156.651 66.124 156.911 66.16 157.215 66.16ZM157.443 61.024C157.659 61.024 157.823 60.968 157.935 60.856C158.055 60.744 158.139 60.584 158.187 60.376C158.235 60.16 158.259 59.908 158.259 59.62C158.259 59.324 158.235 59.064 158.187 58.84C158.139 58.616 158.055 58.444 157.935 58.324C157.815 58.196 157.647 58.132 157.431 58.132C157.223 58.132 157.059 58.196 156.939 58.324C156.819 58.452 156.731 58.628 156.675 58.852C156.627 59.076 156.603 59.336 156.603 59.632C156.603 59.912 156.627 60.156 156.675 60.364C156.731 60.572 156.819 60.736 156.939 60.856C157.067 60.968 157.235 61.024 157.443 61.024ZM167.359 64.12C166.823 64.12 166.375 64.072 166.015 63.976C165.655 63.872 165.367 63.74 165.151 63.58C164.935 63.412 164.779 63.228 164.683 63.028C164.595 62.828 164.551 62.632 164.551 62.44C164.551 62.168 164.615 61.952 164.743 61.792C164.871 61.624 165.039 61.504 165.247 61.432C165.455 61.36 165.675 61.324 165.907 61.324C165.907 61.78 165.975 62.164 166.111 62.476C166.255 62.78 166.451 63.012 166.699 63.172C166.947 63.324 167.231 63.4 167.551 63.4C168.023 63.4 168.387 63.276 168.643 63.028C168.907 62.78 169.039 62.472 169.039 62.104C169.039 61.832 168.963 61.6 168.811 61.408C168.667 61.208 168.447 61.028 168.151 60.868C167.855 60.7 167.483 60.524 167.035 60.34C166.619 60.172 166.267 59.996 165.979 59.812C165.691 59.628 165.459 59.432 165.283 59.224C165.107 59.008 164.979 58.78 164.899 58.54C164.827 58.292 164.791 58.02 164.791 57.724C164.791 57.236 164.919 56.812 165.175 56.452C165.431 56.092 165.779 55.812 166.219 55.612C166.667 55.412 167.171 55.312 167.731 55.312C168.323 55.312 168.807 55.376 169.183 55.504C169.559 55.624 169.835 55.788 170.011 55.996C170.195 56.204 170.287 56.44 170.287 56.704C170.287 56.984 170.163 57.22 169.915 57.412C169.675 57.604 169.307 57.7 168.811 57.7C168.811 57.476 168.767 57.236 168.679 56.98C168.599 56.724 168.467 56.504 168.283 56.32C168.099 56.136 167.851 56.044 167.539 56.044C167.323 56.044 167.123 56.088 166.939 56.176C166.763 56.256 166.619 56.38 166.507 56.548C166.403 56.708 166.351 56.908 166.351 57.148C166.351 57.372 166.403 57.58 166.507 57.772C166.611 57.964 166.807 58.156 167.095 58.348C167.383 58.532 167.795 58.732 168.331 58.948C168.883 59.172 169.327 59.404 169.663 59.644C169.999 59.884 170.243 60.156 170.395 60.46C170.547 60.756 170.623 61.1 170.623 61.492C170.623 62.004 170.487 62.46 170.215 62.86C169.951 63.252 169.575 63.56 169.087 63.784C168.599 64.008 168.023 64.12 167.359 64.12ZM171.427 64V63.364H171.571C171.691 63.364 171.815 63.348 171.943 63.316C172.079 63.276 172.191 63.2 172.279 63.088C172.375 62.976 172.423 62.808 172.423 62.584V56.248C172.423 56.032 172.375 55.872 172.279 55.768C172.183 55.664 172.067 55.596 171.931 55.564C171.803 55.532 171.683 55.516 171.571 55.516H171.427V54.88H174.247V59.512C174.247 59.616 174.243 59.74 174.235 59.884C174.227 60.028 174.219 60.168 174.211 60.304C174.211 60.432 174.207 60.54 174.199 60.628C174.191 60.716 174.187 60.76 174.187 60.76L175.699 59.068C175.787 58.964 175.855 58.88 175.903 58.816C175.951 58.744 175.983 58.684 175.999 58.636C176.015 58.58 176.023 58.532 176.023 58.492C176.023 58.388 175.967 58.308 175.855 58.252C175.751 58.196 175.599 58.168 175.399 58.168V57.568H178.423V58.168C178.287 58.168 178.151 58.188 178.015 58.228C177.879 58.268 177.743 58.332 177.607 58.42C177.471 58.5 177.331 58.604 177.187 58.732C177.043 58.86 176.891 59.012 176.731 59.188L175.975 60.052L177.571 62.428C177.715 62.636 177.855 62.812 177.991 62.956C178.135 63.092 178.275 63.196 178.411 63.268C178.555 63.332 178.691 63.364 178.819 63.364H178.855V64H178.687C178.247 64 177.875 63.992 177.571 63.976C177.275 63.952 177.023 63.908 176.815 63.844C176.607 63.772 176.423 63.664 176.263 63.52C176.111 63.376 175.955 63.18 175.795 62.932L174.727 61.252L174.247 61.612V62.584C174.247 62.808 174.291 62.976 174.379 63.088C174.475 63.2 174.591 63.276 174.727 63.316C174.863 63.348 174.987 63.364 175.099 63.364H175.243V64H171.427ZM179.056 64V63.364H179.2C179.32 63.364 179.444 63.348 179.572 63.316C179.708 63.276 179.82 63.2 179.908 63.088C180.004 62.976 180.052 62.808 180.052 62.584V58.936C180.052 58.72 180.004 58.56 179.908 58.456C179.812 58.352 179.696 58.284 179.56 58.252C179.432 58.22 179.312 58.204 179.2 58.204H179.056V57.568H181.876V62.584C181.876 62.808 181.92 62.976 182.008 63.088C182.104 63.2 182.22 63.276 182.356 63.316C182.492 63.348 182.616 63.364 182.728 63.364H182.872V64H179.056ZM180.904 56.488C180.616 56.488 180.372 56.42 180.172 56.284C179.98 56.14 179.884 55.92 179.884 55.624C179.884 55.32 179.984 55.1 180.184 54.964C180.384 54.828 180.628 54.76 180.916 54.76C181.188 54.76 181.424 54.828 181.624 54.964C181.832 55.1 181.936 55.32 181.936 55.624C181.936 55.92 181.832 56.14 181.624 56.284C181.424 56.42 181.184 56.488 180.904 56.488ZM183.274 64V63.364H183.418C183.538 63.364 183.662 63.348 183.79 63.316C183.926 63.276 184.038 63.2 184.126 63.088C184.222 62.976 184.27 62.808 184.27 62.584V56.248C184.27 56.032 184.222 55.872 184.126 55.768C184.03 55.664 183.914 55.596 183.778 55.564C183.65 55.532 183.53 55.516 183.418 55.516H183.274V54.88H186.094V62.584C186.094 62.808 186.138 62.976 186.226 63.088C186.322 63.2 186.438 63.276 186.574 63.316C186.71 63.348 186.834 63.364 186.946 63.364H187.09V64H183.274ZM187.493 64V63.364H187.637C187.757 63.364 187.881 63.348 188.009 63.316C188.145 63.276 188.257 63.2 188.345 63.088C188.441 62.976 188.489 62.808 188.489 62.584V56.248C188.489 56.032 188.441 55.872 188.345 55.768C188.249 55.664 188.133 55.596 187.997 55.564C187.869 55.532 187.749 55.516 187.637 55.516H187.493V54.88H190.313V62.584C190.313 62.808 190.357 62.976 190.445 63.088C190.541 63.2 190.657 63.276 190.793 63.316C190.929 63.348 191.053 63.364 191.165 63.364H191.309V64H187.493ZM194.28 64.12C193.704 64.12 193.236 64.06 192.876 63.94C192.524 63.812 192.268 63.644 192.108 63.436C191.948 63.22 191.868 62.98 191.868 62.716C191.868 62.452 191.932 62.256 192.06 62.128C192.188 62 192.34 61.916 192.516 61.876C192.692 61.828 192.848 61.804 192.984 61.804C192.984 62.132 193.036 62.42 193.14 62.668C193.252 62.908 193.404 63.092 193.596 63.22C193.796 63.348 194.024 63.412 194.28 63.412C194.696 63.412 194.996 63.332 195.18 63.172C195.372 63.012 195.468 62.82 195.468 62.596C195.468 62.42 195.424 62.268 195.336 62.14C195.248 62.004 195.096 61.88 194.88 61.768C194.664 61.648 194.368 61.524 193.992 61.396C193.56 61.244 193.196 61.08 192.9 60.904C192.604 60.72 192.376 60.504 192.216 60.256C192.064 60 191.988 59.692 191.988 59.332C191.988 58.692 192.224 58.216 192.696 57.904C193.168 57.584 193.792 57.424 194.568 57.424C195.072 57.424 195.476 57.48 195.78 57.592C196.092 57.696 196.316 57.836 196.452 58.012C196.596 58.18 196.668 58.356 196.668 58.54C196.668 58.812 196.572 59.02 196.38 59.164C196.196 59.3 195.884 59.368 195.444 59.368C195.444 58.968 195.356 58.66 195.18 58.444C195.004 58.22 194.74 58.108 194.388 58.108C194.22 58.108 194.06 58.136 193.908 58.192C193.764 58.248 193.644 58.332 193.548 58.444C193.46 58.548 193.416 58.684 193.416 58.852C193.416 59.02 193.46 59.168 193.548 59.296C193.644 59.424 193.812 59.548 194.052 59.668C194.292 59.788 194.628 59.924 195.06 60.076C195.42 60.196 195.736 60.344 196.008 60.52C196.28 60.688 196.492 60.896 196.644 61.144C196.804 61.384 196.884 61.672 196.884 62.008C196.884 62.672 196.656 63.192 196.2 63.568C195.752 63.936 195.112 64.12 194.28 64.12Z" fill="url(#paint2_linear_135_6)"/>
<defs>
<linearGradient id="paint0_linear_135_6" x1="99" y1="0" x2="99" y2="20" gradientUnits="userSpaceOnUse">
<stop stop-color="#ED9A51"/>
<stop offset="1" stop-color="#E77817"/>
</linearGradient>
<linearGradient id="paint1_linear_135_6" x1="99" y1="26" x2="99" y2="57" gradientUnits="userSpaceOnUse">
<stop stop-color="#777777"/>
<stop offset="1"/>
</linearGradient>
<linearGradient id="paint2_linear_135_6" x1="99" y1="51" x2="99" y2="67" gradientUnits="userSpaceOnUse">
<stop stop-color="#777777"/>
<stop offset="1"/>
</linearGradient>
</defs>
</svg>
